SplineFontDB: 3.2
FontName: LiberationMono-BoldItalic
FullName: Liberation Mono Bold Italic
FamilyName: Liberation Mono
Weight: Bold
Copyright: Digitized data copyright (c) 2010 Google Corporation.\nCopyright (c) 2012 Red Hat, Inc.
Version: 2.1.5
ItalicAngle: -12
UnderlinePosition: -375
UnderlineWidth: 205
Ascent: 1638
Descent: 410
InvalidEm: 0
LayerCount: 2
Layer: 0 1 "Back" 1
Layer: 1 1 "Fore" 0
XUID: [1021 445 290132255 6927612]
FSType: 0
OS2Version: 3
OS2_WeightWidthSlopeOnly: 0
OS2_UseTypoMetrics: 0
CreationTime: 1277899326
ModificationTime: 1633005582
PfmFamily: 17
TTFWeight: 700
TTFWidth: 5
LineGap: 0
VLineGap: 0
Panose: 2 7 7 9 2 2 5 9 4 4
OS2TypoAscent: 1297
OS2TypoAOffset: 0
OS2TypoDescent: -428
OS2TypoDOffset: 0
OS2TypoLinegap: 0
OS2WinAscent: 1705
OS2WinAOffset: 0
OS2WinDescent: 615
OS2WinDOffset: 0
HheadAscent: 1705
HheadAOffset: 0
HheadDescent: -615
HheadDOffset: 0
OS2SubXSize: 1434
OS2SubYSize: 1331
OS2SubXOff: 30
OS2SubYOff: 285
OS2SupXSize: 1434
OS2SupYSize: 1331
OS2SupXOff: 80
OS2SupYOff: 865
OS2StrikeYSize: 102
OS2StrikeYPos: 530
OS2FamilyClass: 2053
OS2Vendor: '1ASC'
OS2CodePages: 600001bf.dff70000
OS2UnicodeRanges: e0000aff.400078ff.00000001.00000000
Lookup: 4 1 0 "'dlig' Discretionary Ligatures in Hebrew lookup 0" { "'dlig' Discretionary Ligatures in Hebrew lookup 0 subtable"  } ['dlig' ('hebr' <'dflt' > ) ]
Lookup: 4 1 0 "'ccmp' Glyph Composition/Decomposition in Hebrew lookup 1" { "'ccmp' Glyph Composition/Decomposition in Hebrew lookup 1 subtable"  } ['ccmp' ('hebr' <'dflt' > ) ]
Lookup: 6 1 0 "'ccmp' Glyph Composition/Decomposition in Hebrew lookup 2" { "'ccmp' Glyph Composition/Decomposition in Hebrew lookup 2 subtable"  } ['ccmp' ('hebr' <'dflt' > ) ]
Lookup: 4 1 0 "Ligature Substitution lookup 3" { "Ligature Substitution lookup 3 subtable"  } []

StartChar: .notdef
Encoding: 65536 -1 0
Width: 1229
GlyphClass: 2
Flags: W
LayerCount: 2
Fore
SplineSet
147 0 m 1,0,-1
 147 1349 l 1,1,-1
 1082 1349 l 1,2,-1
 1082 0 l 1,3,-1
 147 0 l 1,0,-1
963 1230 m 1,4,-1
 266 1230 l 1,5,-1
 266 119 l 1,6,-1
 963 119 l 1,7,-1
 963 1230 l 1,4,-1
EndSplineSet
Validated: 1
EndChar

StartChar: exclam
Encoding: 33 33 4
Width: 1229
GlyphClass: 2
Flags: W
LayerCount: 2
Fore
SplineSet
708 426 m 1,0,-1
 478 426 l 1,1,-1
 625 1349 l 1,2,-1
 919 1349 l 1,3,-1
 708 426 l 1,0,-1
363 0 m 1,4,-1
 415 270 l 1,5,-1
 703 270 l 1,6,-1
 651 0 l 1,7,-1
 363 0 l 1,4,-1
EndSplineSet
Validated: 1
EndChar

StartChar: quotedbl
Encoding: 34 34 5
Width: 1229
GlyphClass: 2
Flags: W
LayerCount: 2
Fore
SplineSet
1001 844 m 1,0,-1
 802 844 l 1,1,-1
 890 1485 l 1,2,-1
 1165 1485 l 1,3,-1
 1001 844 l 1,0,-1
545 844 m 1,4,-1
 346 844 l 1,5,-1
 434 1485 l 1,6,-1
 707 1485 l 1,7,-1
 545 844 l 1,4,-1
EndSplineSet
Validated: 1
EndChar

StartChar: numbersign
Encoding: 35 35 6
Width: 1229
GlyphClass: 2
Flags: W
LayerCount: 2
Fore
SplineSet
1008 835 m 1,0,-1
 876 511 l 1,1,-1
 1113 511 l 1,2,-1
 1084 362 l 1,3,-1
 814 362 l 1,4,-1
 666 0 l 1,5,-1
 511 0 l 1,6,-1
 660 362 l 1,7,-1
 351 362 l 1,8,-1
 203 0 l 1,9,-1
 50 0 l 1,10,-1
 198 362 l 1,11,-1
 24 362 l 1,12,-1
 53 511 l 1,13,-1
 259 511 l 1,14,-1
 392 835 l 1,15,-1
 165 835 l 1,16,-1
 194 983 l 1,17,-1
 453 983 l 1,18,-1
 603 1349 l 1,19,-1
 756 1349 l 1,20,-1
 607 983 l 1,21,-1
 915 983 l 1,22,-1
 1065 1349 l 1,23,-1
 1218 1349 l 1,24,-1
 1069 983 l 1,25,-1
 1254 983 l 1,26,-1
 1225 835 l 1,27,-1
 1008 835 l 1,0,-1
545 835 m 1,28,-1
 412 511 l 1,29,-1
 721 511 l 1,30,-1
 854 835 l 1,31,-1
 545 835 l 1,28,-1
EndSplineSet
Validated: 1
EndChar

StartChar: dollar
Encoding: 36 36 7
Width: 1229
GlyphClass: 2
Flags: W
LayerCount: 2
Fore
SplineSet
533 -171 m 1,0,-1
 424 -171 l 1,1,-1
 457 1 l 1,2,3
 244 9 244 9 142 102.5 c 128,-1,4
 40 196 40 196 40 389 c 1,5,-1
 305 436 l 1,6,-1
 305 425 l 2,7,8
 305 316 305 316 351.5 267 c 128,-1,9
 398 218 398 218 497 208 c 1,10,-1
 573 599 l 1,11,12
 571 601 571 601 559.5 603.5 c 128,-1,13
 548 606 548 606 544 606 c 0,14,15
 353 652 353 652 276 728 c 128,-1,16
 199 804 199 804 199 920 c 0,17,18
 199 1006 199 1006 231.5 1090 c 128,-1,19
 264 1174 264 1174 331 1235 c 128,-1,20
 398 1296 398 1296 497 1329 c 128,-1,21
 596 1362 596 1362 723 1367 c 1,22,-1
 749 1501 l 1,23,-1
 858 1501 l 1,24,-1
 832 1367 l 1,25,26
 1026 1360 1026 1360 1116 1279.5 c 128,-1,27
 1206 1199 1206 1199 1215 1017 c 1,28,-1
 943 978 l 1,29,-1
 943 985 l 2,30,31
 943 1150 943 1150 794 1171 c 1,32,-1
 725 819 l 1,33,-1
 746 815 l 1,34,35
 911 774 911 774 983 733 c 128,-1,36
 1055 692 1055 692 1094 632 c 128,-1,37
 1133 572 1133 572 1133 485 c 0,38,39
 1133 391 1133 391 1096 299.5 c 128,-1,40
 1059 208 1059 208 988 144.5 c 128,-1,41
 917 81 917 81 812 45.5 c 128,-1,42
 707 10 707 10 567 4 c 1,43,-1
 533 -171 l 1,0,-1
685 1175 m 1,44,45
 500 1161 500 1161 471 1015 c 1,46,-1
 467 977 l 1,47,48
 467 945 467 945 480 924 c 128,-1,49
 493 903 493 903 515.5 888 c 128,-1,50
 538 873 538 873 621 843 c 1,51,-1
 685 1175 l 1,44,45
867 428 m 0,52,53
 867 464 867 464 852 487 c 128,-1,54
 837 510 837 510 811 526 c 128,-1,55
 785 542 785 542 751 552.5 c 128,-1,56
 717 563 717 563 678 575 c 1,57,-1
 606 208 l 1,58,59
 692 214 692 214 751 242 c 128,-1,60
 810 270 810 270 838.5 320.5 c 128,-1,61
 867 371 867 371 867 428 c 0,52,53
EndSplineSet
Validated: 1
EndChar

StartChar: percent
Encoding: 37 37 8
Width: 1229
GlyphClass: 2
Flags: W
LayerCount: 2
Fore
SplineSet
131 0 m 1,0,-1
 -44 0 l 1,1,-1
 1151 1353 l 1,2,-1
 1328 1353 l 1,3,-1
 131 0 l 1,0,-1
451 1361 m 0,4,5
 680 1361 680 1361 680 1141 c 0,6,7
 680 1062 680 1062 656.5 972.5 c 128,-1,8
 633 883 633 883 585 817 c 128,-1,9
 537 751 537 751 470.5 717.5 c 128,-1,10
 404 684 404 684 315 684 c 0,11,12
 82 684 82 684 82 912 c 0,13,14
 82 988 82 988 106.5 1080.5 c 128,-1,15
 131 1173 131 1173 178.5 1237 c 128,-1,16
 226 1301 226 1301 292.5 1331 c 128,-1,17
 359 1361 359 1361 451 1361 c 0,4,5
503 1123 m 0,18,19
 503 1180 503 1180 482 1203 c 128,-1,20
 461 1226 461 1226 422 1226 c 0,21,22
 372 1226 372 1226 337.5 1190 c 128,-1,23
 303 1154 303 1154 281 1072 c 128,-1,24
 259 990 259 990 259 931 c 0,25,26
 259 824 259 824 344 824 c 0,27,28
 389 824 389 824 424.5 861.5 c 128,-1,29
 460 899 460 899 481.5 979 c 128,-1,30
 503 1059 503 1059 503 1123 c 0,18,19
971 665 m 0,31,32
 1201 665 1201 665 1201 444 c 0,33,34
 1201 330 1201 330 1158 218 c 128,-1,35
 1115 106 1115 106 1033.5 47 c 128,-1,36
 952 -12 952 -12 836 -12 c 0,37,38
 603 -12 603 -12 603 216 c 0,39,40
 603 292 603 292 627.5 383.5 c 128,-1,41
 652 475 652 475 698.5 539 c 128,-1,42
 745 603 745 603 811.5 634 c 128,-1,43
 878 665 878 665 971 665 c 0,31,32
1024 427 m 0,44,45
 1024 484 1024 484 1003 507 c 128,-1,46
 982 530 982 530 943 530 c 0,47,48
 893 530 893 530 858.5 494 c 128,-1,49
 824 458 824 458 802 376 c 128,-1,50
 780 294 780 294 780 235 c 0,51,52
 780 128 780 128 865 128 c 0,53,54
 910 128 910 128 945.5 165.5 c 128,-1,55
 981 203 981 203 1002.5 283 c 128,-1,56
 1024 363 1024 363 1024 427 c 0,44,45
EndSplineSet
Validated: 1
EndChar

StartChar: ampersand
Encoding: 38 38 9
Width: 1229
GlyphClass: 2
Flags: W
LayerCount: 2
Fore
SplineSet
372 779 m 1,0,1
 345 866 345 866 345 958 c 0,2,3
 345 1071 345 1071 394.5 1164 c 128,-1,4
 444 1257 444 1257 543 1307 c 128,-1,5
 642 1357 642 1357 775 1357 c 256,6,7
 908 1357 908 1357 985.5 1297 c 128,-1,8
 1063 1237 1063 1237 1063 1132 c 0,9,10
 1063 1046 1063 1046 1019.5 975 c 128,-1,11
 976 904 976 904 885 840 c 128,-1,12
 794 776 794 776 619 702 c 1,13,14
 683 532 683 532 775 400 c 1,15,16
 882 553 882 553 946 724 c 1,17,-1
 1144 697 l 1,18,19
 1055 459 1055 459 905 262 c 1,20,21
 974 189 974 189 1060 189 c 0,22,23
 1116 189 1116 189 1156 206 c 1,24,-1
 1118 10 l 1,25,26
 1076 -11 1076 -11 1019 -11 c 0,27,28
 856 -11 856 -11 741 104 c 1,29,30
 557 -19 557 -19 358 -19 c 0,31,32
 173 -19 173 -19 77 56.5 c 128,-1,33
 -19 132 -19 132 -19 275 c 0,34,35
 -19 434 -19 434 84.5 566 c 128,-1,36
 188 698 188 698 372 779 c 1,0,1
612 239 m 1,37,38
 485 421 485 421 420 599 c 1,39,40
 332 554 332 554 281 480.5 c 128,-1,41
 230 407 230 407 230 320 c 0,42,43
 230 244 230 244 275.5 203.5 c 128,-1,44
 321 163 321 163 404 163 c 0,45,46
 507 163 507 163 612 239 c 1,37,38
845 1102 m 0,47,48
 845 1144 845 1144 819.5 1169.5 c 128,-1,49
 794 1195 794 1195 741 1195 c 0,50,51
 656 1195 656 1195 606 1138.5 c 128,-1,52
 556 1082 556 1082 556 986 c 0,53,54
 556 920 556 920 577 859 c 1,55,56
 734 925 734 925 789.5 979.5 c 128,-1,57
 845 1034 845 1034 845 1102 c 0,47,48
EndSplineSet
Validated: 1
EndChar

StartChar: quotesingle
Encoding: 39 39 10
Width: 1229
GlyphClass: 2
Flags: W
LayerCount: 2
Fore
SplineSet
773 844 m 1,0,-1
 574 844 l 1,1,-1
 662 1485 l 1,2,-1
 935 1485 l 1,3,-1
 773 844 l 1,0,-1
EndSplineSet
Validated: 1
EndChar

StartChar: parenleft
Encoding: 40 40 11
Width: 1229
GlyphClass: 2
Flags: W
LayerCount: 2
Fore
SplineSet
453 -425 m 1,0,1
 305 -129 305 -129 305 181 c 0,2,3
 305 387 305 387 363.5 630.5 c 128,-1,4
 422 874 422 874 533 1078 c 128,-1,5
 644 1282 644 1282 824 1484 c 1,6,-1
 1105 1484 l 1,7,8
 920 1273 920 1273 809 1069.5 c 128,-1,9
 698 866 698 866 641 632 c 128,-1,10
 584 398 584 398 584 193 c 0,11,12
 584 -117 584 -117 734 -425 c 1,13,-1
 453 -425 l 1,0,1
EndSplineSet
Validated: 1
EndChar

StartChar: parenright
Encoding: 41 41 12
Width: 1229
GlyphClass: 2
Flags: W
LayerCount: 2
Fore
SplineSet
119 -425 m 1,0,1
 308 -211 308 -211 418 -8 c 128,-1,2
 528 195 528 195 584.5 429 c 128,-1,3
 641 663 641 663 641 866 c 0,4,5
 641 1028 641 1028 604 1178 c 128,-1,6
 567 1328 567 1328 490 1484 c 1,7,-1
 771 1484 l 1,8,9
 920 1186 920 1186 920 880 c 0,10,11
 920 680 920 680 863.5 438 c 128,-1,12
 807 196 807 196 696.5 -10.5 c 128,-1,13
 586 -217 586 -217 400 -425 c 1,14,-1
 119 -425 l 1,0,1
EndSplineSet
Validated: 1
EndChar

StartChar: asterisk
Encoding: 42 42 13
Width: 1229
GlyphClass: 2
Flags: W
LayerCount: 2
Fore
SplineSet
836 1209 m 1,0,-1
 1091 1313 l 1,1,-1
 1121 1116 l 1,2,-1
 859 1055 l 1,3,-1
 1004 842 l 1,4,-1
 796 721 l 1,5,-1
 699 973 l 1,6,-1
 501 721 l 1,7,-1
 339 844 l 1,8,-1
 570 1055 l 1,9,-1
 332 1116 l 1,10,-1
 438 1313 l 1,11,-1
 657 1209 l 1,12,-1
 692 1483 l 1,13,-1
 907 1483 l 1,14,-1
 836 1209 l 1,0,-1
EndSplineSet
Validated: 1
EndChar

StartChar: plus
Encoding: 43 43 14
Width: 1229
GlyphClass: 2
Flags: W
LayerCount: 2
Fore
SplineSet
726 569 m 1,0,-1
 726 161 l 1,1,-1
 500 161 l 1,2,-1
 500 569 l 1,3,-1
 101 569 l 1,4,-1
 101 793 l 1,5,-1
 500 793 l 1,6,-1
 500 1201 l 1,7,-1
 726 1201 l 1,8,-1
 726 793 l 1,9,-1
 1128 793 l 1,10,-1
 1128 569 l 1,11,-1
 726 569 l 1,0,-1
EndSplineSet
Validated: 1
EndChar

StartChar: comma
Encoding: 44 44 15
Width: 1229
GlyphClass: 2
Flags: W
LayerCount: 2
Fore
SplineSet
82 -363 m 1,0,-1
 380 299 l 1,1,-1
 695 299 l 1,2,-1
 255 -363 l 1,3,-1
 82 -363 l 1,0,-1
EndSplineSet
Validated: 1
EndChar

StartChar: hyphen
Encoding: 45 45 16
Width: 1229
GlyphClass: 2
Flags: W
LayerCount: 2
Fore
SplineSet
299 409 m 1,0,-1
 346 653 l 1,1,-1
 926 653 l 1,2,-1
 879 409 l 1,3,-1
 299 409 l 1,0,-1
EndSplineSet
Validated: 1
EndChar

StartChar: period
Encoding: 46 46 17
Width: 1229
GlyphClass: 2
Flags: W
LayerCount: 2
Fore
SplineSet
365 0 m 1,0,-1
 424 305 l 1,1,-1
 713 305 l 1,2,-1
 654 0 l 1,3,-1
 365 0 l 1,0,-1
EndSplineSet
Validated: 1
EndChar

StartChar: slash
Encoding: 47 47 18
Width: 1229
GlyphClass: 2
Flags: W
LayerCount: 2
Fore
SplineSet
-20 -20 m 1,0,-1
 1093 1484 l 1,1,-1
 1321 1484 l 1,2,-1
 212 -20 l 1,3,-1
 -20 -20 l 1,0,-1
EndSplineSet
Validated: 1
EndChar

StartChar: zero
Encoding: 48 48 19
Width: 1229
GlyphClass: 2
Flags: W
LayerCount: 2
Fore
SplineSet
502 -20 m 0,0,1
 311 -20 311 -20 212.5 88.5 c 128,-1,2
 114 197 114 197 114 408 c 0,3,4
 114 563 114 563 162.5 764 c 128,-1,5
 211 965 211 965 295 1101.5 c 128,-1,6
 379 1238 379 1238 497 1304 c 128,-1,7
 615 1370 615 1370 780 1370 c 0,8,9
 1168 1370 1168 1370 1168 952 c 0,10,11
 1168 799 1168 799 1121 601 c 128,-1,12
 1074 403 1074 403 986 261.5 c 128,-1,13
 898 120 898 120 776 50 c 128,-1,14
 654 -20 654 -20 502 -20 c 0,0,1
891 963 m 0,15,16
 891 1059 891 1059 853.5 1104.5 c 128,-1,17
 816 1150 816 1150 736 1150 c 0,18,19
 621 1150 621 1150 555 1059.5 c 128,-1,20
 489 969 489 969 439 747.5 c 128,-1,21
 389 526 389 526 389 393 c 0,22,23
 389 288 389 288 430 244.5 c 128,-1,24
 471 201 471 201 547 201 c 0,25,26
 659 201 659 201 727.5 300 c 128,-1,27
 796 399 796 399 843.5 618.5 c 128,-1,28
 891 838 891 838 891 963 c 0,15,16
511 555 m 1,29,-1
 559 804 l 1,30,-1
 774 804 l 1,31,-1
 726 555 l 1,32,-1
 511 555 l 1,29,-1
EndSplineSet
Validated: 1
Substitution2: "'subs' Subscript lookup 5 subtable" zero.subs
EndChar

StartChar: one
Encoding: 49 49 20
Width: 1229
GlyphClass: 2
Flags: W
LayerCount: 2
Fore
SplineSet
44 0 m 1,0,-1
 85 209 l 1,1,-1
 474 209 l 1,2,-1
 647 1100 l 1,3,4
 591 1017 591 1017 463.5 961.5 c 128,-1,5
 336 906 336 906 209 906 c 1,6,-1
 251 1120 l 1,7,8
 391 1120 391 1120 512.5 1181.5 c 128,-1,9
 634 1243 634 1243 710 1349 c 1,10,-1
 976 1349 l 1,11,-1
 755 209 l 1,12,-1
 1078 209 l 1,13,-1
 1037 0 l 1,14,-1
 44 0 l 1,0,-1
EndSplineSet
Validated: 1
Substitution2: "'subs' Subscript lookup 5 subtable" one.subs
EndChar

StartChar: two
Encoding: 50 50 21
Width: 1229
GlyphClass: 2
Flags: W
LayerCount: 2
Fore
SplineSet
18 0 m 1,0,-1
 56 195 l 1,1,2
 211 430 211 430 560 670 c 0,3,4
 748 799 748 799 820.5 874 c 128,-1,5
 893 949 893 949 893 1027 c 0,6,7
 893 1083 893 1083 853.5 1114.5 c 128,-1,8
 814 1146 814 1146 735 1146 c 0,9,10
 645 1146 645 1146 588 1097.5 c 128,-1,11
 531 1049 531 1049 498 952 c 1,12,-1
 218 968 l 1,13,14
 279 1163 279 1163 422 1266.5 c 128,-1,15
 565 1370 565 1370 776 1370 c 0,16,17
 967 1370 967 1370 1075.5 1291 c 128,-1,18
 1184 1212 1184 1212 1184 1074 c 0,19,20
 1184 940 1184 940 1091 821 c 128,-1,21
 998 702 998 702 821 581 c 0,22,23
 594 427 594 427 515 362.5 c 128,-1,24
 436 298 436 298 395 231 c 1,25,-1
 1049 231 l 1,26,-1
 1004 0 l 1,27,-1
 18 0 l 1,0,-1
EndSplineSet
Validated: 1
Substitution2: "'subs' Subscript lookup 5 subtable" two.subs
EndChar

StartChar: three
Encoding: 51 51 22
Width: 1229
GlyphClass: 2
Flags: W
LayerCount: 2
Fore
SplineSet
506 -23 m 0,0,1
 290 -23 290 -23 174.5 66 c 128,-1,2
 59 155 59 155 59 329 c 0,3,4
 59 358 59 358 60 368 c 1,5,-1
 350 393 l 1,6,-1
 350 376 l 2,7,8
 350 205 350 205 549 205 c 0,9,10
 626 205 626 205 686 234 c 128,-1,11
 746 263 746 263 779 317 c 128,-1,12
 812 371 812 371 812 428 c 0,13,14
 812 497 812 497 748 534.5 c 128,-1,15
 684 572 684 572 563 572 c 2,16,-1
 465 572 l 1,17,-1
 509 799 l 1,18,-1
 601 799 l 2,19,20
 737 799 737 799 814.5 857 c 128,-1,21
 892 915 892 915 892 1009 c 0,22,23
 892 1071 892 1071 848 1108.5 c 128,-1,24
 804 1146 804 1146 722 1146 c 0,25,26
 533 1146 533 1146 483 977 c 1,27,-1
 206 997 l 1,28,29
 262 1177 262 1177 411 1273.5 c 128,-1,30
 560 1370 560 1370 770 1370 c 0,31,32
 967 1370 967 1370 1077 1292.5 c 128,-1,33
 1187 1215 1187 1215 1187 1076 c 0,34,35
 1187 989 1187 989 1144.5 907.5 c 128,-1,36
 1102 826 1102 826 1018 771.5 c 128,-1,37
 934 717 934 717 818 695 c 1,38,-1
 817 691 l 1,39,40
 954 674 954 674 1026.5 607.5 c 128,-1,41
 1099 541 1099 541 1099 435 c 0,42,43
 1099 354 1099 354 1056 262.5 c 128,-1,44
 1013 171 1013 171 936 108.5 c 128,-1,45
 859 46 859 46 750 11.5 c 128,-1,46
 641 -23 641 -23 506 -23 c 0,0,1
EndSplineSet
Validated: 1
Substitution2: "'subs' Subscript lookup 5 subtable" three.subs
EndChar

StartChar: four
Encoding: 52 52 23
Width: 1229
GlyphClass: 2
Flags: W
LayerCount: 2
Fore
SplineSet
931 287 m 1,0,-1
 875 0 l 1,1,-1
 607 0 l 1,2,-1
 663 287 l 1,3,-1
 22 287 l 1,4,-1
 63 498 l 1,5,-1
 823 1349 l 1,6,-1
 1137 1349 l 1,7,-1
 971 496 l 1,8,-1
 1159 496 l 1,9,-1
 1119 287 l 1,10,-1
 931 287 l 1,0,-1
831 1105 m 1,11,12
 823 1092 823 1092 789.5 1048.5 c 128,-1,13
 756 1005 756 1005 734 977.5 c 128,-1,14
 712 950 712 950 298 496 c 1,15,-1
 703 496 l 1,16,-1
 793 952 l 1,17,18
 823 1082 823 1082 831 1105 c 1,11,12
EndSplineSet
Validated: 1
Substitution2: "'subs' Subscript lookup 5 subtable" four.subs
Substitution2: "'sups' Superscript lookup 4 subtable" four.sups
EndChar

StartChar: five
Encoding: 53 53 24
Width: 1229
GlyphClass: 2
Flags: W
LayerCount: 2
Fore
SplineSet
492 -20 m 0,0,1
 287 -20 287 -20 177 71.5 c 128,-1,2
 67 163 67 163 67 336 c 2,3,-1
 67 352 l 1,4,-1
 353 375 l 1,5,6
 358 203 358 203 538 203 c 0,7,8
 622 203 622 203 686 242.5 c 128,-1,9
 750 282 750 282 786 356.5 c 128,-1,10
 822 431 822 431 822 506 c 0,11,12
 822 585 822 585 774.5 631 c 128,-1,13
 727 677 727 677 637 677 c 0,14,15
 519 677 519 677 428 586 c 1,16,-1
 154 586 l 1,17,-1
 351 1349 l 1,18,-1
 1198 1349 l 1,19,-1
 1158 1140 l 1,20,-1
 566 1140 l 1,21,-1
 479 814 l 1,22,23
 601 904 601 904 752 904 c 0,24,25
 925 904 925 904 1021 812.5 c 128,-1,26
 1117 721 1117 721 1117 562 c 0,27,28
 1117 406 1117 406 1036.5 268 c 128,-1,29
 956 130 956 130 813.5 55 c 128,-1,30
 671 -20 671 -20 492 -20 c 0,0,1
EndSplineSet
Validated: 1
Substitution2: "'subs' Subscript lookup 5 subtable" five.subs
Substitution2: "'sups' Superscript lookup 4 subtable" five.sups
EndChar

StartChar: six
Encoding: 54 54 25
Width: 1229
GlyphClass: 2
Flags: W
LayerCount: 2
Fore
SplineSet
532 -20 m 0,0,1
 337 -20 337 -20 232 99.5 c 128,-1,2
 127 219 127 219 127 442 c 0,3,4
 127 599 127 599 177.5 788 c 128,-1,5
 228 977 228 977 316.5 1108.5 c 128,-1,6
 405 1240 405 1240 528 1305 c 128,-1,7
 651 1370 651 1370 809 1370 c 0,8,9
 989 1370 989 1370 1076.5 1291 c 128,-1,10
 1164 1212 1164 1212 1175 1046 c 1,11,-1
 903 1009 l 1,12,13
 898 1083 898 1083 858.5 1115.5 c 128,-1,14
 819 1148 819 1148 760 1148 c 0,15,16
 646 1148 646 1148 561 1039.5 c 128,-1,17
 476 931 476 931 435 722 c 1,18,19
 495 797 495 797 582.5 837 c 128,-1,20
 670 877 670 877 771 877 c 0,21,22
 929 877 929 877 1018.5 791 c 128,-1,23
 1108 705 1108 705 1108 554 c 0,24,25
 1108 447 1108 447 1065.5 335.5 c 128,-1,26
 1023 224 1023 224 947.5 145.5 c 128,-1,27
 872 67 872 67 766.5 23.5 c 128,-1,28
 661 -20 661 -20 532 -20 c 0,0,1
820 503 m 0,29,30
 820 579 820 579 778 624.5 c 128,-1,31
 736 670 736 670 650 670 c 0,32,33
 580 670 580 670 521.5 635 c 128,-1,34
 463 600 463 600 431 540.5 c 128,-1,35
 399 481 399 481 399 398 c 0,36,37
 399 309 399 309 443.5 254 c 128,-1,38
 488 199 488 199 566 199 c 0,39,40
 638 199 638 199 695.5 239 c 128,-1,41
 753 279 753 279 786.5 352 c 128,-1,42
 820 425 820 425 820 503 c 0,29,30
EndSplineSet
Validated: 1
Substitution2: "'subs' Subscript lookup 5 subtable" six.subs
Substitution2: "'sups' Superscript lookup 4 subtable" six.sups
EndChar

StartChar: seven
Encoding: 55 55 26
Width: 1229
GlyphClass: 2
Flags: W
LayerCount: 2
Fore
SplineSet
524 0 m 1,0,-1
 231 0 l 1,1,2
 282 261 282 261 453 532 c 128,-1,3
 624 803 624 803 943 1118 c 1,4,-1
 243 1118 l 1,5,-1
 288 1349 l 1,6,-1
 1249 1349 l 1,7,-1
 1206 1126 l 1,8,9
 887 783 887 783 731 521 c 128,-1,10
 575 259 575 259 524 0 c 1,0,-1
EndSplineSet
Validated: 1
Substitution2: "'subs' Subscript lookup 5 subtable" seven.subs
Substitution2: "'sups' Superscript lookup 4 subtable" seven.sups
EndChar

StartChar: eight
Encoding: 56 56 27
Width: 1229
GlyphClass: 2
Flags: W
LayerCount: 2
Fore
SplineSet
506 -20 m 0,0,1
 296 -20 296 -20 182.5 62 c 128,-1,2
 69 144 69 144 69 296 c 0,3,4
 69 398 69 398 114.5 485.5 c 128,-1,5
 160 573 160 573 243.5 632 c 128,-1,6
 327 691 327 691 428 707 c 1,7,-1
 429 711 l 1,8,9
 331 734 331 734 279.5 800 c 128,-1,10
 228 866 228 866 228 953 c 0,11,12
 228 1063 228 1063 296 1162.5 c 128,-1,13
 364 1262 364 1262 487.5 1316 c 128,-1,14
 611 1370 611 1370 772 1370 c 0,15,16
 970 1370 970 1370 1077 1296.5 c 128,-1,17
 1184 1223 1184 1223 1184 1086 c 256,18,19
 1184 949 1184 949 1091.5 844 c 128,-1,20
 999 739 999 739 863 713 c 1,21,-1
 862 709 l 1,22,23
 972 692 972 692 1034 624.5 c 128,-1,24
 1096 557 1096 557 1096 454 c 0,25,26
 1096 330 1096 330 1024 216 c 128,-1,27
 952 102 952 102 818 41 c 128,-1,28
 684 -20 684 -20 506 -20 c 0,0,1
889 1047 m 0,29,30
 889 1173 889 1173 734 1173 c 0,31,32
 663 1173 663 1173 613 1144 c 128,-1,33
 563 1115 563 1115 537.5 1060 c 128,-1,34
 512 1005 512 1005 512 943 c 0,35,36
 512 808 512 808 665 808 c 0,37,38
 741 808 741 808 793.5 841 c 128,-1,39
 846 874 846 874 867.5 936 c 128,-1,40
 889 998 889 998 889 1047 c 0,29,30
809 460 m 0,41,42
 809 611 809 611 623 611 c 0,43,44
 542 611 542 611 483.5 575.5 c 128,-1,45
 425 540 425 540 394.5 472.5 c 128,-1,46
 364 405 364 405 364 333 c 0,47,48
 364 178 364 178 547 178 c 0,49,50
 633 178 633 178 691.5 214.5 c 128,-1,51
 750 251 750 251 779.5 323.5 c 128,-1,52
 809 396 809 396 809 460 c 0,41,42
EndSplineSet
Validated: 1
Substitution2: "'subs' Subscript lookup 5 subtable" eight.subs
Substitution2: "'sups' Superscript lookup 4 subtable" eight.sups
EndChar

StartChar: nine
Encoding: 57 57 28
Width: 1229
GlyphClass: 2
Flags: W
LayerCount: 2
Fore
SplineSet
471 -20 m 0,0,1
 285 -20 285 -20 194.5 60 c 128,-1,2
 104 140 104 140 94 311 c 1,3,-1
 366 348 l 1,4,5
 376 201 376 201 517 201 c 0,6,7
 630 201 630 201 716.5 306 c 128,-1,8
 803 411 803 411 845 619 c 1,9,10
 792 545 792 545 698.5 502 c 128,-1,11
 605 459 605 459 503 459 c 0,12,13
 351 459 351 459 262.5 547.5 c 128,-1,14
 174 636 174 636 174 794 c 0,15,16
 174 908 174 908 215.5 1017.5 c 128,-1,17
 257 1127 257 1127 336 1207 c 128,-1,18
 415 1287 415 1287 525.5 1328.5 c 128,-1,19
 636 1370 636 1370 767 1370 c 0,20,21
 1163 1370 1163 1370 1163 945 c 0,22,23
 1163 786 1163 786 1112 590.5 c 128,-1,24
 1061 395 1061 395 970 257.5 c 128,-1,25
 879 120 879 120 753 50 c 128,-1,26
 627 -20 627 -20 471 -20 c 0,0,1
883 955 m 0,27,28
 883 1046 883 1046 839 1098 c 128,-1,29
 795 1150 795 1150 718 1150 c 0,30,31
 648 1150 648 1150 590 1110 c 128,-1,32
 532 1070 532 1070 498 997 c 128,-1,33
 464 924 464 924 464 845 c 0,34,35
 464 762 464 762 507.5 715 c 128,-1,36
 551 668 551 668 625 668 c 0,37,38
 733 668 733 668 808 747 c 128,-1,39
 883 826 883 826 883 955 c 0,27,28
EndSplineSet
Validated: 1
Substitution2: "'subs' Subscript lookup 5 subtable" nine.subs
Substitution2: "'sups' Superscript lookup 4 subtable" nine.sups
EndChar

StartChar: colon
Encoding: 58 58 29
Width: 1229
GlyphClass: 2
Flags: W
LayerCount: 2
Fore
SplineSet
365 0 m 1,0,-1
 424 305 l 1,1,-1
 713 305 l 1,2,-1
 654 0 l 1,3,-1
 365 0 l 1,0,-1
517 780 m 1,4,-1
 576 1085 l 1,5,-1
 865 1085 l 1,6,-1
 806 780 l 1,7,-1
 517 780 l 1,4,-1
EndSplineSet
Validated: 1
EndChar

StartChar: semicolon
Encoding: 59 59 30
Width: 1229
GlyphClass: 2
Flags: W
LayerCount: 2
Fore
SplineSet
526 780 m 1,0,-1
 585 1085 l 1,1,-1
 874 1085 l 1,2,-1
 815 780 l 1,3,-1
 526 780 l 1,0,-1
150 -363 m 1,4,-1
 448 299 l 1,5,-1
 763 299 l 1,6,-1
 323 -363 l 1,7,-1
 150 -363 l 1,4,-1
EndSplineSet
Validated: 1
EndChar

StartChar: less
Encoding: 60 60 31
Width: 1229
GlyphClass: 2
Flags: W
LayerCount: 2
Fore
SplineSet
101 516 m 1,0,-1
 101 838 l 1,1,-1
 1128 1229 l 1,2,-1
 1128 1001 l 1,3,-1
 295 676 l 1,4,-1
 1128 352 l 1,5,-1
 1128 125 l 1,6,-1
 101 516 l 1,0,-1
EndSplineSet
Validated: 1
EndChar

StartChar: equal
Encoding: 61 61 32
Width: 1229
GlyphClass: 2
Flags: W
LayerCount: 2
Fore
SplineSet
101 842 m 1,0,-1
 101 1065 l 1,1,-1
 1128 1065 l 1,2,-1
 1128 842 l 1,3,-1
 101 842 l 1,0,-1
101 291 m 1,4,-1
 101 512 l 1,5,-1
 1128 512 l 1,6,-1
 1128 291 l 1,7,-1
 101 291 l 1,4,-1
EndSplineSet
Validated: 1
EndChar

StartChar: greater
Encoding: 62 62 33
Width: 1229
GlyphClass: 2
Flags: W
LayerCount: 2
Fore
SplineSet
101 125 m 1,0,-1
 101 352 l 1,1,-1
 933 676 l 1,2,-1
 101 1001 l 1,3,-1
 101 1229 l 1,4,-1
 1128 838 l 1,5,-1
 1128 516 l 1,6,-1
 101 125 l 1,0,-1
EndSplineSet
Validated: 1
EndChar

StartChar: question
Encoding: 63 63 34
Width: 1229
GlyphClass: 2
Flags: W
LayerCount: 2
Fore
SplineSet
667 406 m 1,0,-1
 400 406 l 1,1,2
 415 465 415 465 440.5 512 c 128,-1,3
 466 559 466 559 501.5 599.5 c 128,-1,4
 537 640 537 640 581 673.5 c 128,-1,5
 625 707 625 707 756 792 c 1,6,7
 840 845 840 845 878.5 896 c 128,-1,8
 917 947 917 947 917 1005 c 0,9,10
 917 1065 917 1065 868.5 1104.5 c 128,-1,11
 820 1144 820 1144 726 1144 c 0,12,13
 625 1144 625 1144 545.5 1085.5 c 128,-1,14
 466 1027 466 1027 435 929 c 1,15,-1
 152 941 l 1,16,17
 218 1144 218 1144 380 1257 c 128,-1,18
 542 1370 542 1370 766 1370 c 0,19,20
 971 1370 971 1370 1089 1287.5 c 128,-1,21
 1207 1205 1207 1205 1207 1058 c 0,22,23
 1207 934 1207 934 1136 839.5 c 128,-1,24
 1065 745 1065 745 931 664 c 0,25,26
 803 587 803 587 743 530 c 128,-1,27
 683 473 683 473 667 406 c 1,0,-1
313 0 m 1,28,-1
 365 270 l 1,29,-1
 654 270 l 1,30,-1
 602 0 l 1,31,-1
 313 0 l 1,28,-1
EndSplineSet
Validated: 1
EndChar

StartChar: at
Encoding: 64 64 35
Width: 1229
GlyphClass: 2
Flags: W
LayerCount: 2
Fore
SplineSet
799 104 m 0,0,1
 682 104 682 104 682 212 c 0,2,3
 682 238 682 238 687 261 c 2,4,-1
 698 309 l 1,5,-1
 692 309 l 1,6,7
 641 219 641 219 566.5 161.5 c 128,-1,8
 492 104 492 104 417 104 c 0,9,10
 336 104 336 104 293.5 163.5 c 128,-1,11
 251 223 251 223 251 336 c 0,12,13
 251 503 251 503 327.5 691.5 c 128,-1,14
 404 880 404 880 519 990.5 c 128,-1,15
 634 1101 634 1101 753 1101 c 0,16,17
 816 1101 816 1101 849.5 1061 c 128,-1,18
 883 1021 883 1021 883 946 c 2,19,-1
 883 928 l 1,20,-1
 888 928 l 1,21,-1
 951 1079 l 1,22,-1
 1086 1079 l 1,23,-1
 888 572 l 1,24,25
 827 413 827 413 809 352.5 c 128,-1,26
 791 292 791 292 791 264 c 0,27,28
 791 239 791 239 802 232.5 c 128,-1,29
 813 226 813 226 830 226 c 0,30,31
 895 226 895 226 959.5 335 c 128,-1,32
 1024 444 1024 444 1072 632 c 128,-1,33
 1120 820 1120 820 1120 958 c 0,34,35
 1120 1146 1120 1146 1044 1252 c 128,-1,36
 968 1358 968 1358 829 1358 c 0,37,38
 695 1358 695 1358 574.5 1270 c 128,-1,39
 454 1182 454 1182 360 1024 c 128,-1,40
 266 866 266 866 208 654.5 c 128,-1,41
 150 443 150 443 150 275 c 0,42,43
 150 72 150 72 233 -41.5 c 128,-1,44
 316 -155 316 -155 469 -155 c 0,45,46
 561 -155 561 -155 655 -120 c 128,-1,47
 749 -85 749 -85 869 3 c 1,48,-1
 921 -94 l 1,49,50
 781 -196 781 -196 665.5 -239.5 c 128,-1,51
 550 -283 550 -283 434 -283 c 0,52,53
 231 -283 231 -283 121 -141 c 128,-1,54
 11 1 11 1 11 249 c 0,55,56
 11 444 11 444 80.5 687 c 128,-1,57
 150 930 150 930 266 1109.5 c 128,-1,58
 382 1289 382 1289 533.5 1386.5 c 128,-1,59
 685 1484 685 1484 855 1484 c 0,60,61
 1047 1484 1047 1484 1151 1352.5 c 128,-1,62
 1255 1221 1255 1221 1255 987 c 0,63,64
 1255 802 1255 802 1188 578.5 c 128,-1,65
 1121 355 1121 355 1017.5 229.5 c 128,-1,66
 914 104 914 104 799 104 c 0,0,1
812 873 m 1,67,68
 812 979 812 979 731 979 c 0,69,70
 659 979 659 979 583 879.5 c 128,-1,71
 507 780 507 780 455.5 620 c 128,-1,72
 404 460 404 460 404 339 c 0,73,74
 404 230 404 230 466 230 c 0,75,76
 514 230 514 230 562.5 272.5 c 128,-1,77
 611 315 611 315 658.5 399 c 128,-1,78
 706 483 706 483 760 641 c 0,79,80
 812 791 812 791 812 865 c 0,81,82
 812 869 812 869 812 873 c 1,67,68
EndSplineSet
EndChar

StartChar: A
Encoding: 65 65 36
Width: 1229
GlyphClass: 2
Flags: W
AnchorPoint: "bottom-right" 974 11 basechar 0
AnchorPoint: "bottom" 497 0 basechar 0
AnchorPoint: "top" 762 1349 basechar 0
LayerCount: 2
Fore
SplineSet
1124 0 m 1,0,-1
 830 0 l 1,1,-1
 802 330 l 1,2,-1
 346 330 l 1,3,-1
 190 0 l 1,4,-1
 -105 0 l 1,5,-1
 600 1349 l 1,6,-1
 944 1349 l 1,7,-1
 1124 0 l 1,0,-1
737 1167 m 1,8,9
 721 1126 721 1126 690.5 1058 c 128,-1,10
 660 990 660 990 451 552 c 1,11,-1
 783 552 l 1,12,-1
 749 932 l 1,13,-1
 738 1132 l 1,14,-1
 737 1167 l 1,8,9
EndSplineSet
EndChar

StartChar: B
Encoding: 66 66 37
Width: 1229
GlyphClass: 2
Flags: W
AnchorPoint: "bottom" 478 -3 basechar 0
AnchorPoint: "top" 704 1347 basechar 0
LayerCount: 2
Fore
SplineSet
614 0 m 2,0,-1
 32 0 l 1,1,-1
 294 1349 l 1,2,-1
 819 1349 l 2,3,4
 1006 1349 1006 1349 1105 1283.5 c 128,-1,5
 1204 1218 1204 1218 1204 1088 c 0,6,7
 1204 945 1204 945 1118 843.5 c 128,-1,8
 1032 742 1032 742 869 709 c 1,9,10
 1014 693 1014 693 1088.5 627.5 c 128,-1,11
 1163 562 1163 562 1163 453 c 0,12,13
 1163 373 1163 373 1127 286.5 c 128,-1,14
 1091 200 1091 200 1017.5 134 c 128,-1,15
 944 68 944 68 841 34 c 128,-1,16
 738 0 738 0 614 0 c 2,0,-1
897 1017 m 0,17,18
 897 1130 897 1130 756 1130 c 2,19,-1
 547 1130 l 1,20,-1
 485 811 l 1,21,-1
 696 811 l 2,22,23
 860 811 860 811 892 970 c 0,24,25
 897 998 897 998 897 1017 c 0,17,18
869 457 m 0,26,27
 869 523 869 523 824 558 c 128,-1,28
 779 593 779 593 692 593 c 2,29,-1
 442 593 l 1,30,-1
 370 219 l 1,31,-1
 627 219 l 2,32,33
 705 219 705 219 758.5 249 c 128,-1,34
 812 279 812 279 840.5 337 c 128,-1,35
 869 395 869 395 869 457 c 0,26,27
EndSplineSet
EndChar

StartChar: C
Encoding: 67 67 38
Width: 1229
GlyphClass: 2
Flags: W
AnchorPoint: "bottom" 566 -18 basechar 0
AnchorPoint: "top" 792 1369 basechar 0
LayerCount: 2
Fore
SplineSet
386 486 m 0,0,1
 386 212 386 212 595 212 c 0,2,3
 759 212 759 212 883 456 c 1,4,-1
 1146 404 l 1,5,6
 928 -20 928 -20 547 -20 c 0,7,8
 317 -20 317 -20 200 98.5 c 128,-1,9
 83 217 83 217 83 449 c 0,10,11
 83 557 83 557 107 681 c 0,12,13
 243 1370 243 1370 809 1370 c 0,14,15
 1184 1370 1184 1370 1230 981 c 1,16,-1
 945 915 l 1,17,18
 936 1022 936 1022 890 1080 c 128,-1,19
 844 1138 844 1138 768 1138 c 0,20,21
 651 1138 651 1138 567.5 1052.5 c 128,-1,22
 484 967 484 967 435 798 c 128,-1,23
 386 629 386 629 386 486 c 0,0,1
EndSplineSet
EndChar

StartChar: D
Encoding: 68 68 39
Width: 1229
GlyphClass: 2
Flags: W
AnchorPoint: "bottom" 424 0 basechar 0
AnchorPoint: "top" 694 1353 basechar 0
LayerCount: 2
Fore
SplineSet
451 0 m 2,0,-1
 30 0 l 1,1,-1
 292 1349 l 1,2,-1
 653 1349 l 2,3,4
 1199 1349 1199 1349 1199 889 c 0,5,6
 1199 734 1199 734 1145 555.5 c 128,-1,7
 1091 377 1091 377 993.5 252.5 c 128,-1,8
 896 128 896 128 758 64 c 128,-1,9
 620 0 620 0 451 0 c 2,0,-1
898 849 m 0,10,11
 898 993 898 993 824.5 1057 c 128,-1,12
 751 1121 751 1121 604 1121 c 2,13,-1
 543 1121 l 1,14,-1
 369 228 l 1,15,-1
 471 228 l 2,16,17
 790 228 790 228 880 685 c 0,18,19
 898 778 898 778 898 849 c 0,10,11
EndSplineSet
EndChar

StartChar: E
Encoding: 69 69 40
Width: 1229
GlyphClass: 2
Flags: W
AnchorPoint: "bottom-right" 942 37 basechar 0
AnchorPoint: "bottom" 565 -4 basechar 0
AnchorPoint: "top" 805 1351 basechar 0
LayerCount: 2
Fore
SplineSet
32 0 m 5,0,-1
 294 1349 l 5,1,-1
 1262 1349 l 5,2,-1
 1218 1121 l 5,3,-1
 545 1121 l 5,4,-1
 482 797 l 5,5,-1
 1094 797 l 5,6,-1
 1050 569 l 5,7,-1
 438 569 l 5,8,-1
 371 228 l 5,9,-1
 1085 228 l 5,10,-1
 1041 0 l 5,11,-1
 32 0 l 5,0,-1
EndSplineSet
EndChar

StartChar: F
Encoding: 70 70 41
Width: 1229
GlyphClass: 2
Flags: W
AnchorPoint: "bottom" 576 -2 basechar 0
AnchorPoint: "top" 812 1350 basechar 0
LayerCount: 2
Fore
SplineSet
575 1121 m 1,0,-1
 500 737 l 1,1,-1
 1121 737 l 1,2,-1
 1077 509 l 1,3,-1
 456 509 l 1,4,-1
 357 0 l 1,5,-1
 62 0 l 1,6,-1
 324 1349 l 1,7,-1
 1263 1349 l 1,8,-1
 1219 1121 l 1,9,-1
 575 1121 l 1,0,-1
EndSplineSet
EndChar

StartChar: G
Encoding: 71 71 42
Width: 1229
GlyphClass: 2
Flags: W
AnchorPoint: "bottom" 542 -24 basechar 0
AnchorPoint: "top" 792 1371 basechar 0
LayerCount: 2
Fore
SplineSet
526 -20 m 0,0,1
 310 -20 310 -20 197 105.5 c 128,-1,2
 84 231 84 231 84 460 c 0,3,4
 84 621 84 621 138.5 811.5 c 128,-1,5
 193 1002 193 1002 283 1124.5 c 128,-1,6
 373 1247 373 1247 502 1308.5 c 128,-1,7
 631 1370 631 1370 799 1370 c 0,8,9
 978 1370 978 1370 1074 1278 c 128,-1,10
 1170 1186 1170 1186 1188 995 c 1,11,-1
 904 941 l 1,12,13
 888 1138 888 1138 757 1138 c 0,14,15
 640 1138 640 1138 561.5 1057.5 c 128,-1,16
 483 977 483 977 434 800 c 128,-1,17
 385 623 385 623 385 483 c 0,18,19
 385 216 385 216 587 216 c 0,20,21
 642 216 642 216 705 237.5 c 128,-1,22
 768 259 768 259 809 290 c 1,23,-1
 855 525 l 1,24,-1
 581 525 l 1,25,-1
 623 743 l 1,26,-1
 1167 743 l 1,27,-1
 1059 185 l 1,28,29
 777 -20 777 -20 526 -20 c 0,0,1
EndSplineSet
EndChar

StartChar: H
Encoding: 72 72 43
Width: 1229
GlyphClass: 2
Flags: W
AnchorPoint: "bottom" 508 0 basechar 0
AnchorPoint: "top" 760 1343 basechar 0
LayerCount: 2
Fore
SplineSet
691 0 m 1,0,-1
 803 574 l 1,1,-1
 440 574 l 1,2,-1
 328 0 l 1,3,-1
 33 0 l 1,4,-1
 295 1349 l 1,5,-1
 590 1349 l 1,6,-1
 487 818 l 1,7,-1
 850 818 l 1,8,-1
 953 1349 l 1,9,-1
 1248 1349 l 1,10,-1
 986 0 l 1,11,-1
 691 0 l 1,0,-1
EndSplineSet
EndChar

StartChar: I
Encoding: 73 73 44
Width: 1229
GlyphClass: 2
Flags: W
AnchorPoint: "bottom-right" 542 41 basechar 0
AnchorPoint: "bottom" 531 4 basechar 0
AnchorPoint: "top" 781 1350 basechar 0
LayerCount: 2
Fore
SplineSet
314 1349 m 1,0,-1
 1230 1349 l 1,1,-1
 1186 1121 l 1,2,-1
 870 1121 l 1,3,-1
 696 228 l 1,4,-1
 1012 228 l 1,5,-1
 968 0 l 1,6,-1
 52 0 l 1,7,-1
 96 228 l 1,8,-1
 412 228 l 1,9,-1
 586 1121 l 1,10,-1
 270 1121 l 1,11,-1
 314 1349 l 1,0,-1
EndSplineSet
EndChar

StartChar: J
Encoding: 74 74 45
Width: 1229
GlyphClass: 2
Flags: W
AnchorPoint: "bottom" 475 -27 basechar 0
AnchorPoint: "top" 883 1347 basechar 0
LayerCount: 2
Fore
SplineSet
455 -20 m 0,0,1
 265 -20 265 -20 169.5 81.5 c 128,-1,2
 74 183 74 183 74 370 c 1,3,-1
 75 402 l 1,4,-1
 374 445 l 1,5,-1
 374 426 l 2,6,7
 374 322 374 322 406.5 266.5 c 128,-1,8
 439 211 439 211 502 211 c 0,9,10
 575 211 575 211 629.5 270 c 128,-1,11
 684 329 684 329 705 439 c 2,12,-1
 837 1118 l 1,13,-1
 536 1118 l 1,14,-1
 581 1349 l 1,15,-1
 1176 1349 l 1,16,-1
 1001 446 l 2,17,18
 958 228 958 228 812.5 104 c 128,-1,19
 667 -20 667 -20 455 -20 c 0,0,1
EndSplineSet
EndChar

StartChar: K
Encoding: 75 75 46
Width: 1229
GlyphClass: 2
Flags: W
AnchorPoint: "bottom" 541 -4 basechar 0
AnchorPoint: "top" 787 1345 basechar 0
LayerCount: 2
Fore
SplineSet
776 0 m 1,0,-1
 561 557 l 1,1,-1
 407 415 l 1,2,-1
 326 0 l 1,3,-1
 31 0 l 1,4,-1
 293 1349 l 1,5,-1
 588 1349 l 1,6,-1
 472 750 l 1,7,-1
 1024 1349 l 1,8,-1
 1367 1349 l 1,9,-1
 795 770 l 1,10,-1
 1124 0 l 1,11,-1
 776 0 l 1,0,-1
EndSplineSet
EndChar

StartChar: L
Encoding: 76 76 47
Width: 1229
GlyphClass: 2
Flags: W
AnchorPoint: "bottom" 565 -6 basechar 0
AnchorPoint: "top" 772 1343 basechar 0
LayerCount: 2
Fore
SplineSet
106 0 m 1,0,-1
 368 1349 l 1,1,-1
 663 1349 l 1,2,-1
 445 228 l 1,3,-1
 1061 228 l 1,4,-1
 1017 0 l 1,5,-1
 106 0 l 1,0,-1
EndSplineSet
EndChar

StartChar: M
Encoding: 77 77 48
Width: 1229
GlyphClass: 2
Flags: W
AnchorPoint: "bottom" 510 -2 basechar 0
AnchorPoint: "top" 776 1348 basechar 0
LayerCount: 2
Fore
SplineSet
803 0 m 1,0,-1
 972 868 l 2,1,2
 982 919 982 919 1007 1019.5 c 128,-1,3
 1032 1120 1032 1120 1046 1169 c 1,4,5
 938 897 938 897 905 828 c 1,6,-1
 690 360 l 1,7,-1
 472 360 l 1,8,-1
 437 828 l 2,9,10
 430 928 430 928 427 1169 c 1,11,12
 399 949 399 949 383 868 c 2,13,-1
 214 0 l 1,14,-1
 -6 0 l 1,15,-1
 256 1349 l 1,16,-1
 603 1349 l 1,17,-1
 641 850 l 1,18,-1
 643 803 l 1,19,20
 643 760 643 760 634 619 c 1,21,22
 685 768 685 768 719 849 c 1,23,-1
 952 1349 l 1,24,-1
 1287 1349 l 1,25,-1
 1025 0 l 1,26,-1
 803 0 l 1,0,-1
EndSplineSet
EndChar

StartChar: N
Encoding: 78 78 49
Width: 1229
GlyphClass: 2
Flags: W
AnchorPoint: "bottom" 560 -9 basechar 0
AnchorPoint: "top" 753 1345 basechar 0
LayerCount: 2
Fore
SplineSet
643 0 m 1,0,-1
 455 1010 l 1,1,-1
 443 872 l 1,2,3
 425 708 425 708 415 656 c 2,4,-1
 287 0 l 1,5,-1
 30 0 l 1,6,-1
 292 1349 l 1,7,-1
 629 1349 l 1,8,-1
 821 312 l 1,9,10
 839 551 839 551 864 677 c 2,11,-1
 994 1349 l 1,12,-1
 1251 1349 l 1,13,-1
 989 0 l 1,14,-1
 643 0 l 1,0,-1
EndSplineSet
EndChar

StartChar: O
Encoding: 79 79 50
Width: 1229
GlyphClass: 2
Flags: W
AnchorPoint: "bottom-right" 490 9 basechar 0
AnchorPoint: "bottom" 484 -27 basechar 0
AnchorPoint: "top" 794 1375 basechar 0
LayerCount: 2
Fore
SplineSet
506 -20 m 0,0,1
 293 -20 293 -20 183.5 95.5 c 128,-1,2
 74 211 74 211 74 440 c 0,3,4
 74 604 74 604 125.5 793.5 c 128,-1,5
 177 983 177 983 267 1110.5 c 128,-1,6
 357 1238 357 1238 485.5 1304 c 128,-1,7
 614 1370 614 1370 776 1370 c 0,8,9
 988 1370 988 1370 1098.5 1257 c 128,-1,10
 1209 1144 1209 1144 1209 917 c 0,11,12
 1209 753 1209 753 1157 562.5 c 128,-1,13
 1105 372 1105 372 1013.5 242.5 c 128,-1,14
 922 113 922 113 794 46.5 c 128,-1,15
 666 -20 666 -20 506 -20 c 0,0,1
909 892 m 0,16,17
 909 1138 909 1138 731 1138 c 0,18,19
 624 1138 624 1138 546.5 1049 c 128,-1,20
 469 960 469 960 421.5 782 c 128,-1,21
 374 604 374 604 374 466 c 0,22,23
 374 212 374 212 551 212 c 0,24,25
 657 212 657 212 735 303.5 c 128,-1,26
 813 395 813 395 861 573.5 c 128,-1,27
 909 752 909 752 909 892 c 0,16,17
EndSplineSet
EndChar

StartChar: P
Encoding: 80 80 51
Width: 1229
GlyphClass: 2
Flags: W
AnchorPoint: "bottom" 475 -6 basechar 0
AnchorPoint: "top" 711 1357 basechar 0
LayerCount: 2
Fore
SplineSet
616 476 m 2,0,-1
 419 476 l 1,1,-1
 326 0 l 1,2,-1
 31 0 l 1,3,-1
 293 1349 l 1,4,-1
 773 1349 l 2,5,6
 996 1349 996 1349 1111.5 1267 c 128,-1,7
 1227 1185 1227 1185 1227 1026 c 0,8,9
 1227 920 1227 920 1182.5 813.5 c 128,-1,10
 1138 707 1138 707 1059.5 632.5 c 128,-1,11
 981 558 981 558 868.5 517 c 128,-1,12
 756 476 756 476 616 476 c 2,0,-1
924 973 m 0,13,14
 924 1052 924 1052 866.5 1086 c 128,-1,15
 809 1120 809 1120 696 1120 c 2,16,-1
 544 1120 l 1,17,-1
 463 703 l 1,18,-1
 623 703 l 2,19,20
 877 703 877 703 918 918 c 0,21,22
 924 948 924 948 924 973 c 0,13,14
EndSplineSet
EndChar

StartChar: Q
Encoding: 81 81 52
Width: 1229
GlyphClass: 2
Flags: W
AnchorPoint: "bottom" 690 -418 basechar 0
AnchorPoint: "top" 781 1377 basechar 0
LayerCount: 2
Fore
SplineSet
674 0 m 1,0,1
 689 -94 689 -94 742.5 -140 c 128,-1,2
 796 -186 796 -186 904 -186 c 0,3,4
 948 -186 948 -186 1029 -173 c 1,5,-1
 990 -375 l 1,6,7
 857 -403 857 -403 743 -403 c 0,8,9
 580 -403 580 -403 490 -311 c 128,-1,10
 400 -219 400 -219 376 -7 c 1,11,12
 74 57 74 57 74 439 c 0,13,14
 74 604 74 604 125.5 793 c 128,-1,15
 177 982 177 982 266.5 1109.5 c 128,-1,16
 356 1237 356 1237 484 1303.5 c 128,-1,17
 612 1370 612 1370 776 1370 c 0,18,19
 988 1370 988 1370 1098.5 1257 c 128,-1,20
 1209 1144 1209 1144 1209 917 c 0,21,22
 1209 727 1209 727 1143.5 515.5 c 128,-1,23
 1078 304 1078 304 959.5 174 c 128,-1,24
 841 44 841 44 674 0 c 1,0,1
909 892 m 0,25,26
 909 1138 909 1138 731 1138 c 0,27,28
 624 1138 624 1138 546.5 1049 c 128,-1,29
 469 960 469 960 421.5 782 c 128,-1,30
 374 604 374 604 374 466 c 0,31,32
 374 212 374 212 551 212 c 0,33,34
 657 212 657 212 735 303.5 c 128,-1,35
 813 395 813 395 861 573.5 c 128,-1,36
 909 752 909 752 909 892 c 0,25,26
EndSplineSet
EndChar

StartChar: R
Encoding: 82 82 53
Width: 1229
GlyphClass: 2
Flags: W
AnchorPoint: "bottom" 551 -9 basechar 0
AnchorPoint: "top" 735 1353 basechar 0
LayerCount: 2
Fore
SplineSet
790 0 m 1,0,-1
 600 515 l 1,1,-1
 427 515 l 1,2,-1
 327 0 l 1,3,-1
 32 0 l 1,4,-1
 294 1349 l 1,5,-1
 788 1349 l 2,6,7
 1018 1349 1018 1349 1132 1270.5 c 128,-1,8
 1246 1192 1246 1192 1246 1043 c 0,9,10
 1246 973 1246 973 1223.5 897.5 c 128,-1,11
 1201 822 1201 822 1154 759 c 128,-1,12
 1107 696 1107 696 1037 649.5 c 128,-1,13
 967 603 967 603 886 581 c 1,14,-1
 1122 0 l 1,15,-1
 790 0 l 1,0,-1
942 983 m 1,16,17
 942 1059 942 1059 882.5 1089.5 c 128,-1,18
 823 1120 823 1120 713 1120 c 2,19,-1
 545 1120 l 1,20,-1
 472 744 l 1,21,-1
 648 744 l 2,22,23
 900 744 900 744 937 937 c 1,24,-1
 942 983 l 1,16,17
EndSplineSet
EndChar

StartChar: S
Encoding: 83 83 54
Width: 1229
GlyphClass: 2
Flags: W
AnchorPoint: "bottom" 522 -33 basechar 0
AnchorPoint: "top" 784 1373 basechar 0
LayerCount: 2
Fore
SplineSet
502 -20 m 0,0,1
 267 -20 267 -20 138.5 79 c 128,-1,2
 10 178 10 178 4 367 c 1,3,-1
 297 404 l 1,4,5
 302 310 302 310 364 255.5 c 128,-1,6
 426 201 426 201 553 201 c 0,7,8
 652 201 652 201 716.5 224.5 c 128,-1,9
 781 248 781 248 815 296.5 c 128,-1,10
 849 345 849 345 849 403 c 0,11,12
 849 509 849 509 655 560 c 1,13,14
 432 617 432 617 352 660.5 c 128,-1,15
 272 704 272 704 228 766 c 128,-1,16
 184 828 184 828 184 914 c 0,17,18
 184 1003 184 1003 222 1086.5 c 128,-1,19
 260 1170 260 1170 340 1235 c 128,-1,20
 420 1300 420 1300 532.5 1335 c 128,-1,21
 645 1370 645 1370 776 1370 c 0,22,23
 1000 1370 1000 1370 1109 1281.5 c 128,-1,24
 1218 1193 1218 1193 1219 1007 c 1,25,-1
 927 978 l 1,26,27
 919 1161 919 1161 730 1161 c 0,28,29
 649 1161 649 1161 593 1138.5 c 128,-1,30
 537 1116 537 1116 508 1072 c 128,-1,31
 479 1028 479 1028 479 979 c 0,32,33
 479 939 479 939 502.5 912 c 128,-1,34
 526 885 526 885 566.5 865.5 c 128,-1,35
 607 846 607 846 734 812 c 0,36,37
 903 767 903 767 984.5 721 c 128,-1,38
 1066 675 1066 675 1105 611.5 c 128,-1,39
 1144 548 1144 548 1144 469 c 0,40,41
 1144 337 1144 337 1066 221 c 128,-1,42
 988 105 988 105 842.5 42.5 c 128,-1,43
 697 -20 697 -20 502 -20 c 0,0,1
EndSplineSet
EndChar

StartChar: T
Encoding: 84 84 55
Width: 1229
GlyphClass: 2
Flags: W
AnchorPoint: "bottom" 510 -8 basechar 0
AnchorPoint: "top" 772 1349 basechar 0
LayerCount: 2
Fore
SplineSet
875 1121 m 1,0,-1
 657 0 l 1,1,-1
 362 0 l 1,2,-1
 580 1121 l 1,3,-1
 174 1121 l 1,4,-1
 218 1349 l 1,5,-1
 1325 1349 l 1,6,-1
 1281 1121 l 1,7,-1
 875 1121 l 1,0,-1
EndSplineSet
EndChar

StartChar: U
Encoding: 85 85 56
Width: 1229
GlyphClass: 2
Flags: W
AnchorPoint: "bottom-right" 488 21 basechar 0
AnchorPoint: "bottom" 493 -23 basechar 0
AnchorPoint: "top" 769 1349 basechar 0
LayerCount: 2
Fore
SplineSet
490 -20 m 0,0,1
 291 -20 291 -20 198 65.5 c 128,-1,2
 105 151 105 151 105 330 c 0,3,4
 105 418 105 418 127 528 c 2,5,-1
 286 1349 l 1,6,-1
 581 1349 l 1,7,-1
 422 531 l 2,8,9
 403 436 403 436 403 367 c 0,10,11
 403 282 403 282 437 246.5 c 128,-1,12
 471 211 471 211 543 211 c 0,13,14
 646 211 646 211 708 286.5 c 128,-1,15
 770 362 770 362 805 541 c 2,16,-1
 962 1349 l 1,17,-1
 1257 1349 l 1,18,-1
 1101 543 l 1,19,20
 1044 257 1044 257 894.5 118.5 c 128,-1,21
 745 -20 745 -20 490 -20 c 0,0,1
EndSplineSet
EndChar

StartChar: V
Encoding: 86 86 57
Width: 1229
GlyphClass: 2
Flags: W
AnchorPoint: "bottom" 518 -8 basechar 0
AnchorPoint: "top" 752 1344 basechar 0
LayerCount: 2
Fore
SplineSet
661 0 m 1,0,-1
 362 0 l 1,1,-1
 160 1349 l 1,2,-1
 468 1349 l 1,3,-1
 551 574 l 2,4,5
 567 427 567 427 573 308 c 1,6,7
 646 473 646 473 697 574 c 1,8,-1
 1079 1349 l 1,9,-1
 1384 1349 l 1,10,-1
 661 0 l 1,0,-1
EndSplineSet
EndChar

StartChar: W
Encoding: 87 87 58
Width: 1229
GlyphClass: 2
Flags: W
AnchorPoint: "bottom" 508 -7 basechar 0
AnchorPoint: "top" 774 1351 basechar 0
LayerCount: 2
Fore
SplineSet
913 0 m 1,0,-1
 665 0 l 1,1,-1
 650 312 l 1,2,3
 645 371 645 371 635 636 c 1,4,5
 632 630 632 630 354 0 c 1,6,-1
 106 0 l 1,7,-1
 157 1349 l 1,8,-1
 416 1349 l 1,9,-1
 370 654 l 1,10,11
 366 570 366 570 334 388 c 1,12,13
 366 476 366 476 437 632 c 1,14,-1
 602 971 l 1,15,-1
 797 971 l 1,16,17
 816 766 816 766 828 651 c 0,18,19
 837 560 837 560 838 477 c 0,20,21
 838 455 838 455 837 434 c 1,22,-1
 837 388 l 1,23,-1
 845 415 l 1,24,25
 884 580 884 580 907 654 c 2,26,-1
 1126 1349 l 1,27,-1
 1385 1349 l 1,28,-1
 913 0 l 1,0,-1
EndSplineSet
EndChar

StartChar: X
Encoding: 88 88 59
Width: 1229
GlyphClass: 2
Flags: W
AnchorPoint: "bottom" 504 -4 basechar 0
AnchorPoint: "top" 764 1351 basechar 0
LayerCount: 2
Fore
SplineSet
814 0 m 1,0,-1
 607 493 l 1,1,-1
 207 0 l 1,2,-1
 -105 0 l 1,3,-1
 492 711 l 1,4,-1
 198 1349 l 1,5,-1
 510 1349 l 1,6,-1
 690 919 l 1,7,-1
 1035 1349 l 1,8,-1
 1345 1349 l 1,9,-1
 793 711 l 1,10,-1
 1124 0 l 1,11,-1
 814 0 l 1,0,-1
EndSplineSet
EndChar

StartChar: Y
Encoding: 89 89 60
Width: 1229
GlyphClass: 2
Flags: W
AnchorPoint: "bottom" 517 -2 basechar 0
AnchorPoint: "top" 767 1345 basechar 0
LayerCount: 2
Fore
SplineSet
656 0 m 1,0,-1
 362 0 l 1,1,-1
 470 556 l 1,2,-1
 160 1349 l 1,3,-1
 469 1349 l 1,4,-1
 659 783 l 1,5,-1
 1073 1349 l 1,6,-1
 1382 1349 l 1,7,-1
 764 556 l 1,8,-1
 656 0 l 1,0,-1
EndSplineSet
EndChar

StartChar: Z
Encoding: 90 90 61
Width: 1229
GlyphClass: 2
Flags: W
AnchorPoint: "bottom" 521 -9 basechar 0
AnchorPoint: "top" 800 1357 basechar 0
LayerCount: 2
Fore
SplineSet
1033 0 m 1,0,-1
 -18 0 l 1,1,-1
 23 209 l 1,2,-1
 870 1118 l 1,3,-1
 275 1118 l 1,4,-1
 320 1349 l 1,5,-1
 1254 1349 l 1,6,-1
 1214 1144 l 1,7,-1
 366 231 l 1,8,-1
 1078 231 l 1,9,-1
 1033 0 l 1,0,-1
EndSplineSet
EndChar

StartChar: bracketleft
Encoding: 91 91 62
Width: 1229
GlyphClass: 2
Flags: W
LayerCount: 2
Fore
SplineSet
185 -425 m 1,0,-1
 556 1484 l 1,1,-1
 1158 1484 l 1,2,-1
 1122 1294 l 1,3,-1
 786 1294 l 1,4,-1
 489 -234 l 1,5,-1
 825 -234 l 1,6,-1
 787 -425 l 1,7,-1
 185 -425 l 1,0,-1
EndSplineSet
Validated: 1
EndChar

StartChar: backslash
Encoding: 92 92 63
Width: 1229
GlyphClass: 2
Flags: W
LayerCount: 2
Fore
SplineSet
799 -20 m 1,0,-1
 274 1484 l 1,1,-1
 502 1484 l 1,2,-1
 1031 -20 l 1,3,-1
 799 -20 l 1,0,-1
EndSplineSet
Validated: 1
EndChar

StartChar: bracketright
Encoding: 93 93 64
Width: 1229
GlyphClass: 2
Flags: W
LayerCount: 2
Fore
SplineSet
66 -425 m 1,0,-1
 104 -234 l 1,1,-1
 440 -234 l 1,2,-1
 737 1294 l 1,3,-1
 401 1294 l 1,4,-1
 437 1484 l 1,5,-1
 1039 1484 l 1,6,-1
 668 -425 l 1,7,-1
 66 -425 l 1,0,-1
EndSplineSet
Validated: 1
EndChar

StartChar: asciicircum
Encoding: 94 94 65
Width: 1229
GlyphClass: 2
Flags: W
LayerCount: 2
Fore
SplineSet
917 514 m 1,0,-1
 737 1266 l 1,1,-1
 267 514 l 1,2,-1
 40 514 l 1,3,-1
 605 1409 l 1,4,-1
 927 1409 l 1,5,-1
 1146 514 l 1,6,-1
 917 514 l 1,0,-1
EndSplineSet
Validated: 1
EndChar

StartChar: underscore
Encoding: 95 95 66
Width: 1229
GlyphClass: 2
Flags: W
LayerCount: 2
Fore
SplineSet
-153 -220 m 1,0,-1
 -134 -124 l 1,1,-1
 1104 -124 l 1,2,-1
 1085 -220 l 1,3,-1
 -153 -220 l 1,0,-1
EndSplineSet
Validated: 1
EndChar

StartChar: grave
Encoding: 96 96 67
Width: 1229
GlyphClass: 2
Flags: W
LayerCount: 2
Fore
SplineSet
812 1184 m 1,0,-1
 517 1415 l 1,1,-1
 525 1458 l 1,2,-1
 783 1458 l 1,3,-1
 988 1215 l 1,4,-1
 982 1184 l 1,5,-1
 812 1184 l 1,0,-1
EndSplineSet
Validated: 1
EndChar

StartChar: a
Encoding: 97 97 68
Width: 1229
GlyphClass: 2
Flags: W
AnchorPoint: "bottom-right" 935 20 basechar 0
AnchorPoint: "bottom" 578 -37 basechar 0
AnchorPoint: "top" 716 1108 basechar 0
LayerCount: 2
Fore
SplineSet
330 -20 m 4,0,1
 196 -20 196 -20 123.5 42 c 132,-1,2
 51 104 51 104 51 222 c 4,3,4
 51 261 51 261 60 306 c 4,5,6
 128 647 128 647 545 652 c 5,7,-1
 769 656 l 5,8,-1
 779 711 l 5,9,10
 789 759 789 759 789 795 c 4,11,12
 789 920 789 920 672 920 c 4,13,14
 601 920 601 920 559 884 c 132,-1,15
 517 848 517 848 492 767 c 5,16,-1
 202 781 l 5,17,18
 315 1102 315 1102 719 1102 c 4,19,20
 892 1102 892 1102 981.5 1029.5 c 132,-1,21
 1071 957 1071 957 1071 816 c 4,22,23
 1071 770 1071 770 1060 712 c 6,24,-1
 984 320 l 6,25,26
 973 265 973 265 973 235 c 4,27,28
 973 198 973 198 988.5 179 c 132,-1,29
 1004 160 1004 160 1042 160 c 4,30,31
 1074 160 1074 160 1105 166 c 5,32,-1
 1076 14 l 5,33,34
 1050 8 1050 8 1029 3 c 132,-1,35
 1008 -2 1008 -2 987.5 -5 c 132,-1,36
 967 -8 967 -8 944 -10 c 132,-1,37
 921 -12 921 -12 891 -12 c 4,38,39
 796 -12 796 -12 754 29.5 c 132,-1,40
 712 71 712 71 712 152 c 5,41,-1
 714 193 l 5,42,-1
 708 193 l 5,43,44
 622 80 622 80 531 30 c 132,-1,45
 440 -20 440 -20 330 -20 c 4,0,1
738 501 m 5,46,-1
 604 499 l 6,47,48
 499 497 499 497 449 471 c 132,-1,49
 399 445 399 445 375.5 388.5 c 132,-1,50
 352 332 352 332 352 274 c 4,51,52
 352 176 352 176 448 176 c 4,53,54
 546 176 546 176 626 254.5 c 132,-1,55
 706 333 706 333 728 446 c 5,56,-1
 738 501 l 5,46,-1
EndSplineSet
EndChar

StartChar: b
Encoding: 98 98 69
Width: 1229
GlyphClass: 2
Flags: W
AnchorPoint: "bottom" 466 -22 basechar 0
AnchorPoint: "top" 793 1486 basechar 0
LayerCount: 2
Fore
SplineSet
35 0 m 1,0,-1
 58 96 l 1,1,-1
 89 236 l 1,2,-1
 331 1484 l 1,3,-1
 612 1484 l 1,4,-1
 536 1090 l 1,5,-1
 499 912 l 1,6,-1
 501 912 l 1,7,8
 559 1003 559 1003 651 1053 c 128,-1,9
 743 1103 743 1103 855 1103 c 0,10,11
 1002 1103 1002 1103 1078 1010 c 128,-1,12
 1154 917 1154 917 1154 744 c 0,13,14
 1154 611 1154 611 1114.5 464 c 128,-1,15
 1075 317 1075 317 1003 207 c 128,-1,16
 931 97 931 97 835 38.5 c 128,-1,17
 739 -20 739 -20 628 -20 c 0,18,19
 523 -20 523 -20 454 30.5 c 128,-1,20
 385 81 385 81 360 176 c 1,21,-1
 356 176 l 1,22,23
 347 128 347 128 330.5 71.5 c 128,-1,24
 314 15 314 15 307 0 c 1,25,-1
 35 0 l 1,0,-1
410 399 m 0,26,27
 410 293 410 293 451.5 232.5 c 128,-1,28
 493 172 493 172 566 172 c 0,29,30
 651 172 651 172 716 243.5 c 128,-1,31
 781 315 781 315 819 452 c 128,-1,32
 857 589 857 589 857 706 c 0,33,34
 857 912 857 912 708 912 c 0,35,36
 609 912 609 912 534.5 815.5 c 128,-1,37
 460 719 460 719 426 547 c 0,38,39
 410 464 410 464 410 399 c 0,26,27
EndSplineSet
EndChar

StartChar: c
Encoding: 99 99 70
Width: 1229
GlyphClass: 2
Flags: W
AnchorPoint: "bottom" 477 -26 basechar 0
AnchorPoint: "top" 746 1108 basechar 0
LayerCount: 2
Fore
SplineSet
515 -20 m 0,0,1
 311 -20 311 -20 202 83 c 128,-1,2
 93 186 93 186 93 378 c 0,3,4
 93 511 93 511 139 652.5 c 128,-1,5
 185 794 185 794 270.5 895.5 c 128,-1,6
 356 997 356 997 475 1049.5 c 128,-1,7
 594 1102 594 1102 737 1102 c 0,8,9
 927 1102 927 1102 1033.5 1007 c 128,-1,10
 1140 912 1140 912 1140 746 c 2,11,-1
 1140 741 l 1,12,-1
 854 727 l 1,13,-1
 855 746 l 1,14,15
 855 816 855 816 818.5 862.5 c 128,-1,16
 782 909 782 909 694 909 c 0,17,18
 598 909 598 909 533 841.5 c 128,-1,19
 468 774 468 774 428 637 c 128,-1,20
 388 500 388 500 388 385 c 0,21,22
 388 172 388 172 554 172 c 0,23,24
 634 172 634 172 698.5 222.5 c 128,-1,25
 763 273 763 273 795 373 c 1,26,-1
 1074 360 l 1,27,28
 1039 251 1039 251 958 164 c 128,-1,29
 877 77 877 77 762.5 28.5 c 128,-1,30
 648 -20 648 -20 515 -20 c 0,0,1
EndSplineSet
EndChar

StartChar: d
Encoding: 100 100 71
Width: 1229
GlyphClass: 2
Flags: W
AnchorPoint: "bottom" 554 -38 basechar 0
AnchorPoint: "top" 817 1486 basechar 0
LayerCount: 2
Fore
SplineSet
712 0 m 1,0,-1
 712 8 l 2,1,2
 712 30 712 30 719 89 c 128,-1,3
 726 148 726 148 731 176 c 1,4,-1
 727 176 l 1,5,6
 659 76 659 76 572.5 28 c 128,-1,7
 486 -20 486 -20 373 -20 c 0,8,9
 230 -20 230 -20 153.5 76.5 c 128,-1,10
 77 173 77 173 77 349 c 0,11,12
 77 479 77 479 118 629 c 128,-1,13
 159 779 159 779 228.5 884 c 128,-1,14
 298 989 298 989 392.5 1044.5 c 128,-1,15
 487 1100 487 1100 602 1100 c 0,16,17
 710 1100 710 1100 780 1050 c 128,-1,18
 850 1000 850 1000 872 909 c 1,19,-1
 874 909 l 1,20,-1
 906 1087 l 1,21,-1
 983 1484 l 1,22,-1
 1264 1484 l 1,23,-1
 1022 236 l 2,24,25
 1010 177 1010 177 984 0 c 1,26,-1
 712 0 l 1,0,-1
821 693 m 0,27,28
 821 799 821 799 779 854 c 128,-1,29
 737 909 737 909 665 909 c 0,30,31
 577 909 577 909 512 836.5 c 128,-1,32
 447 764 447 764 409.5 624 c 128,-1,33
 372 484 372 484 372 378 c 0,34,35
 372 172 372 172 519 172 c 0,36,37
 581 172 581 172 638.5 216.5 c 128,-1,38
 696 261 696 261 739 344 c 128,-1,39
 782 427 782 427 805 546 c 0,40,41
 821 629 821 629 821 693 c 0,27,28
EndSplineSet
EndChar

StartChar: e
Encoding: 101 101 72
Width: 1229
GlyphClass: 2
Flags: W
AnchorPoint: "bottom-right" 517 20 basechar 0
AnchorPoint: "bottom" 506 -24 basechar 0
AnchorPoint: "top" 750 1110 basechar 0
LayerCount: 2
Fore
SplineSet
517 -20 m 0,0,1
 310 -20 310 -20 197 84.5 c 128,-1,2
 84 189 84 189 84 385 c 0,3,4
 84 511 84 511 126.5 648.5 c 128,-1,5
 169 786 169 786 257 891 c 128,-1,6
 345 996 345 996 469 1049 c 128,-1,7
 593 1102 593 1102 739 1102 c 0,8,9
 936 1102 936 1102 1038 994 c 128,-1,10
 1140 886 1140 886 1140 685 c 0,11,12
 1140 597 1140 597 1120 495 c 1,13,-1
 1119 487 l 1,14,-1
 385 487 l 1,15,16
 375 437 375 437 375 388 c 0,17,18
 375 281 375 281 426 224.5 c 128,-1,19
 477 168 477 168 568 168 c 0,20,21
 645 168 645 168 707.5 200.5 c 128,-1,22
 770 233 770 233 801 297 c 1,23,-1
 1061 274 l 1,24,25
 978 133 978 133 836 56.5 c 128,-1,26
 694 -20 694 -20 517 -20 c 0,0,1
701 925 m 0,27,28
 598 925 598 925 523.5 855.5 c 128,-1,29
 449 786 449 786 421 663 c 1,30,-1
 881 663 l 1,31,-1
 885 720 l 1,32,33
 885 822 885 822 834 873.5 c 128,-1,34
 783 925 783 925 701 925 c 0,27,28
EndSplineSet
EndChar

StartChar: f
Encoding: 102 102 73
Width: 1229
GlyphClass: 2
Flags: W
AnchorPoint: "bottom" 579 -5 basechar 0
AnchorPoint: "top" 976 1521 basechar 0
LayerCount: 2
Fore
SplineSet
721 892 m 1,0,-1
 548 0 l 1,1,-1
 268 0 l 1,2,-1
 441 892 l 1,3,-1
 185 892 l 1,4,-1
 222 1082 l 1,5,-1
 478 1082 l 1,6,-1
 494 1165 l 2,7,8
 528 1338 528 1338 654 1426 c 128,-1,9
 780 1514 780 1514 984 1514 c 0,10,11
 1144 1514 1144 1514 1306 1486 c 1,12,-1
 1270 1302 l 1,13,14
 1123 1321 1123 1321 996 1321 c 0,15,16
 897 1321 897 1321 842.5 1279.5 c 128,-1,17
 788 1238 788 1238 769 1139 c 2,18,-1
 758 1082 l 1,19,-1
 1201 1082 l 1,20,-1
 1164 892 l 1,21,-1
 721 892 l 1,0,-1
EndSplineSet
EndChar

StartChar: g
Encoding: 103 103 74
Width: 1229
GlyphClass: 2
Flags: W
AnchorPoint: "bottom" 473 -444 basechar 0
AnchorPoint: "top" 793 1099 basechar 0
LayerCount: 2
Fore
SplineSet
427 -434 m 0,0,1
 241 -434 241 -434 139.5 -357.5 c 128,-1,2
 38 -281 38 -281 36 -143 c 1,3,-1
 324 -110 l 1,4,5
 326 -175 326 -175 365.5 -213 c 128,-1,6
 405 -251 405 -251 470 -251 c 0,7,8
 674 -251 674 -251 731 37 c 1,9,-1
 767 211 l 1,10,-1
 765 211 l 1,11,12
 696 106 696 106 600.5 59 c 128,-1,13
 505 12 505 12 398 12 c 0,14,15
 257 12 257 12 181.5 101 c 128,-1,16
 106 190 106 190 106 359 c 0,17,18
 106 488 106 488 145.5 635 c 128,-1,19
 185 782 185 782 254.5 886.5 c 128,-1,20
 324 991 324 991 419.5 1045 c 128,-1,21
 515 1099 515 1099 631 1099 c 0,22,23
 738 1099 738 1099 807.5 1049 c 128,-1,24
 877 999 877 999 900 908 c 1,25,-1
 905 908 l 1,26,27
 938 1047 938 1047 953 1082 c 1,28,-1
 1219 1082 l 1,29,-1
 1196 981 l 1,30,-1
 1165 832 l 1,31,-1
 1009 33 l 2,32,33
 964 -196 964 -196 814 -315 c 128,-1,34
 664 -434 664 -434 427 -434 c 0,0,1
849 692 m 0,35,36
 849 791 849 791 808 848.5 c 128,-1,37
 767 906 767 906 693 906 c 0,38,39
 606 906 606 906 541 836 c 128,-1,40
 476 766 476 766 439.5 636.5 c 128,-1,41
 403 507 403 507 403 407 c 0,42,43
 403 207 403 207 555 207 c 0,44,45
 642 207 642 207 709.5 276.5 c 128,-1,46
 777 346 777 346 813 468.5 c 128,-1,47
 849 591 849 591 849 692 c 0,35,36
EndSplineSet
EndChar

StartChar: h
Encoding: 104 104 75
Width: 1229
GlyphClass: 2
Flags: W
AnchorPoint: "bottom" 532 -2 basechar 0
AnchorPoint: "top" 785 1484 basechar 0
LayerCount: 2
Fore
SplineSet
483 866 m 1,0,1
 564 990 564 990 661 1046 c 128,-1,2
 758 1102 758 1102 877 1102 c 0,3,4
 1148 1102 1148 1102 1148 835 c 0,5,6
 1148 766 1148 766 1132 686 c 2,7,-1
 999 0 l 1,8,-1
 719 0 l 1,9,-1
 840 621 l 2,10,11
 855 698 855 698 855 749 c 0,12,13
 855 818 855 818 825 854.5 c 128,-1,14
 795 891 795 891 719 891 c 0,15,16
 617 891 617 891 539 804.5 c 128,-1,17
 461 718 461 718 432 579 c 1,18,-1
 319 0 l 1,19,-1
 38 0 l 1,20,-1
 326 1484 l 1,21,-1
 607 1484 l 1,22,-1
 529 1079 l 2,23,24
 516 1008 516 1008 488 902 c 1,25,-1
 479 866 l 1,26,-1
 483 866 l 1,0,1
EndSplineSet
EndChar

StartChar: i
Encoding: 105 105 76
Width: 1229
GlyphClass: 2
Flags: W
AnchorPoint: "bottom-right" 550 56 basechar 0
AnchorPoint: "bottom" 570 -4 basechar 0
AnchorPoint: "top" 831 1481 basechar 0
LayerCount: 2
Fore
SplineSet
726 190 m 1,0,-1
 1079 190 l 1,1,-1
 1042 0 l 1,2,-1
 13 0 l 1,3,-1
 50 190 l 1,4,-1
 445 190 l 1,5,-1
 581 892 l 1,6,-1
 291 892 l 1,7,-1
 328 1082 l 1,8,-1
 899 1082 l 1,9,-1
 726 190 l 1,0,-1
656 1277 m 1,10,-1
 696 1484 l 1,11,-1
 977 1484 l 1,12,-1
 937 1277 l 1,13,-1
 656 1277 l 1,10,-1
EndSplineSet
EndChar

StartChar: j
Encoding: 106 106 77
Width: 1229
GlyphClass: 2
Flags: W
AnchorPoint: "bottom" 265 -432 basechar 0
AnchorPoint: "top" 906 1486 basechar 0
LayerCount: 2
Fore
SplineSet
217 -425 m 0,0,1
 138 -425 138 -425 59.5 -412 c 128,-1,2
 -19 -399 -19 -399 -62 -382 c 1,3,-1
 -21 -172 l 1,4,5
 109 -206 109 -206 235 -206 c 0,6,7
 346 -206 346 -206 402 -152 c 128,-1,8
 458 -98 458 -98 479 10 c 2,9,-1
 650 892 l 1,10,-1
 296 892 l 1,11,-1
 333 1082 l 1,12,-1
 969 1082 l 1,13,-1
 756 -13 l 2,14,15
 731 -142 731 -142 655.5 -235 c 128,-1,16
 580 -328 580 -328 466 -376.5 c 128,-1,17
 352 -425 352 -425 217 -425 c 0,0,1
726 1277 m 1,18,-1
 766 1484 l 1,19,-1
 1047 1484 l 1,20,-1
 1007 1277 l 1,21,-1
 726 1277 l 1,18,-1
EndSplineSet
EndChar

StartChar: k
Encoding: 107 107 78
Width: 1229
GlyphClass: 2
Flags: W
AnchorPoint: "bottom" 542 2 basechar 0
AnchorPoint: "top" 768 1483 basechar 0
LayerCount: 2
Fore
SplineSet
759 0 m 1,0,-1
 565 490 l 1,1,-1
 428 406 l 1,2,-1
 349 0 l 1,3,-1
 68 0 l 1,4,-1
 356 1484 l 1,5,-1
 637 1484 l 1,6,-1
 472 634 l 1,7,-1
 945 1082 l 1,8,-1
 1247 1082 l 1,9,-1
 785 660 l 1,10,-1
 1066 0 l 1,11,-1
 759 0 l 1,0,-1
EndSplineSet
EndChar

StartChar: l
Encoding: 108 108 79
Width: 1229
GlyphClass: 2
Flags: W
HStem: 5 190<760.786 1042> 1294 190<406 660>
AnchorPoint: "bottom" 794 -4 basechar 0
AnchorPoint: "top" 706 1482 basechar 0
LayerCount: 2
Fore
SplineSet
472 328 m 1025,0,-1
829 195 m 16,1,-1
 1079 190 l 1,2,-1
 1042 0 l 1,3,-1
 733 5 l 0,4,5
 716 5 716 5 701 5 c 0,6,7
 601 5 601 5 575 16 c 8,8,9
 483 51 483 51 458 127 c 16,10,11
 453 141 453 141 453 168 c 0,12,13
 453 222 453 222 472 328 c 1,14,-1
 660 1294 l 1,15,-1
 370 1294 l 1,16,-1
 406 1484 l 1,17,-1
 977 1484 l 1,18,-1
 749 308 l 1,19,20
 747 295 747 295 747 283 c 0,21,22
 747 256 747 256 760 237 c 8,23,24
 785 201 785 201 829 195 c 16,1,-1
834 190 m 1025,25,-1
749 308 m 1025,26,-1
EndSplineSet
EndChar

StartChar: m
Encoding: 109 109 80
Width: 1229
GlyphClass: 2
Flags: W
AnchorPoint: "bottom" 517 -7 basechar 0
AnchorPoint: "top" 788 1082 basechar 0
LayerCount: 2
Fore
SplineSet
396 0 m 1,0,-1
 524 658 l 1,1,2
 547 783 547 783 547 835 c 0,3,4
 547 883 547 883 532.5 903 c 128,-1,5
 518 923 518 923 488 923 c 0,6,7
 438 923 438 923 390 829.5 c 128,-1,8
 342 736 342 736 312 582 c 2,9,-1
 199 0 l 1,10,-1
 -30 0 l 1,11,-1
 135 851 l 2,12,13
 142 885 142 885 148.5 922.5 c 128,-1,14
 155 960 155 960 160.5 993.5 c 128,-1,15
 166 1027 166 1027 170 1051 c 128,-1,16
 174 1075 174 1075 174 1082 c 1,17,-1
 383 1082 l 1,18,-1
 364 955 l 1,19,-1
 355 907 l 1,20,-1
 357 907 l 1,21,22
 414 1014 414 1014 475 1058 c 128,-1,23
 536 1102 536 1102 611 1102 c 0,24,25
 699 1102 699 1102 733 1054.5 c 128,-1,26
 767 1007 767 1007 767 912 c 2,27,-1
 767 906 l 1,28,-1
 769 906 l 1,29,30
 830 1012 830 1012 894.5 1057 c 128,-1,31
 959 1102 959 1102 1043 1102 c 0,32,33
 1131 1102 1131 1102 1171 1056 c 128,-1,34
 1211 1010 1211 1010 1211 910 c 0,35,36
 1211 835 1211 835 1189 721 c 2,37,-1
 1049 0 l 1,38,-1
 821 0 l 1,39,-1
 949 658 l 1,40,41
 972 783 972 783 972 835 c 0,42,43
 972 883 972 883 957.5 903 c 128,-1,44
 943 923 943 923 913 923 c 0,45,46
 862 923 862 923 817 842.5 c 128,-1,47
 772 762 772 762 741 601 c 2,48,-1
 624 0 l 1,49,-1
 396 0 l 1,0,-1
EndSplineSet
EndChar

StartChar: n
Encoding: 110 110 81
Width: 1229
GlyphClass: 2
Flags: W
AnchorPoint: "bottom" 531 1 basechar 0
AnchorPoint: "top" 724 1089 basechar 0
LayerCount: 2
Fore
SplineSet
719 0 m 1,0,-1
 839 619 l 2,1,2
 854 693 854 693 854 746 c 0,3,4
 854 821 854 821 822 856.5 c 128,-1,5
 790 892 790 892 721 892 c 0,6,7
 620 892 620 892 540.5 806.5 c 128,-1,8
 461 721 461 721 432 580 c 1,9,-1
 319 0 l 1,10,-1
 38 0 l 1,11,-1
 201 840 l 2,12,13
 234 1006 234 1006 240 1082 c 1,14,-1
 508 1082 l 1,15,16
 508 1066 508 1066 499 993.5 c 128,-1,17
 490 921 490 921 480 867 c 1,18,-1
 484 867 l 1,19,20
 637 1103 637 1103 877 1103 c 0,21,22
 1148 1103 1148 1103 1148 830 c 0,23,24
 1148 765 1148 765 1133 687 c 2,25,-1
 999 0 l 1,26,-1
 719 0 l 1,0,-1
EndSplineSet
EndChar

StartChar: o
Encoding: 111 111 82
Width: 1229
GlyphClass: 2
Flags: W
AnchorPoint: "bottom-right" 475 16 basechar 0
AnchorPoint: "bottom" 483 -28 basechar 0
AnchorPoint: "top" 756 1108 basechar 0
LayerCount: 2
Fore
SplineSet
501 -20 m 0,0,1
 293 -20 293 -20 184.5 84 c 128,-1,2
 76 188 76 188 76 383 c 0,3,4
 76 567 76 567 155.5 743 c 128,-1,5
 235 919 235 919 380 1010.5 c 128,-1,6
 525 1102 525 1102 725 1102 c 0,7,8
 1156 1102 1156 1102 1156 719 c 0,9,10
 1156 643 1156 643 1137 542 c 0,11,12
 1085 273 1085 273 920 126.5 c 128,-1,13
 755 -20 755 -20 501 -20 c 0,0,1
863 715 m 0,14,15
 863 816 863 816 822 862.5 c 128,-1,16
 781 909 781 909 692 909 c 0,17,18
 585 909 585 909 517 843.5 c 128,-1,19
 449 778 449 778 409 635 c 128,-1,20
 369 492 369 492 369 378 c 0,21,22
 369 172 369 172 535 172 c 0,23,24
 644 172 644 172 713 239 c 128,-1,25
 782 306 782 306 822.5 453.5 c 128,-1,26
 863 601 863 601 863 715 c 0,14,15
EndSplineSet
EndChar

StartChar: p
Encoding: 112 112 83
Width: 1229
GlyphClass: 2
Flags: W
AnchorPoint: "bottom" 414 -433 basechar 0
AnchorPoint: "top" 722 1099 basechar 0
LayerCount: 2
Fore
SplineSet
517 1082 m 1,0,-1
 517 1074 l 2,1,2
 517 1008 517 1008 498 906 c 1,3,-1
 502 906 l 1,4,5
 566 1000 566 1000 657 1051.5 c 128,-1,6
 748 1103 748 1103 856 1103 c 0,7,8
 998 1103 998 1103 1075 1006 c 128,-1,9
 1152 909 1152 909 1152 731 c 0,10,11
 1152 550 1152 550 1083.5 364 c 128,-1,12
 1015 178 1015 178 896.5 79 c 128,-1,13
 778 -20 778 -20 627 -20 c 0,14,15
 521 -20 521 -20 451.5 28.5 c 128,-1,16
 382 77 382 77 357 171 c 1,17,-1
 355 171 l 1,18,-1
 323 -7 l 1,19,-1
 241 -425 l 1,20,-1
 -40 -425 l 1,21,-1
 207 846 l 2,22,23
 219 905 219 905 245 1082 c 1,24,-1
 517 1082 l 1,0,-1
408 390 m 0,25,26
 408 285 408 285 449 228 c 128,-1,27
 490 171 490 171 564 171 c 0,28,29
 652 171 652 171 716.5 243 c 128,-1,30
 781 315 781 315 819 451.5 c 128,-1,31
 857 588 857 588 857 703 c 0,32,33
 857 911 857 911 710 911 c 0,34,35
 629 911 629 911 558 837.5 c 128,-1,36
 487 764 487 764 447.5 633 c 128,-1,37
 408 502 408 502 408 390 c 0,25,26
EndSplineSet
EndChar

StartChar: q
Encoding: 113 113 84
Width: 1229
GlyphClass: 2
Flags: W
AnchorPoint: "bottom" 482 -430 basechar 0
AnchorPoint: "top" 739 1094 basechar 0
LayerCount: 2
Fore
SplineSet
1194 1082 m 1,0,-1
 1171 987 l 1,1,-1
 1140 846 l 1,2,-1
 893 -425 l 1,3,-1
 612 -425 l 1,4,-1
 694 -7 l 1,5,-1
 730 171 l 1,6,-1
 728 171 l 1,7,8
 670 80 670 80 578 30 c 128,-1,9
 486 -20 486 -20 374 -20 c 0,10,11
 226 -20 226 -20 151 73 c 128,-1,12
 76 166 76 166 76 338 c 0,13,14
 76 468 76 468 114 614.5 c 128,-1,15
 152 761 152 761 224 872.5 c 128,-1,16
 296 984 296 984 393 1043.5 c 128,-1,17
 490 1103 490 1103 601 1103 c 0,18,19
 706 1103 706 1103 773 1052.5 c 128,-1,20
 840 1002 840 1002 869 906 c 1,21,-1
 873 906 l 1,22,23
 878 933 878 933 896.5 1001 c 128,-1,24
 915 1069 915 1069 922 1082 c 1,25,-1
 1194 1082 l 1,0,-1
819 684 m 0,26,27
 819 791 819 791 777 851 c 128,-1,28
 735 911 735 911 663 911 c 0,29,30
 578 911 578 911 512.5 838.5 c 128,-1,31
 447 766 447 766 409.5 626 c 128,-1,32
 372 486 372 486 372 376 c 0,33,34
 372 171 372 171 521 171 c 0,35,36
 619 171 619 171 693.5 266 c 128,-1,37
 768 361 768 361 803 536 c 0,38,39
 819 619 819 619 819 684 c 0,26,27
EndSplineSet
EndChar

StartChar: r
Encoding: 114 114 85
Width: 1229
GlyphClass: 2
Flags: W
AnchorPoint: "bottom" 291 -8 basechar 0
AnchorPoint: "top" 756 1078 basechar 0
LayerCount: 2
Fore
SplineSet
1141 848 m 1,0,1
 1034 867 1034 867 933 867 c 0,2,3
 778 867 778 867 663 750 c 128,-1,4
 548 633 548 633 510 438 c 2,5,-1
 425 0 l 1,6,-1
 145 0 l 1,7,-1
 281 701 l 1,8,9
 306 837 306 837 306 990 c 1,10,-1
 303 1082 l 1,11,-1
 574 1082 l 1,12,13
 580 1004 580 1004 580 955 c 0,14,15
 580 900 580 900 576 854 c 1,16,-1
 580 854 l 1,17,18
 656 990 656 990 753 1046 c 128,-1,19
 850 1102 850 1102 984 1102 c 0,20,21
 1090 1102 1090 1102 1187 1085 c 1,22,-1
 1141 848 l 1,0,1
EndSplineSet
EndChar

StartChar: s
Encoding: 115 115 86
Width: 1229
GlyphClass: 2
Flags: W
AnchorPoint: "bottom" 510 -26 basechar 0
AnchorPoint: "top" 704 1101 basechar 0
LayerCount: 2
Fore
SplineSet
511 -20 m 0,0,1
 287 -20 287 -20 182 51 c 128,-1,2
 77 122 77 122 68 270 c 1,3,-1
 323 307 l 1,4,5
 328 230 328 230 373.5 198 c 128,-1,6
 419 166 419 166 547 166 c 0,7,8
 666 166 666 166 725.5 196 c 128,-1,9
 785 226 785 226 797 290 c 1,10,-1
 799 313 l 1,11,12
 799 353 799 353 760 379 c 128,-1,13
 721 405 721 405 632 424 c 0,14,15
 433 465 433 465 358 498 c 128,-1,16
 283 531 283 531 243 582 c 128,-1,17
 203 633 203 633 203 708 c 0,18,19
 203 821 203 821 267 913.5 c 128,-1,20
 331 1006 331 1006 450 1054.5 c 128,-1,21
 569 1103 569 1103 731 1103 c 0,22,23
 925 1103 925 1103 1027.5 1028 c 128,-1,24
 1130 953 1130 953 1132 811 c 1,25,-1
 878 785 l 1,26,27
 878 854 878 854 836.5 885 c 128,-1,28
 795 916 795 916 695 916 c 256,29,30
 595 916 595 916 540 890.5 c 128,-1,31
 485 865 485 865 473 805 c 1,32,-1
 471 784 l 1,33,34
 471 748 471 748 506.5 724 c 128,-1,35
 542 700 542 700 618 685 c 1,36,-1
 725 659 l 1,37,38
 865 629 865 629 931 595 c 128,-1,39
 997 561 997 561 1032 510.5 c 128,-1,40
 1067 460 1067 460 1067 386 c 0,41,42
 1067 267 1067 267 999 173.5 c 128,-1,43
 931 80 931 80 804.5 30 c 128,-1,44
 678 -20 678 -20 511 -20 c 0,0,1
EndSplineSet
EndChar

StartChar: t
Encoding: 116 116 87
Width: 1229
GlyphClass: 2
Flags: W
AnchorPoint: "bottom" 606 -18 basechar 0
AnchorPoint: "top" 680 1364 basechar 0
LayerCount: 2
Fore
SplineSet
396 892 m 1,0,-1
 229 892 l 1,1,-1
 266 1082 l 1,2,-1
 447 1082 l 1,3,-1
 590 1364 l 1,4,-1
 766 1364 l 1,5,-1
 711 1082 l 1,6,-1
 1096 1082 l 1,7,-1
 1059 892 l 1,8,-1
 674 892 l 1,9,-1
 571 362 l 2,10,11
 560 302 560 302 560 279 c 0,12,13
 560 225 560 225 596 201.5 c 128,-1,14
 632 178 632 178 710 178 c 0,15,16
 833 178 833 178 970 205 c 1,17,-1
 934 19 l 1,18,19
 895 13 895 13 857.5 7 c 128,-1,20
 820 1 820 1 780.5 -3.5 c 128,-1,21
 741 -8 741 -8 697.5 -10.5 c 128,-1,22
 654 -13 654 -13 603 -13 c 0,23,24
 441 -13 441 -13 357 44 c 128,-1,25
 273 101 273 101 273 224 c 0,26,27
 273 253 273 253 278 287 c 128,-1,28
 283 321 283 321 396 892 c 1,0,-1
EndSplineSet
EndChar

StartChar: u
Encoding: 117 117 88
Width: 1229
GlyphClass: 2
Flags: W
AnchorPoint: "bottom-right" 866 38 basechar 0
AnchorPoint: "bottom" 558 -26 basechar 0
AnchorPoint: "top" 702 1086 basechar 0
LayerCount: 2
Fore
SplineSet
521 1082 m 1,0,-1
 403 475 l 2,1,2
 391 412 391 412 391 360 c 0,3,4
 391 190 391 190 520 190 c 0,5,6
 611 190 611 190 687 279.5 c 128,-1,7
 763 369 763 369 788 502 c 2,8,-1
 900 1082 l 1,9,-1
 1181 1082 l 1,10,-1
 1018 242 l 1,11,12
 1004 176 1004 176 993 99.5 c 128,-1,13
 982 23 982 23 979 0 c 1,14,-1
 711 0 l 1,15,16
 719 92 719 92 741 215 c 1,17,-1
 736 215 l 1,18,19
 583 -20 583 -20 362 -20 c 0,20,21
 92 -20 92 -20 92 253 c 0,22,23
 92 320 92 320 107 395 c 2,24,-1
 240 1082 l 1,25,-1
 521 1082 l 1,0,-1
EndSplineSet
EndChar

StartChar: v
Encoding: 118 118 89
Width: 1229
GlyphClass: 2
Flags: W
AnchorPoint: "bottom" 499 -6 basechar 0
AnchorPoint: "top" 719 1082 basechar 0
LayerCount: 2
Fore
SplineSet
669 0 m 1,0,-1
 333 0 l 1,1,-1
 136 1082 l 1,2,-1
 433 1082 l 1,3,-1
 521 460 l 2,4,5
 529 404 529 404 544 210 c 1,6,7
 603 340 603 340 666 457 c 2,8,-1
 1004 1082 l 1,9,-1
 1298 1082 l 1,10,-1
 669 0 l 1,0,-1
EndSplineSet
EndChar

StartChar: w
Encoding: 119 119 90
Width: 1229
GlyphClass: 2
Flags: W
AnchorPoint: "bottom" 503 -2 basechar 0
AnchorPoint: "top" 716 1088 basechar 0
LayerCount: 2
Fore
SplineSet
923 0 m 1,0,-1
 679 0 l 1,1,-1
 628 471 l 1,2,-1
 620 573 l 1,3,4
 615 558 615 558 603.5 532.5 c 128,-1,5
 592 507 592 507 332 0 c 1,6,-1
 89 0 l 1,7,-1
 116 1082 l 1,8,-1
 344 1082 l 1,9,-1
 309 475 l 2,10,11
 300 326 300 326 284 249 c 1,12,-1
 319 323 l 1,13,-1
 572 817 l 1,14,-1
 765 817 l 1,15,-1
 816 362 l 2,16,17
 823 292 823 292 823 249 c 1,18,19
 839 327 839 327 888 475 c 1,20,-1
 1097 1082 l 1,21,-1
 1323 1082 l 1,22,-1
 923 0 l 1,0,-1
EndSplineSet
EndChar

StartChar: x
Encoding: 120 120 91
Width: 1229
GlyphClass: 2
Flags: W
AnchorPoint: "bottom" 515 -3 basechar 0
AnchorPoint: "top" 719 1078 basechar 0
LayerCount: 2
Fore
SplineSet
769 0 m 1,0,-1
 583 392 l 1,1,-1
 243 0 l 1,2,-1
 -56 0 l 1,3,-1
 459 559 l 1,4,-1
 173 1082 l 1,5,-1
 476 1082 l 1,6,-1
 649 728 l 1,7,-1
 957 1082 l 1,8,-1
 1262 1082 l 1,9,-1
 774 562 l 1,10,-1
 1074 0 l 1,11,-1
 769 0 l 1,0,-1
EndSplineSet
EndChar

StartChar: y
Encoding: 121 121 92
Width: 1229
GlyphClass: 2
Flags: W
AnchorPoint: "bottom" 450 -432 basechar 0
AnchorPoint: "top" 726 1067 basechar 0
LayerCount: 2
Fore
SplineSet
137 -425 m 0,0,1
 30 -425 30 -425 -42 -412 c 1,2,-1
 -3 -212 l 1,3,-1
 47 -217 l 1,4,-1
 97 -220 l 1,5,6
 182 -220 182 -220 241 -177 c 128,-1,7
 300 -134 300 -134 356 -37 c 1,8,-1
 383 11 l 1,9,-1
 143 1082 l 1,10,-1
 440 1082 l 1,11,-1
 528 555 l 2,12,13
 530 546 530 546 532 528.5 c 128,-1,14
 534 511 534 511 536 494.5 c 128,-1,15
 538 478 538 478 551 351.5 c 128,-1,16
 564 225 564 225 564 221 c 1,17,-1
 581 258 l 1,18,-1
 718 551 l 1,19,-1
 1001 1082 l 1,20,-1
 1295 1082 l 1,21,-1
 626 -57 l 2,22,23
 504 -264 504 -264 394.5 -344.5 c 128,-1,24
 285 -425 285 -425 137 -425 c 0,0,1
EndSplineSet
EndChar

StartChar: z
Encoding: 122 122 93
Width: 1229
GlyphClass: 2
Flags: W
AnchorPoint: "bottom" 520 1 basechar 0
AnchorPoint: "top" 707 1084 basechar 0
LayerCount: 2
Fore
SplineSet
33 0 m 1,0,-1
 72 199 l 1,1,-1
 774 879 l 1,2,-1
 245 879 l 1,3,-1
 284 1082 l 1,4,-1
 1133 1082 l 1,5,-1
 1094 881 l 1,6,-1
 396 205 l 1,7,-1
 1012 205 l 1,8,-1
 972 0 l 1,9,-1
 33 0 l 1,0,-1
EndSplineSet
EndChar

StartChar: braceleft
Encoding: 123 123 94
Width: 1229
GlyphClass: 2
Flags: W
LayerCount: 2
Fore
SplineSet
530 -425 m 2,0,1
 412 -425 412 -425 349 -366.5 c 128,-1,2
 286 -308 286 -308 286 -203 c 0,3,4
 286 -169 286 -169 294 -126 c 2,5,-1
 357 202 l 2,6,7
 364 237 364 237 364 272 c 0,8,9
 364 348 364 348 319.5 388 c 128,-1,10
 275 428 275 428 173 431 c 1,11,-1
 211 626 l 1,12,13
 330 631 330 631 396.5 687 c 128,-1,14
 463 743 463 743 485 857 c 2,15,-1
 548 1185 l 2,16,17
 577 1332 577 1332 669.5 1408 c 128,-1,18
 762 1484 762 1484 901 1484 c 2,19,-1
 1228 1484 l 1,20,-1
 1192 1294 l 1,21,-1
 1004 1294 l 2,22,23
 913 1294 913 1294 862 1242 c 128,-1,24
 811 1190 811 1190 791 1085 c 2,25,-1
 732 784 l 2,26,27
 713 687 713 687 642 619 c 128,-1,28
 571 551 571 551 476 532 c 1,29,-1
 476 528 l 1,30,31
 554 508 554 508 596.5 455.5 c 128,-1,32
 639 403 639 403 639 328 c 0,33,34
 639 299 639 299 634 276 c 2,35,-1
 575 -25 l 2,36,37
 567 -67 567 -67 567 -101 c 0,38,39
 567 -168 567 -168 600.5 -201 c 128,-1,40
 634 -234 634 -234 707 -234 c 2,41,-1
 895 -234 l 1,42,-1
 857 -425 l 1,43,-1
 530 -425 l 2,0,1
EndSplineSet
Validated: 1
EndChar

StartChar: bar
Encoding: 124 124 95
Width: 1229
GlyphClass: 2
Flags: W
LayerCount: 2
Fore
SplineSet
483 -455 m 1,0,-1
 483 1484 l 1,1,-1
 745 1484 l 1,2,-1
 745 -455 l 1,3,-1
 483 -455 l 1,0,-1
EndSplineSet
Validated: 1
EndChar

StartChar: braceright
Encoding: 125 125 96
Width: 1229
GlyphClass: 2
Flags: W
LayerCount: 2
Fore
SplineSet
-4 -425 m 1,0,-1
 34 -234 l 1,1,-1
 222 -234 l 2,2,3
 313 -234 313 -234 363.5 -182.5 c 128,-1,4
 414 -131 414 -131 434 -25 c 2,5,-1
 493 276 l 2,6,7
 511 370 511 370 580.5 438 c 128,-1,8
 650 506 650 506 749 528 c 1,9,-1
 749 532 l 1,10,11
 672 550 672 550 629 604 c 128,-1,12
 586 658 586 658 586 732 c 1,13,-1
 591 784 l 1,14,-1
 650 1085 l 1,15,16
 658 1119 658 1119 658 1162 c 0,17,18
 658 1294 658 1294 519 1294 c 2,19,-1
 331 1294 l 1,20,-1
 367 1484 l 1,21,-1
 694 1484 l 2,22,23
 812 1484 812 1484 876 1429 c 128,-1,24
 940 1374 940 1374 940 1267 c 0,25,26
 940 1229 940 1229 931 1185 c 2,27,-1
 868 857 l 2,28,29
 860 817 860 817 860 786 c 0,30,31
 860 630 860 630 1052 626 c 1,32,-1
 1014 431 l 1,33,34
 893 429 893 429 827 371 c 128,-1,35
 761 313 761 313 740 202 c 2,36,-1
 677 -126 l 2,37,38
 651 -263 651 -263 556 -344 c 128,-1,39
 461 -425 461 -425 323 -425 c 2,40,-1
 -4 -425 l 1,0,-1
EndSplineSet
Validated: 1
EndChar

StartChar: asciitilde
Encoding: 126 126 97
Width: 1229
GlyphClass: 2
Flags: W
LayerCount: 2
Fore
SplineSet
861 516 m 0,0,1
 786 516 786 516 718 537 c 128,-1,2
 650 558 650 558 580 584 c 0,3,4
 453 631 453 631 368 631 c 0,5,6
 297 631 297 631 234 610 c 128,-1,7
 171 589 171 589 96 543 c 1,8,-1
 137 756 l 1,9,10
 265 840 265 840 424 840 c 0,11,12
 529 840 529 840 658 793 c 0,13,14
 787 745 787 745 833.5 734 c 128,-1,15
 880 723 880 723 921 723 c 0,16,17
 1055 723 1055 723 1186 815 c 1,18,-1
 1144 596 l 1,19,20
 1072 552 1072 552 1009.5 534 c 128,-1,21
 947 516 947 516 861 516 c 0,0,1
EndSplineSet
Validated: 1
EndChar

StartChar: dagger
Encoding: 8224 8224 130
Width: 1229
GlyphClass: 2
Flags: W
LayerCount: 2
Fore
SplineSet
795 960 m 1,0,-1
 545 -213 l 1,1,-1
 390 -213 l 1,2,-1
 596 960 l 1,3,-1
 248 933 l 1,4,-1
 288 1137 l 1,5,-1
 624 1108 l 1,6,-1
 669 1484 l 1,7,-1
 924 1484 l 1,8,-1
 823 1108 l 1,9,-1
 1172 1137 l 1,10,-1
 1132 933 l 1,11,-1
 795 960 l 1,0,-1
EndSplineSet
Validated: 1
EndChar

StartChar: degree
Encoding: 176 176 131
Width: 1229
GlyphClass: 2
Flags: W
LayerCount: 2
Fore
SplineSet
935 1110 m 256,0,1
 935 980 935 980 841.5 887.5 c 128,-1,2
 748 795 748 795 614 795 c 0,3,4
 482 795 482 795 388 886 c 128,-1,5
 294 977 294 977 294 1110 c 0,6,7
 294 1196 294 1196 336.5 1269 c 128,-1,8
 379 1342 379 1342 452.5 1383.5 c 128,-1,9
 526 1425 526 1425 614 1425 c 0,10,11
 749 1425 749 1425 842 1332.5 c 128,-1,12
 935 1240 935 1240 935 1110 c 256,0,1
777 1110 m 256,13,14
 777 1180 777 1180 730.5 1228 c 128,-1,15
 684 1276 684 1276 614 1276 c 0,16,17
 543 1276 543 1276 495.5 1227.5 c 128,-1,18
 448 1179 448 1179 448 1110 c 256,19,20
 448 1041 448 1041 497 991.5 c 128,-1,21
 546 942 546 942 614 942 c 0,22,23
 681 942 681 942 729 991 c 128,-1,24
 777 1040 777 1040 777 1110 c 256,13,14
EndSplineSet
Validated: 1
EndChar

StartChar: cent
Encoding: 162 162 132
Width: 1229
GlyphClass: 2
Flags: W
VStem: 107 285<375.939 771.896> 436 162<-60 14.0048>
LayerCount: 2
Fore
SplineSet
472 129 m 1,0,1
 296 146 296 146 201.5 245 c 128,-1,2
 107 344 107 344 107 517 c 0,3,4
 107 682 107 682 178 838.5 c 128,-1,5
 249 995 249 995 377.5 1086.5 c 128,-1,6
 506 1178 506 1178 680 1196 c 1,7,-1
 716 1380 l 1,8,-1
 878 1382 l 1,9,-1
 878 1380 l 1,10,-1
 842 1196 l 1,11,12
 1007 1177 1007 1177 1097.5 1084 c 128,-1,13
 1188 991 1188 991 1188 845 c 2,14,-1
 1188 839 l 1,15,-1
 903 825 l 1,16,-1
 903 833 l 2,17,18
 903 921 903 921 857 968 c 0,19,20
 835 990 835 990 804 1002 c 1,21,-1
 672 324 l 1,22,23
 712 338 712 338 748 366 c 0,24,25
 818 420 818 420 852 520 c 1,26,-1
 1133 508 l 1,27,28
 1079 353 1079 353 948 252.5 c 128,-1,29
 817 152 817 152 635 131 c 1,30,-1
 598 -60 l 1,31,-1
 436 -60 l 1,32,-1
 436 -58 l 1,33,-1
 472 129 l 1,0,1
643 1003 m 1,34,35
 616 995 616 995 590 981 c 0,36,37
 530 947 530 947 486 880 c 128,-1,38
 442 813 442 813 417 717 c 128,-1,39
 392 621 392 621 392 540 c 0,40,41
 392 427 392 427 442 369 c 0,42,43
 469 338 469 338 510 323 c 1,44,-1
 643 1003 l 1,34,35
EndSplineSet
EndChar

StartChar: sterling
Encoding: 163 163 133
Width: 1229
GlyphClass: 2
Flags: W
LayerCount: 2
Fore
SplineSet
1146 363 m 1,0,1
 1083 192 1083 192 959 96 c 128,-1,2
 835 0 835 0 683 0 c 2,3,-1
 -21 0 l 1,4,-1
 19 205 l 1,5,6
 129 260 129 260 182 332.5 c 128,-1,7
 235 405 235 405 256 512 c 1,8,-1
 271 594 l 1,9,-1
 83 594 l 1,10,-1
 117 764 l 1,11,-1
 295 764 l 1,12,-1
 333 962 l 1,13,14
 373 1164 373 1164 500.5 1267 c 128,-1,15
 628 1370 628 1370 838 1370 c 0,16,17
 1003 1370 1003 1370 1087.5 1303.5 c 128,-1,18
 1172 1237 1172 1237 1189 1079 c 1,19,-1
 947 1032 l 1,20,21
 940 1109 940 1109 906 1144 c 128,-1,22
 872 1179 872 1179 806 1179 c 0,23,24
 715 1179 715 1179 664 1121.5 c 128,-1,25
 613 1064 613 1064 589 939 c 2,26,-1
 555 764 l 1,27,-1
 841 764 l 1,28,-1
 807 594 l 1,29,-1
 521 594 l 1,30,-1
 506 514 l 1,31,32
 484 405 484 405 428.5 334 c 128,-1,33
 373 263 373 263 265 209 c 1,34,-1
 655 209 l 2,35,36
 759 209 759 209 822 258.5 c 128,-1,37
 885 308 885 308 920 402 c 1,38,-1
 1146 363 l 1,0,1
EndSplineSet
Validated: 1
EndChar

StartChar: section
Encoding: 167 167 134
Width: 1229
GlyphClass: 2
Flags: W
LayerCount: 2
Fore
SplineSet
813 1485 m 0,0,1
 1006 1485 1006 1485 1109.5 1415 c 128,-1,2
 1213 1345 1213 1345 1215 1211 c 1,3,-1
 972 1186 l 1,4,5
 970 1249 970 1249 920 1282 c 128,-1,6
 870 1315 870 1315 780 1315 c 0,7,8
 668 1315 668 1315 609.5 1285.5 c 128,-1,9
 551 1256 551 1256 539 1191 c 1,10,-1
 536 1168 l 1,11,12
 536 1137 536 1137 558 1112.5 c 128,-1,13
 580 1088 580 1088 625 1068.5 c 128,-1,14
 670 1049 670 1049 789 1021 c 0,15,16
 942 984 942 984 1009 949 c 128,-1,17
 1076 914 1076 914 1111 866.5 c 128,-1,18
 1146 819 1146 819 1146 751 c 0,19,20
 1146 643 1146 643 1074.5 553 c 128,-1,21
 1003 463 1003 463 891 429 c 1,22,23
 954 398 954 398 991.5 351.5 c 128,-1,24
 1029 305 1029 305 1029 232 c 0,25,26
 1029 124 1029 124 963.5 27.5 c 128,-1,27
 898 -69 898 -69 773 -120 c 128,-1,28
 648 -171 648 -171 472 -171 c 0,29,30
 249 -171 249 -171 142 -101.5 c 128,-1,31
 35 -32 35 -32 25 117 c 1,32,-1
 269 154 l 1,33,34
 273 74 273 74 327 36.5 c 128,-1,35
 381 -1 381 -1 505 -1 c 0,36,37
 651 -1 651 -1 717.5 43.5 c 128,-1,38
 784 88 784 88 784 174 c 0,39,40
 784 212 784 212 762 236.5 c 128,-1,41
 740 261 740 261 694.5 280.5 c 128,-1,42
 649 300 649 300 483 341 c 1,43,44
 307 386 307 386 235 450.5 c 128,-1,45
 163 515 163 515 163 606 c 0,46,47
 163 714 163 714 233 794.5 c 128,-1,48
 303 875 303 875 431 914 c 1,49,50
 361 947 361 947 324.5 1000.5 c 128,-1,51
 288 1054 288 1054 288 1121 c 0,52,53
 288 1223 288 1223 353 1310 c 128,-1,54
 418 1397 418 1397 535.5 1441 c 128,-1,55
 653 1485 653 1485 813 1485 c 0,0,1
898 688 m 0,56,57
 898 739 898 739 848 772 c 128,-1,58
 798 805 798 805 638 838 c 1,59,60
 526 825 526 825 469.5 778 c 128,-1,61
 413 731 413 731 413 665 c 0,62,63
 413 634 413 634 435 609.5 c 128,-1,64
 457 585 457 585 501.5 565.5 c 128,-1,65
 546 546 546 546 672 516 c 1,66,67
 782 521 782 521 840 566.5 c 128,-1,68
 898 612 898 612 898 688 c 0,56,57
EndSplineSet
Validated: 1
EndChar

StartChar: bullet
Encoding: 8226 8226 135
Width: 1229
GlyphClass: 2
Flags: W
LayerCount: 2
Fore
SplineSet
582 386 m 0,0,1
 476 386 476 386 409.5 455 c 128,-1,2
 343 524 343 524 343 625 c 0,3,4
 343 716 343 716 395 798 c 128,-1,5
 447 880 447 880 528.5 927 c 128,-1,6
 610 974 610 974 696 974 c 0,7,8
 802 974 802 974 871 906.5 c 128,-1,9
 940 839 940 839 940 737 c 0,10,11
 940 649 940 649 888.5 566.5 c 128,-1,12
 837 484 837 484 752.5 435 c 128,-1,13
 668 386 668 386 582 386 c 0,0,1
EndSplineSet
Validated: 1
EndChar

StartChar: paragraph
Encoding: 182 182 136
Width: 1229
GlyphClass: 2
Flags: W
LayerCount: 2
Fore
SplineSet
1113 1206 m 1,0,-1
 816 -324 l 1,1,-1
 660 -324 l 1,2,-1
 957 1206 l 1,3,-1
 762 1206 l 1,4,-1
 465 -324 l 1,5,-1
 310 -324 l 1,6,-1
 496 634 l 1,7,8
 352 634 352 634 272.5 702.5 c 128,-1,9
 193 771 193 771 193 897 c 0,10,11
 193 1019 193 1019 250 1127 c 128,-1,12
 307 1235 307 1235 409 1292 c 128,-1,13
 511 1349 511 1349 643 1349 c 2,14,-1
 1272 1349 l 1,15,-1
 1244 1206 l 1,16,-1
 1113 1206 l 1,0,-1
EndSplineSet
Validated: 1
EndChar

StartChar: germandbls
Encoding: 223 223 137
Width: 1229
GlyphClass: 2
Flags: W
LayerCount: 2
Fore
SplineSet
682 -20 m 0,0,1
 535 -20 535 -20 428 23 c 1,2,-1
 469 229 l 1,3,4
 513 207 513 207 576 188.5 c 128,-1,5
 639 170 639 170 689 170 c 0,6,7
 770 170 770 170 814 204.5 c 128,-1,8
 858 239 858 239 869 296 c 1,9,-1
 872 324 l 1,10,11
 872 399 872 399 755 485 c 0,12,13
 687 534 687 534 651.5 588.5 c 128,-1,14
 616 643 616 643 616 706 c 0,15,16
 616 786 616 786 655 843 c 128,-1,17
 694 900 694 900 771 958 c 0,18,19
 849 1017 849 1017 884.5 1064.5 c 128,-1,20
 920 1112 920 1112 920 1168 c 0,21,22
 920 1220 920 1220 881 1250.5 c 128,-1,23
 842 1281 842 1281 764 1281 c 0,24,25
 552 1281 552 1281 501 1013 c 1,26,-1
 304 0 l 1,27,-1
 23 0 l 1,28,-1
 219 1007 l 2,29,30
 263 1238 263 1238 414 1361 c 128,-1,31
 565 1484 565 1484 806 1484 c 0,32,33
 988 1484 988 1484 1090 1412.5 c 128,-1,34
 1192 1341 1192 1341 1192 1213 c 0,35,36
 1192 1175 1192 1175 1181 1129.5 c 128,-1,37
 1170 1084 1170 1084 1145 1043.5 c 128,-1,38
 1120 1003 1120 1003 1087 968.5 c 128,-1,39
 1054 934 1054 934 964 866 c 0,40,41
 921 833 921 833 904.5 812 c 128,-1,42
 888 791 888 791 888 770 c 0,43,44
 888 748 888 748 910 722 c 128,-1,45
 932 696 932 696 1008 634 c 1,46,47
 1141 523 1141 523 1141 381 c 0,48,49
 1141 277 1141 277 1086 179 c 128,-1,50
 1031 81 1031 81 928 30.5 c 128,-1,51
 825 -20 825 -20 682 -20 c 0,0,1
EndSplineSet
Validated: 1
EndChar

StartChar: registered
Encoding: 174 174 138
Width: 1229
GlyphClass: 2
Flags: W
LayerCount: 2
Fore
SplineSet
1197 761 m 0,0,1
 1197 534 1197 534 1126 370.5 c 128,-1,2
 1055 207 1055 207 923 122.5 c 128,-1,3
 791 38 791 38 614 38 c 256,4,5
 437 38 437 38 305.5 123.5 c 128,-1,6
 174 209 174 209 102.5 372 c 128,-1,7
 31 535 31 535 31 761 c 256,8,9
 31 987 31 987 102 1150 c 128,-1,10
 173 1313 173 1313 305.5 1398.5 c 128,-1,11
 438 1484 438 1484 614 1484 c 256,12,13
 790 1484 790 1484 922.5 1399 c 128,-1,14
 1055 1314 1055 1314 1126 1151.5 c 128,-1,15
 1197 989 1197 989 1197 761 c 0,0,1
789 343 m 1,16,-1
 599 672 l 1,17,-1
 483 672 l 1,18,-1
 483 343 l 1,19,-1
 332 343 l 1,20,-1
 332 1174 l 1,21,-1
 639 1174 l 2,22,23
 781 1174 781 1174 856.5 1111 c 128,-1,24
 932 1048 932 1048 932 937 c 0,25,26
 932 835 932 835 881.5 770 c 128,-1,27
 831 705 831 705 746 686 c 1,28,-1
 964 343 l 1,29,-1
 789 343 l 1,16,-1
781 935 m 0,30,31
 781 1062 781 1062 605 1062 c 2,32,-1
 483 1062 l 1,33,-1
 483 782 l 1,34,-1
 617 782 l 2,35,36
 697 782 697 782 739 821 c 128,-1,37
 781 860 781 860 781 935 c 0,30,31
1071 761 m 0,38,39
 1071 1049 1071 1049 951.5 1208.5 c 128,-1,40
 832 1368 832 1368 614 1368 c 0,41,42
 399 1368 399 1368 279.5 1208.5 c 128,-1,43
 160 1049 160 1049 160 761 c 0,44,45
 160 470 160 470 280 311.5 c 128,-1,46
 400 153 400 153 614 153 c 0,47,48
 831 153 831 153 951 311.5 c 128,-1,49
 1071 470 1071 470 1071 761 c 0,38,39
EndSplineSet
Validated: 1
EndChar

StartChar: copyright
Encoding: 169 169 139
Width: 1229
GlyphClass: 2
Flags: W
LayerCount: 2
Fore
SplineSet
628 333 m 0,0,1
 460 333 460 333 367.5 446.5 c 128,-1,2
 275 560 275 560 275 763 c 0,3,4
 275 965 275 965 364 1076 c 128,-1,5
 453 1187 453 1187 621 1187 c 0,6,7
 838 1187 838 1187 924 978 c 1,8,-1
 786 935 l 1,9,10
 737 1062 737 1062 623 1062 c 0,11,12
 528 1062 528 1062 478 985.5 c 128,-1,13
 428 909 428 909 428 763 c 0,14,15
 428 621 428 621 481.5 539 c 128,-1,16
 535 457 535 457 628 457 c 0,17,18
 741 457 741 457 799 611 c 1,19,-1
 928 569 l 1,20,21
 891 456 891 456 813.5 394.5 c 128,-1,22
 736 333 736 333 628 333 c 0,0,1
1197 761 m 0,23,24
 1197 534 1197 534 1126 370.5 c 128,-1,25
 1055 207 1055 207 923 122.5 c 128,-1,26
 791 38 791 38 614 38 c 256,27,28
 437 38 437 38 305.5 123.5 c 128,-1,29
 174 209 174 209 102.5 372 c 128,-1,30
 31 535 31 535 31 761 c 256,31,32
 31 987 31 987 102 1150 c 128,-1,33
 173 1313 173 1313 305.5 1398.5 c 128,-1,34
 438 1484 438 1484 614 1484 c 256,35,36
 790 1484 790 1484 922.5 1399 c 128,-1,37
 1055 1314 1055 1314 1126 1151.5 c 128,-1,38
 1197 989 1197 989 1197 761 c 0,23,24
1071 761 m 0,39,40
 1071 1049 1071 1049 951.5 1208.5 c 128,-1,41
 832 1368 832 1368 614 1368 c 0,42,43
 399 1368 399 1368 279.5 1208.5 c 128,-1,44
 160 1049 160 1049 160 761 c 0,45,46
 160 470 160 470 280 311.5 c 128,-1,47
 400 153 400 153 614 153 c 0,48,49
 831 153 831 153 951 311.5 c 128,-1,50
 1071 470 1071 470 1071 761 c 0,39,40
EndSplineSet
Validated: 1
EndChar

StartChar: trademark
Encoding: 8482 8482 140
Width: 1229
GlyphClass: 2
Flags: W
LayerCount: 2
Fore
SplineSet
315 1351 m 1,0,-1
 315 842 l 1,1,-1
 158 842 l 1,2,-1
 158 1351 l 1,3,-1
 0 1351 l 1,4,-1
 0 1483 l 1,5,-1
 477 1483 l 1,6,-1
 477 1351 l 1,7,-1
 315 1351 l 1,0,-1
864 1044 m 1,8,9
 866 1060 866 1060 878 1099 c 128,-1,10
 890 1138 890 1138 1023 1483 c 1,11,-1
 1206 1483 l 1,12,-1
 1206 842 l 1,13,-1
 1071 842 l 1,14,-1
 1071 1195 l 1,15,-1
 1074 1283 l 1,16,-1
 1048 1195 l 1,17,-1
 912 842 l 1,18,-1
 815 842 l 1,19,-1
 679 1195 l 1,20,-1
 653 1282 l 1,21,-1
 656 1195 l 1,22,-1
 656 842 l 1,23,-1
 521 842 l 1,24,-1
 521 1483 l 1,25,-1
 704 1483 l 1,26,-1
 846 1111 l 2,27,28
 860 1075 860 1075 864 1044 c 1,8,9
EndSplineSet
Validated: 1
EndChar

StartChar: acute
Encoding: 180 180 141
Width: 1229
GlyphClass: 2
Flags: W
LayerCount: 2
Fore
SplineSet
492 1184 m 1,0,-1
 498 1215 l 1,1,-1
 797 1458 l 1,2,-1
 1055 1458 l 1,3,-1
 1047 1415 l 1,4,-1
 662 1184 l 1,5,-1
 492 1184 l 1,0,-1
EndSplineSet
Validated: 1
EndChar

StartChar: dieresis
Encoding: 168 168 142
Width: 1229
GlyphClass: 2
Flags: W
LayerCount: 2
Fore
SplineSet
845 1219 m 1,0,-1
 888 1438 l 1,1,-1
 1115 1438 l 1,2,-1
 1072 1219 l 1,3,-1
 845 1219 l 1,0,-1
421 1219 m 1,4,-1
 464 1438 l 1,5,-1
 688 1438 l 1,6,-1
 645 1219 l 1,7,-1
 421 1219 l 1,4,-1
EndSplineSet
Validated: 1
EndChar

StartChar: notequal
Encoding: 8800 8800 143
Width: 1229
GlyphClass: 2
Flags: W
LayerCount: 2
Fore
SplineSet
513 291 m 1,0,-1
 384 37 l 1,1,-1
 171 37 l 1,2,-1
 300 291 l 1,3,-1
 91 291 l 1,4,-1
 91 512 l 1,5,-1
 408 512 l 1,6,-1
 574 842 l 1,7,-1
 91 842 l 1,8,-1
 91 1065 l 1,9,-1
 683 1065 l 1,10,-1
 816 1323 l 1,11,-1
 1027 1323 l 1,12,-1
 896 1065 l 1,13,-1
 1138 1065 l 1,14,-1
 1138 842 l 1,15,-1
 787 842 l 1,16,-1
 621 512 l 1,17,-1
 1138 512 l 1,18,-1
 1138 291 l 1,19,-1
 513 291 l 1,0,-1
EndSplineSet
Validated: 1
EndChar

StartChar: AE
Encoding: 198 198 144
Width: 1229
GlyphClass: 2
Flags: W
AnchorPoint: "top" 938 1413 basechar 0
AnchorPoint: "bottom" 512 -57 basechar 0
LayerCount: 2
Fore
SplineSet
586 387 m 1,0,-1
 333 387 l 1,1,-1
 156 0 l 1,2,-1
 -105 0 l 1,3,-1
 529 1349 l 1,4,-1
 1333 1349 l 1,5,-1
 1294 1147 l 1,6,-1
 985 1147 l 1,7,-1
 916 792 l 1,8,-1
 1213 792 l 1,9,-1
 1174 592 l 1,10,-1
 877 592 l 1,11,-1
 801 202 l 1,12,-1
 1149 202 l 1,13,-1
 1110 0 l 1,14,-1
 511 0 l 1,15,-1
 586 387 l 1,0,-1
735 1152 m 1,16,-1
 677 1152 l 1,17,-1
 592 952 l 1,18,-1
 423 586 l 1,19,-1
 625 586 l 1,20,-1
 735 1152 l 1,16,-1
EndSplineSet
EndChar

StartChar: Oslash
Encoding: 216 216 145
Width: 1229
GlyphClass: 2
Flags: W
LayerCount: 2
Fore
SplineSet
506 -20 m 0,0,1
 291 -20 291 -20 180 99 c 1,2,-1
 47 -43 l 1,3,-1
 -53 32 l 1,4,-1
 112 208 l 1,5,6
 73 304 73 304 73 439 c 0,7,8
 73 598 73 598 124 789 c 128,-1,9
 175 980 175 980 265.5 1108.5 c 128,-1,10
 356 1237 356 1237 485 1303.5 c 128,-1,11
 614 1370 614 1370 776 1370 c 0,12,13
 989 1370 989 1370 1099 1255 c 1,14,-1
 1233 1397 l 1,15,-1
 1332 1322 l 1,16,-1
 1168 1149 l 1,17,18
 1209 1049 1209 1049 1209 915 c 0,19,20
 1209 753 1209 753 1157 562.5 c 128,-1,21
 1105 372 1105 372 1014 243 c 128,-1,22
 923 114 923 114 795 47 c 128,-1,23
 667 -20 667 -20 506 -20 c 0,0,1
908 872 m 1,24,-1
 394 326 l 1,25,26
 435 212 435 212 551 212 c 0,27,28
 655 212 655 212 731.5 299.5 c 128,-1,29
 808 387 808 387 856.5 558.5 c 128,-1,30
 905 730 905 730 908 872 c 1,24,-1
374 486 m 1,31,-1
 887 1031 l 1,32,33
 848 1138 848 1138 731 1138 c 0,34,35
 626 1138 626 1138 549.5 1052.5 c 128,-1,36
 473 967 473 967 425 795.5 c 128,-1,37
 377 624 377 624 374 486 c 1,31,-1
EndSplineSet
Validated: 1
EndChar

StartChar: infinity
Encoding: 8734 8734 146
Width: 1229
GlyphClass: 2
Flags: W
LayerCount: 2
Fore
SplineSet
1210 583 m 0,0,1
 1210 415 1210 415 1130 305.5 c 128,-1,2
 1050 196 1050 196 920 196 c 0,3,4
 823 196 823 196 754 252 c 128,-1,5
 685 308 685 308 614 445 c 1,6,7
 558 347 558 347 515.5 301 c 128,-1,8
 473 255 473 255 422.5 230.5 c 128,-1,9
 372 206 372 206 311 206 c 0,10,11
 178 206 178 206 98.5 310.5 c 128,-1,12
 19 415 19 415 19 597 c 0,13,14
 19 768 19 768 98.5 876 c 128,-1,15
 178 984 178 984 311 984 c 0,16,17
 403 984 403 984 472.5 925.5 c 128,-1,18
 542 867 542 867 614 725 c 1,19,20
 672 830 672 830 713.5 877.5 c 128,-1,21
 755 925 755 925 802.5 950 c 128,-1,22
 850 975 850 975 908 975 c 0,23,24
 1052 975 1052 975 1131 869.5 c 128,-1,25
 1210 764 1210 764 1210 583 c 0,0,1
896 802 m 0,26,27
 794 802 794 802 692 585 c 1,28,29
 739 484 739 484 786 426.5 c 128,-1,30
 833 369 833 369 895 369 c 0,31,32
 953 369 953 369 986.5 429 c 128,-1,33
 1020 489 1020 489 1020 585 c 0,34,35
 1020 687 1020 687 986.5 744.5 c 128,-1,36
 953 802 953 802 896 802 c 0,26,27
535 595 m 1,37,38
 477 723 477 723 434.5 768 c 128,-1,39
 392 813 392 813 342 813 c 0,40,41
 282 813 282 813 245.5 750.5 c 128,-1,42
 209 688 209 688 209 595 c 0,43,44
 209 496 209 496 245 438 c 128,-1,45
 281 380 281 380 343 380 c 0,46,47
 394 380 394 380 439.5 434 c 128,-1,48
 485 488 485 488 535 595 c 1,37,38
EndSplineSet
Validated: 1
EndChar

StartChar: plusminus
Encoding: 177 177 147
Width: 1229
GlyphClass: 2
Flags: W
LayerCount: 2
Fore
SplineSet
726 707 m 1,0,-1
 726 366 l 1,1,-1
 502 366 l 1,2,-1
 502 707 l 1,3,-1
 101 707 l 1,4,-1
 101 930 l 1,5,-1
 502 930 l 1,6,-1
 502 1270 l 1,7,-1
 726 1270 l 1,8,-1
 726 930 l 1,9,-1
 1128 930 l 1,10,-1
 1128 707 l 1,11,-1
 726 707 l 1,0,-1
101 0 m 1,12,-1
 101 223 l 1,13,-1
 1128 223 l 1,14,-1
 1128 0 l 1,15,-1
 101 0 l 1,12,-1
EndSplineSet
Validated: 1
EndChar

StartChar: lessequal
Encoding: 8804 8804 148
Width: 1229
GlyphClass: 2
Flags: W
LayerCount: 2
Fore
SplineSet
91 631 m 1,0,-1
 91 952 l 1,1,-1
 1117 1298 l 1,2,-1
 1117 1071 l 1,3,-1
 285 791 l 1,4,-1
 1117 512 l 1,5,-1
 1117 285 l 1,6,-1
 91 631 l 1,0,-1
91 0 m 1,7,-1
 91 223 l 1,8,-1
 1115 223 l 1,9,-1
 1115 0 l 1,10,-1
 91 0 l 1,7,-1
EndSplineSet
Validated: 1
EndChar

StartChar: greaterequal
Encoding: 8805 8805 149
Width: 1229
GlyphClass: 2
Flags: W
LayerCount: 2
Fore
SplineSet
111 285 m 1,0,-1
 111 512 l 1,1,-1
 943 791 l 1,2,-1
 111 1071 l 1,3,-1
 111 1298 l 1,4,-1
 1137 952 l 1,5,-1
 1137 631 l 1,6,-1
 111 285 l 1,0,-1
113 0 m 1,7,-1
 113 223 l 1,8,-1
 1137 223 l 1,9,-1
 1137 0 l 1,10,-1
 113 0 l 1,7,-1
EndSplineSet
Validated: 1
EndChar

StartChar: yen
Encoding: 165 165 150
Width: 1229
GlyphClass: 2
Flags: W
LayerCount: 2
Fore
SplineSet
840 691 m 1,0,-1
 1116 691 l 1,1,-1
 1088 545 l 1,2,-1
 750 545 l 1,3,-1
 718 383 l 1,4,-1
 1056 383 l 1,5,-1
 1028 236 l 1,6,-1
 690 236 l 1,7,-1
 644 0 l 1,8,-1
 372 0 l 1,9,-1
 418 236 l 1,10,-1
 82 236 l 1,11,-1
 110 383 l 1,12,-1
 446 383 l 1,13,-1
 478 545 l 1,14,-1
 142 545 l 1,15,-1
 170 691 l 1,16,-1
 446 691 l 1,17,-1
 190 1349 l 1,18,-1
 479 1349 l 1,19,-1
 665 813 l 1,20,-1
 1063 1349 l 1,21,-1
 1352 1349 l 1,22,-1
 840 691 l 1,0,-1
EndSplineSet
Validated: 1
EndChar

StartChar: mu
Encoding: 181 181 151
Width: 1229
GlyphClass: 2
Flags: W
LayerCount: 2
Fore
SplineSet
729 0 m 1,0,1
 738 112 738 112 752 184 c 1,2,-1
 749 184 l 1,3,4
 632 -20 632 -20 463 -20 c 0,5,6
 411 -20 411 -20 372.5 4 c 128,-1,7
 334 28 334 28 319 70 c 1,8,-1
 315 70 l 1,9,-1
 296 -45 l 1,10,-1
 224 -416 l 1,11,-1
 -57 -416 l 1,12,-1
 234 1082 l 1,13,-1
 515 1082 l 1,14,-1
 398 477 l 2,15,16
 385 406 385 406 385 358 c 0,17,18
 385 193 385 193 527 193 c 0,19,20
 626 193 626 193 703 278.5 c 128,-1,21
 780 364 780 364 806 504 c 1,22,-1
 918 1082 l 1,23,-1
 1199 1082 l 1,24,-1
 1036 242 l 1,25,26
 1000 35 1000 35 997 0 c 1,27,-1
 729 0 l 1,0,1
EndSplineSet
Validated: 1
EndChar

StartChar: partialdiff
Encoding: 8706 8706 152
Width: 1229
GlyphClass: 2
Flags: W
LayerCount: 2
Fore
SplineSet
1137 937 m 0,0,1
 1137 809 1137 809 1108 653 c 128,-1,2
 1079 497 1079 497 1021.5 368 c 128,-1,3
 964 239 964 239 884 152 c 128,-1,4
 804 65 804 65 701 19 c 128,-1,5
 598 -27 598 -27 474 -27 c 0,6,7
 284 -27 284 -27 180.5 74.5 c 128,-1,8
 77 176 77 176 77 361 c 0,9,10
 77 479 77 479 117.5 602.5 c 128,-1,11
 158 726 158 726 227.5 816 c 128,-1,12
 297 906 297 906 390 954.5 c 128,-1,13
 483 1003 483 1003 597 1003 c 0,14,15
 700 1003 700 1003 780 957.5 c 128,-1,16
 860 912 860 912 897 838 c 1,17,-1
 903 838 l 1,18,19
 910 915 910 915 910 941 c 0,20,21
 910 1107 910 1107 835.5 1195.5 c 128,-1,22
 761 1284 761 1284 613 1284 c 0,23,24
 546 1284 546 1284 471 1259 c 128,-1,25
 396 1234 396 1234 344 1196 c 1,26,-1
 389 1404 l 1,27,28
 502 1477 502 1477 660 1477 c 0,29,30
 890 1477 890 1477 1013.5 1338 c 128,-1,31
 1137 1199 1137 1199 1137 937 c 0,0,1
859 663 m 1,32,33
 840 737 840 737 780 785.5 c 128,-1,34
 720 834 720 834 642 834 c 0,35,36
 553 834 553 834 479.5 773.5 c 128,-1,37
 406 713 406 713 360 597 c 128,-1,38
 314 481 314 481 314 365 c 0,39,40
 314 273 314 273 361.5 220.5 c 128,-1,41
 409 168 409 168 495 168 c 0,42,43
 624 168 624 168 724.5 306.5 c 128,-1,44
 825 445 825 445 859 663 c 1,32,33
EndSplineSet
Validated: 1
EndChar

StartChar: summation
Encoding: 8721 8721 153
Width: 1229
GlyphClass: 2
Flags: W
LayerCount: 2
Fore
SplineSet
22 -455 m 1,0,-1
 22 -295 l 1,1,-1
 628 451 l 1,2,-1
 42 1197 l 1,3,-1
 42 1349 l 1,4,-1
 1159 1349 l 1,5,-1
 1159 1122 l 1,6,-1
 413 1122 l 1,7,-1
 941 455 l 1,8,-1
 393 -227 l 1,9,-1
 1216 -227 l 1,10,-1
 1216 -455 l 1,11,-1
 22 -455 l 1,0,-1
EndSplineSet
Validated: 1
EndChar

StartChar: product
Encoding: 8719 8719 154
Width: 1229
GlyphClass: 2
Flags: W
LayerCount: 2
Fore
SplineSet
841 -455 m 1,0,-1
 841 1105 l 1,1,-1
 399 1105 l 1,2,-1
 399 -455 l 1,3,-1
 104 -455 l 1,4,-1
 104 1349 l 1,5,-1
 1123 1349 l 1,6,-1
 1123 -455 l 1,7,-1
 841 -455 l 1,0,-1
EndSplineSet
Validated: 1
EndChar

StartChar: integral
Encoding: 8747 8747 155
Width: 1229
GlyphClass: 2
Flags: W
LayerCount: 2
Fore
SplineSet
354 -455 m 0,0,1
 311 -455 311 -455 265 -448 c 128,-1,2
 219 -441 219 -441 199 -434 c 1,3,-1
 199 -217 l 1,4,5
 265 -242 265 -242 318 -242 c 0,6,7
 473 -242 473 -242 473 -45 c 2,8,-1
 473 1126 l 2,9,10
 473 1306 473 1306 579 1406.5 c 128,-1,11
 685 1507 685 1507 875 1507 c 0,12,13
 963 1507 963 1507 1030 1488 c 1,14,-1
 1030 1269 l 1,15,16
 980 1294 980 1294 911 1294 c 0,17,18
 834 1294 834 1294 794 1243.5 c 128,-1,19
 754 1193 754 1193 754 1099 c 2,20,-1
 754 -74 l 2,21,22
 754 -256 754 -256 648.5 -355.5 c 128,-1,23
 543 -455 543 -455 354 -455 c 0,0,1
EndSplineSet
Validated: 1
EndChar

StartChar: ordfeminine
Encoding: 170 170 156
Width: 1229
GlyphClass: 2
Flags: W
LayerCount: 2
Fore
SplineSet
465 643 m 0,0,1
 368 643 368 643 314.5 688 c 128,-1,2
 261 733 261 733 261 818 c 0,3,4
 261 845 261 845 267 875 c 0,5,6
 315 1113 315 1113 640 1118 c 1,7,-1
 810 1120 l 1,8,9
 824 1195 824 1195 824 1215 c 0,10,11
 824 1305 824 1305 727 1305 c 0,12,13
 610 1305 610 1305 577 1197 c 1,14,-1
 360 1208 l 1,15,16
 400 1317 400 1317 503 1379 c 128,-1,17
 606 1441 606 1441 751 1441 c 0,18,19
 890 1441 890 1441 962.5 1387 c 128,-1,20
 1035 1333 1035 1333 1035 1233 c 0,21,22
 1035 1204 1035 1204 1029 1171 c 2,23,-1
 976 898 l 2,24,25
 968 860 968 860 968 836 c 0,26,27
 968 787 968 787 1013 787 c 1,28,-1
 1070 792 l 1,29,-1
 1046 667 l 1,30,31
 973 646 973 646 906 646 c 0,32,33
 825 646 825 646 789.5 684.5 c 128,-1,34
 754 723 754 723 754 777 c 1,35,-1
 755 800 l 1,36,-1
 752 800 l 1,37,38
 637 643 637 643 465 643 c 0,0,1
576 794 m 0,39,40
 648 794 648 794 708 849.5 c 128,-1,41
 768 905 768 905 782 979 c 2,42,-1
 788 1010 l 1,43,-1
 682 1007 l 2,44,45
 599 1005 599 1005 560.5 988 c 128,-1,46
 522 971 522 971 503 937 c 128,-1,47
 484 903 484 903 484 865 c 0,48,49
 484 794 484 794 576 794 c 0,39,40
EndSplineSet
Validated: 1
EndChar

StartChar: ordmasculine
Encoding: 186 186 157
Width: 1229
GlyphClass: 2
Flags: W
LayerCount: 2
Fore
SplineSet
630 643 m 0,0,1
 479 643 479 643 396.5 721 c 128,-1,2
 314 799 314 799 314 939 c 0,3,4
 314 1032 314 1032 348.5 1129.5 c 128,-1,5
 383 1227 383 1227 445.5 1297 c 128,-1,6
 508 1367 508 1367 595.5 1404 c 128,-1,7
 683 1441 683 1441 790 1441 c 0,8,9
 945 1441 945 1441 1028.5 1367.5 c 128,-1,10
 1112 1294 1112 1294 1112 1152 c 0,11,12
 1112 1053 1112 1053 1077 954.5 c 128,-1,13
 1042 856 1042 856 978.5 787 c 128,-1,14
 915 718 915 718 825.5 680.5 c 128,-1,15
 736 643 736 643 630 643 c 0,0,1
883 1146 m 0,16,17
 883 1220 883 1220 851 1248.5 c 128,-1,18
 819 1277 819 1277 760 1277 c 0,19,20
 686 1277 686 1277 639.5 1234.5 c 128,-1,21
 593 1192 593 1192 567.5 1104 c 128,-1,22
 542 1016 542 1016 542 943 c 0,23,24
 542 804 542 804 660 804 c 0,25,26
 736 804 736 804 783.5 848 c 128,-1,27
 831 892 831 892 857 982.5 c 128,-1,28
 883 1073 883 1073 883 1146 c 0,16,17
EndSplineSet
Validated: 1
EndChar

StartChar: Ohm
Encoding: 8486 8486 158
Width: 1229
GlyphClass: 2
Flags: W
LayerCount: 2
Fore
SplineSet
614 1143 m 256,0,1
 494 1143 494 1143 423 1040 c 128,-1,2
 352 937 352 937 352 754 c 0,3,4
 352 620 352 620 395.5 517 c 128,-1,5
 439 414 439 414 545 304 c 1,6,-1
 545 0 l 1,7,-1
 50 0 l 1,8,-1
 50 228 l 1,9,-1
 166 228 l 2,10,11
 230 228 230 228 340 217 c 1,12,13
 68 434 68 434 68 798 c 0,14,15
 68 967 68 967 139 1097.5 c 128,-1,16
 210 1228 210 1228 335.5 1299 c 128,-1,17
 461 1370 461 1370 614 1370 c 0,18,19
 766 1370 766 1370 892 1299 c 128,-1,20
 1018 1228 1018 1228 1089 1097 c 128,-1,21
 1160 966 1160 966 1160 798 c 0,22,23
 1160 434 1160 434 888 217 c 1,24,25
 1002 228 1002 228 1066 228 c 2,26,-1
 1178 228 l 1,27,-1
 1178 0 l 1,28,-1
 683 0 l 1,29,-1
 683 304 l 1,30,31
 789 414 789 414 832.5 516 c 128,-1,32
 876 618 876 618 876 754 c 0,33,34
 876 937 876 937 805 1040 c 128,-1,35
 734 1143 734 1143 614 1143 c 256,0,1
EndSplineSet
Validated: 1
EndChar

StartChar: ae
Encoding: 230 230 159
Width: 1229
GlyphClass: 2
Flags: W
AnchorPoint: "bottom" 461 -80 basechar 0
AnchorPoint: "top" 731 1177 basechar 0
LayerCount: 2
Fore
SplineSet
688 484 m 1,0,-1
 688 482 l 1,1,2
 673 409 673 409 673 345 c 0,3,4
 673 258 673 258 702.5 209 c 128,-1,5
 732 160 732 160 790 160 c 0,6,7
 850 160 850 160 889.5 198 c 128,-1,8
 929 236 929 236 958 301 c 1,9,-1
 1127 256 l 1,10,11
 998 -20 998 -20 759 -20 c 0,12,13
 645 -20 645 -20 589.5 34.5 c 128,-1,14
 534 89 534 89 522 212 c 1,15,16
 451 96 451 96 359.5 38 c 128,-1,17
 268 -20 268 -20 169 -20 c 0,18,19
 68 -20 68 -20 16 38 c 128,-1,20
 -36 96 -36 96 -36 202 c 0,21,22
 -36 248 -36 248 -26 302 c 0,23,24
 43 655 43 655 373 660 c 1,25,-1
 521 664 l 1,26,27
 541 764 541 764 541 799 c 0,28,29
 541 920 541 920 455 920 c 0,30,31
 362 920 362 920 318 773 c 1,32,-1
 114 790 l 1,33,34
 163 946 163 946 258 1024 c 128,-1,35
 353 1102 353 1102 489 1102 c 0,36,37
 667 1102 667 1102 709 963 c 1,38,39
 820 1102 820 1102 982 1102 c 0,40,41
 1234 1102 1234 1102 1234 781 c 0,42,43
 1234 732 1234 732 1228.5 677.5 c 128,-1,44
 1223 623 1223 623 1197 484 c 1,45,-1
 688 484 l 1,0,-1
176 244 m 0,46,47
 176 162 176 162 234 162 c 0,48,49
 312 162 312 162 383.5 247 c 128,-1,50
 455 332 455 332 478 445 c 2,51,-1
 489 499 l 1,52,-1
 386 496 l 2,53,54
 307 494 307 494 265 462 c 128,-1,55
 223 430 223 430 199.5 364.5 c 128,-1,56
 176 299 176 299 176 244 c 0,46,47
934 924 m 0,57,58
 894 924 894 924 852 891.5 c 128,-1,59
 810 859 810 859 776 800.5 c 128,-1,60
 742 742 742 742 724 660 c 1,61,-1
 1025 660 l 1,62,63
 1033 722 1033 722 1033 769 c 0,64,65
 1033 844 1033 844 1010.5 884 c 128,-1,66
 988 924 988 924 934 924 c 0,57,58
EndSplineSet
EndChar

StartChar: oslash
Encoding: 248 248 160
Width: 1229
GlyphClass: 2
Flags: W
LayerCount: 2
Fore
SplineSet
501 -20 m 0,0,1
 301 -20 301 -20 192 77 c 1,2,-1
 88 -20 l 1,3,-1
 7 58 l 1,4,-1
 123 165 l 1,5,6
 76 255 76 255 76 382 c 0,7,8
 76 567 76 567 155.5 743.5 c 128,-1,9
 235 920 235 920 381 1011 c 128,-1,10
 527 1102 527 1102 725 1102 c 0,11,12
 931 1102 931 1102 1037 1015 c 1,13,-1
 1134 1104 l 1,14,-1
 1216 1026 l 1,15,-1
 1110 928 l 1,16,17
 1156 844 1156 844 1156 718 c 0,18,19
 1156 580 1156 580 1110 434 c 128,-1,20
 1064 288 1064 288 979.5 187.5 c 128,-1,21
 895 87 895 87 775 33.5 c 128,-1,22
 655 -20 655 -20 501 -20 c 0,0,1
863 698 m 1,23,-1
 388 259 l 1,24,25
 426 172 426 172 535 172 c 0,26,27
 639 172 639 172 706 232.5 c 128,-1,28
 773 293 773 293 813.5 423.5 c 128,-1,29
 854 554 854 554 863 698 c 1,23,-1
369 394 m 1,30,-1
 841 832 l 1,31,32
 803 909 803 909 692 909 c 0,33,34
 587 909 587 909 520 846.5 c 128,-1,35
 453 784 453 784 413 648.5 c 128,-1,36
 373 513 373 513 369 394 c 1,30,-1
EndSplineSet
Validated: 1
EndChar

StartChar: questiondown
Encoding: 191 191 161
Width: 1229
GlyphClass: 2
Flags: W
LayerCount: 2
Fore
SplineSet
570 676 m 1,0,-1
 837 676 l 1,1,2
 812 574 812 574 743.5 492.5 c 128,-1,3
 675 411 675 411 564 343 c 0,4,5
 427 260 427 260 373.5 204.5 c 128,-1,6
 320 149 320 149 320 77 c 0,7,8
 320 17 320 17 368.5 -22.5 c 128,-1,9
 417 -62 417 -62 511 -62 c 0,10,11
 611 -62 611 -62 691.5 -4 c 128,-1,12
 772 54 772 54 803 153 c 1,13,-1
 1085 141 l 1,14,15
 1021 -59 1021 -59 858.5 -173.5 c 128,-1,16
 696 -288 696 -288 471 -288 c 0,17,18
 265 -288 265 -288 147.5 -205.5 c 128,-1,19
 30 -123 30 -123 30 22 c 0,20,21
 30 72 30 72 45.5 126.5 c 128,-1,22
 61 181 61 181 94 231 c 128,-1,23
 127 281 127 281 178.5 326.5 c 128,-1,24
 230 372 230 372 394 474 c 0,25,26
 546 569 546 569 570 676 c 1,0,-1
924 1082 m 1,27,-1
 872 812 l 1,28,-1
 583 812 l 1,29,-1
 635 1082 l 1,30,-1
 924 1082 l 1,27,-1
EndSplineSet
Validated: 1
EndChar

StartChar: exclamdown
Encoding: 161 161 162
Width: 1229
GlyphClass: 2
Flags: W
LayerCount: 2
Fore
SplineSet
522 653 m 1,0,-1
 752 653 l 1,1,-1
 605 -270 l 1,2,-1
 311 -270 l 1,3,-1
 522 653 l 1,0,-1
867 1079 m 1,4,-1
 814 809 l 1,5,-1
 526 809 l 1,6,-1
 579 1079 l 1,7,-1
 867 1079 l 1,4,-1
EndSplineSet
Validated: 1
EndChar

StartChar: logicalnot
Encoding: 172 172 163
Width: 1229
GlyphClass: 2
Flags: W
LayerCount: 2
Fore
SplineSet
887 141 m 1,0,-1
 887 569 l 1,1,-1
 84 569 l 1,2,-1
 84 793 l 1,3,-1
 1111 793 l 1,4,-1
 1111 141 l 1,5,-1
 887 141 l 1,0,-1
EndSplineSet
Validated: 1
EndChar

StartChar: radical
Encoding: 8730 8730 164
Width: 1229
GlyphClass: 2
Flags: W
LayerCount: 2
Fore
SplineSet
682 -25 m 1,0,-1
 514 -25 l 1,1,-1
 244 729 l 1,2,-1
 60 729 l 1,3,-1
 60 895 l 1,4,-1
 371 895 l 1,5,-1
 590 260 l 1,6,-1
 1002 1620 l 1,7,-1
 1188 1620 l 1,8,-1
 682 -25 l 1,0,-1
EndSplineSet
Validated: 1
EndChar

StartChar: florin
Encoding: 402 402 165
Width: 1229
GlyphClass: 2
Flags: W
LayerCount: 2
Fore
SplineSet
1186 1158 m 1,0,1
 1157 1168 1157 1168 1109.5 1174 c 128,-1,2
 1062 1180 1062 1180 1035 1180 c 0,3,4
 955 1180 955 1180 914.5 1153 c 128,-1,5
 874 1126 874 1126 847 1053 c 2,6,-1
 806 946 l 1,7,-1
 1108 946 l 1,8,-1
 1035 756 l 1,9,-1
 732 756 l 1,10,-1
 270 -425 l 1,11,-1
 -11 -425 l 1,12,-1
 451 756 l 1,13,-1
 243 756 l 1,14,-1
 317 946 l 1,15,-1
 525 946 l 1,16,-1
 578 1081 l 1,17,18
 634 1231 634 1231 744.5 1300.5 c 128,-1,19
 855 1370 855 1370 1032 1370 c 0,20,21
 1104 1370 1104 1370 1172.5 1358 c 128,-1,22
 1241 1346 1241 1346 1267 1335 c 1,23,-1
 1186 1158 l 1,0,1
EndSplineSet
Validated: 1
EndChar

StartChar: approxequal
Encoding: 8776 8776 166
Width: 1229
GlyphClass: 2
Flags: W
LayerCount: 2
Fore
SplineSet
866 756 m 0,0,1
 791 756 791 756 718.5 776.5 c 128,-1,2
 646 797 646 797 571 823 c 0,3,4
 439 870 439 870 350 870 c 0,5,6
 283 870 283 870 224 850.5 c 128,-1,7
 165 831 165 831 95 782 c 1,8,-1
 95 995 l 1,9,10
 205 1079 205 1079 366 1079 c 0,11,12
 419 1079 419 1079 481 1066.5 c 128,-1,13
 543 1054 543 1054 685 1006 c 1,14,15
 806 963 806 963 885 963 c 0,16,17
 1019 963 1019 963 1133 1055 c 1,18,-1
 1133 836 l 1,19,20
 1070 791 1070 791 1010 773.5 c 128,-1,21
 950 756 950 756 866 756 c 0,0,1
866 274 m 0,22,23
 791 274 791 274 718.5 296 c 128,-1,24
 646 318 646 318 571 344 c 0,25,26
 442 389 442 389 350 389 c 0,27,28
 279 389 279 389 219.5 367.5 c 128,-1,29
 160 346 160 346 95 301 c 1,30,-1
 95 514 l 1,31,32
 208 598 208 598 366 598 c 0,33,34
 449 598 449 598 529 575 c 128,-1,35
 609 552 609 552 685 526 c 1,36,37
 787 494 787 494 822 487.5 c 128,-1,38
 857 481 857 481 885 481 c 0,39,40
 1019 481 1019 481 1133 573 c 1,41,-1
 1133 354 l 1,42,43
 1069 310 1069 310 1010.5 292 c 128,-1,44
 952 274 952 274 866 274 c 0,22,23
EndSplineSet
Validated: 1
EndChar

StartChar: Delta
Encoding: 8710 8710 167
Width: 1229
GlyphClass: 2
Flags: W
LayerCount: 2
Fore
SplineSet
18 226 m 1,0,-1
 446 1349 l 1,1,-1
 791 1349 l 1,2,-1
 1212 226 l 1,3,-1
 1212 0 l 1,4,-1
 18 0 l 1,5,-1
 18 226 l 1,0,-1
918 244 m 1,6,-1
 695 862 l 1,7,8
 651 1000 651 1000 625 1120 c 1,9,-1
 616 1159 l 1,10,11
 615 1149 615 1149 587.5 1041 c 128,-1,12
 560 933 560 933 537 860 c 1,13,-1
 317 244 l 1,14,-1
 918 244 l 1,6,-1
EndSplineSet
Validated: 1
EndChar

StartChar: guillemotleft
Encoding: 171 171 168
Width: 1229
GlyphClass: 2
Flags: W
LayerCount: 2
Fore
SplineSet
779 141 m 1,0,-1
 594 502 l 1,1,-1
 607 573 l 1,2,-1
 935 940 l 1,3,-1
 1173 940 l 1,4,-1
 1166 903 l 1,5,-1
 840 537 l 1,6,-1
 1026 176 l 1,7,-1
 1019 141 l 1,8,-1
 779 141 l 1,0,-1
312 141 m 1,9,-1
 125 502 l 1,10,-1
 138 573 l 1,11,-1
 468 940 l 1,12,-1
 704 940 l 1,13,-1
 697 903 l 1,14,-1
 371 537 l 1,15,-1
 557 176 l 1,16,-1
 550 141 l 1,17,-1
 312 141 l 1,9,-1
EndSplineSet
Validated: 1
EndChar

StartChar: guillemotright
Encoding: 187 187 169
Width: 1229
GlyphClass: 2
Flags: W
LayerCount: 2
Fore
SplineSet
54 141 m 1,0,-1
 61 176 l 1,1,-1
 387 537 l 1,2,-1
 205 903 l 1,3,-1
 212 940 l 1,4,-1
 450 940 l 1,5,-1
 634 573 l 1,6,-1
 621 502 l 1,7,-1
 294 141 l 1,8,-1
 54 141 l 1,0,-1
523 141 m 1,9,-1
 530 176 l 1,10,-1
 856 537 l 1,11,-1
 674 903 l 1,12,-1
 681 940 l 1,13,-1
 917 940 l 1,14,-1
 1103 573 l 1,15,-1
 1090 502 l 1,16,-1
 761 141 l 1,17,-1
 523 141 l 1,9,-1
EndSplineSet
Validated: 1
EndChar

StartChar: ellipsis
Encoding: 8230 8230 170
Width: 1229
GlyphClass: 2
Flags: W
LayerCount: 2
Fore
SplineSet
816 0 m 1,0,-1
 875 305 l 1,1,-1
 1133 305 l 1,2,-1
 1074 0 l 1,3,-1
 816 0 l 1,0,-1
386 0 m 1,4,-1
 445 305 l 1,5,-1
 701 305 l 1,6,-1
 642 0 l 1,7,-1
 386 0 l 1,4,-1
-46 0 m 1,8,-1
 13 305 l 1,9,-1
 271 305 l 1,10,-1
 212 0 l 1,11,-1
 -46 0 l 1,8,-1
EndSplineSet
Validated: 1
EndChar

StartChar: OE
Encoding: 338 338 174
Width: 1229
GlyphClass: 2
Flags: W
LayerCount: 2
Fore
SplineSet
494 0 m 1,0,-1
 415 -5 l 1,1,2
 216 -5 216 -5 121.5 96 c 128,-1,3
 27 197 27 197 27 406 c 0,4,5
 27 564 27 564 75.5 767 c 128,-1,6
 124 970 124 970 204.5 1099 c 128,-1,7
 285 1228 285 1228 402 1291.5 c 128,-1,8
 519 1355 519 1355 681 1355 c 0,9,10
 720 1355 720 1355 769 1349 c 1,11,-1
 1327 1349 l 1,12,-1
 1288 1147 l 1,13,-1
 975 1147 l 1,14,-1
 906 792 l 1,15,-1
 1193 792 l 1,16,-1
 1154 592 l 1,17,-1
 867 592 l 1,18,-1
 791 202 l 1,19,-1
 1145 202 l 1,20,-1
 1106 0 l 1,21,-1
 494 0 l 1,0,-1
454 190 m 0,22,23
 509 190 509 190 539 196 c 1,24,-1
 725 1153 l 1,25,26
 689 1159 689 1159 643 1159 c 0,27,28
 531 1159 531 1159 458.5 1065 c 128,-1,29
 386 971 386 971 338 770 c 128,-1,30
 290 569 290 569 290 431 c 0,31,32
 290 190 290 190 454 190 c 0,22,23
EndSplineSet
Validated: 1
EndChar

StartChar: oe
Encoding: 339 339 175
Width: 1229
GlyphClass: 2
Flags: W
LayerCount: 2
Fore
SplineSet
721 484 m 1,0,1
 705 402 705 402 705 339 c 0,2,3
 705 170 705 170 808 170 c 0,4,5
 859 170 859 170 891.5 203 c 128,-1,6
 924 236 924 236 951 301 c 1,7,-1
 1120 256 l 1,8,9
 997 -20 997 -20 773 -20 c 0,10,11
 591 -20 591 -20 546 163 c 1,12,13
 428 -20 428 -20 244 -20 c 0,14,15
 129 -20 129 -20 65.5 60.5 c 128,-1,16
 2 141 2 141 2 307 c 0,17,18
 2 434 2 434 40 599.5 c 128,-1,19
 78 765 78 765 139 876 c 128,-1,20
 200 987 200 987 282.5 1044.5 c 128,-1,21
 365 1102 365 1102 469 1102 c 0,22,23
 656 1102 656 1102 701 925 c 1,24,25
 820 1102 820 1102 994 1102 c 0,26,27
 1230 1102 1230 1102 1230 787 c 0,28,29
 1230 672 1230 672 1201 527 c 1,30,-1
 1193 484 l 1,31,-1
 721 484 l 1,0,1
548 751 m 0,32,33
 548 914 548 914 446 914 c 0,34,35
 377 914 377 914 329 833 c 128,-1,36
 281 752 281 752 245.5 584 c 128,-1,37
 210 416 210 416 210 318 c 0,38,39
 210 168 210 168 295 168 c 0,40,41
 373 168 373 168 426.5 253.5 c 128,-1,42
 480 339 480 339 514 498.5 c 128,-1,43
 548 658 548 658 548 751 c 0,32,33
948 914 m 0,44,45
 812 914 812 914 757 660 c 1,46,-1
 1021 660 l 1,47,48
 1032 746 1032 746 1032 789 c 0,49,50
 1032 858 1032 858 1012 886 c 128,-1,51
 992 914 992 914 948 914 c 0,44,45
EndSplineSet
Validated: 1
EndChar

StartChar: endash
Encoding: 8211 8211 176
Width: 1229
GlyphClass: 2
Flags: W
LayerCount: 2
Fore
SplineSet
138 418 m 1,0,-1
 178 621 l 1,1,-1
 1082 621 l 1,2,-1
 1042 418 l 1,3,-1
 138 418 l 1,0,-1
EndSplineSet
Validated: 1
EndChar

StartChar: emdash
Encoding: 8212 8212 177
Width: 1229
GlyphClass: 2
Flags: W
LayerCount: 2
Fore
SplineSet
-34 418 m 1,0,-1
 6 621 l 1,1,-1
 1254 621 l 1,2,-1
 1214 418 l 1,3,-1
 -34 418 l 1,0,-1
EndSplineSet
Validated: 1
EndChar

StartChar: quotedblleft
Encoding: 8220 8220 178
Width: 1229
GlyphClass: 2
Flags: W
LayerCount: 2
Fore
SplineSet
814 1484 m 1,0,-1
 525 862 l 1,1,-1
 200 862 l 1,2,-1
 631 1484 l 1,3,-1
 814 1484 l 1,0,-1
1273 1484 m 1,4,-1
 984 862 l 1,5,-1
 659 862 l 1,6,-1
 1090 1484 l 1,7,-1
 1273 1484 l 1,4,-1
EndSplineSet
Validated: 1
EndChar

StartChar: quotedblright
Encoding: 8221 8221 179
Width: 1229
GlyphClass: 2
Flags: W
LayerCount: 2
Fore
SplineSet
660 862 m 1,0,-1
 949 1484 l 1,1,-1
 1274 1484 l 1,2,-1
 843 862 l 1,3,-1
 660 862 l 1,0,-1
201 862 m 1,4,-1
 490 1484 l 1,5,-1
 815 1484 l 1,6,-1
 384 862 l 1,7,-1
 201 862 l 1,4,-1
EndSplineSet
Validated: 1
EndChar

StartChar: quoteleft
Encoding: 8216 8216 180
Width: 1229
GlyphClass: 2
Flags: W
LayerCount: 2
Fore
SplineSet
1044 1484 m 1,0,-1
 755 862 l 1,1,-1
 430 862 l 1,2,-1
 861 1484 l 1,3,-1
 1044 1484 l 1,0,-1
EndSplineSet
Validated: 1
EndChar

StartChar: quoteright
Encoding: 8217 8217 181
Width: 1229
GlyphClass: 2
Flags: W
LayerCount: 2
Fore
SplineSet
432 862 m 1,0,-1
 721 1484 l 1,1,-1
 1046 1484 l 1,2,-1
 615 862 l 1,3,-1
 432 862 l 1,0,-1
EndSplineSet
Validated: 1
EndChar

StartChar: divide
Encoding: 247 247 182
Width: 1229
GlyphClass: 2
Flags: W
LayerCount: 2
Fore
SplineSet
495 961 m 1,0,-1
 495 1194 l 1,1,-1
 734 1194 l 1,2,-1
 734 961 l 1,3,-1
 495 961 l 1,0,-1
101 569 m 1,4,-1
 101 793 l 1,5,-1
 1128 793 l 1,6,-1
 1128 569 l 1,7,-1
 101 569 l 1,4,-1
495 170 m 1,8,-1
 495 403 l 1,9,-1
 734 403 l 1,10,-1
 734 170 l 1,11,-1
 495 170 l 1,8,-1
EndSplineSet
Validated: 1
EndChar

StartChar: lozenge
Encoding: 9674 9674 183
Width: 1229
GlyphClass: 2
Flags: W
LayerCount: 2
Fore
SplineSet
665 0 m 1,0,-1
 561 0 l 1,1,-1
 110 721 l 1,2,-1
 561 1446 l 1,3,-1
 665 1446 l 1,4,-1
 1119 723 l 1,5,-1
 665 0 l 1,0,-1
614 1204 m 1,6,-1
 325 723 l 1,7,-1
 614 229 l 1,8,-1
 903 723 l 1,9,-1
 614 1204 l 1,6,-1
EndSplineSet
Validated: 1
EndChar

StartChar: fraction
Encoding: 8260 8260 186
Width: 1229
GlyphClass: 2
Flags: W
LayerCount: 2
Fore
SplineSet
224 0 m 1,0,-1
 62 0 l 1,1,-1
 1062 1349 l 1,2,-1
 1223 1349 l 1,3,-1
 224 0 l 1,0,-1
EndSplineSet
Validated: 1
EndChar

StartChar: Euro
Encoding: 8364 8364 187
Width: 1229
GlyphClass: 2
Flags: W
LayerCount: 2
Fore
SplineSet
878 463 m 1,0,-1
 505 463 l 1,1,2
 509 341 509 341 559 276 c 128,-1,3
 609 211 609 211 705 211 c 0,4,5
 784 211 784 211 855.5 241.5 c 128,-1,6
 927 272 927 272 1005 326 c 1,7,-1
 1101 142 l 1,8,9
 997 61 997 61 885 20.5 c 128,-1,10
 773 -20 773 -20 638 -20 c 0,11,12
 429 -20 429 -20 315.5 97.5 c 128,-1,13
 202 215 202 215 202 431 c 1,14,-1
 203 460 l 1,15,-1
 55 460 l 1,16,-1
 83 604 l 1,17,-1
 214 604 l 1,18,-1
 220 644 l 1,19,-1
 244 758 l 1,20,-1
 113 758 l 1,21,-1
 141 900 l 1,22,-1
 288 900 l 1,23,24
 371 1129 371 1129 530.5 1249.5 c 128,-1,25
 690 1370 690 1370 910 1370 c 0,26,27
 1157 1370 1157 1370 1295 1228 c 1,28,-1
 1124 1026 l 1,29,30
 1073 1075 1073 1075 1013 1107 c 128,-1,31
 953 1139 953 1139 876 1139 c 0,32,33
 781 1139 781 1139 709 1076 c 128,-1,34
 637 1013 637 1013 593 898 c 1,35,-1
 963 898 l 1,36,-1
 935 757 l 1,37,-1
 543 757 l 1,38,39
 519 674 519 674 515 605 c 1,40,-1
 906 605 l 1,41,-1
 878 463 l 1,0,-1
EndSplineSet
Validated: 1
EndChar

StartChar: guilsinglleft
Encoding: 8249 8249 188
Width: 1229
GlyphClass: 2
Flags: W
LayerCount: 2
Fore
SplineSet
536 141 m 1,0,-1
 349 502 l 1,1,-1
 362 573 l 1,2,-1
 692 940 l 1,3,-1
 928 940 l 1,4,-1
 921 903 l 1,5,-1
 595 537 l 1,6,-1
 781 176 l 1,7,-1
 774 141 l 1,8,-1
 536 141 l 1,0,-1
EndSplineSet
Validated: 1
EndChar

StartChar: guilsinglright
Encoding: 8250 8250 189
Width: 1229
GlyphClass: 2
Flags: W
LayerCount: 2
Fore
SplineSet
298 141 m 1,0,-1
 305 176 l 1,1,-1
 631 537 l 1,2,-1
 449 903 l 1,3,-1
 456 940 l 1,4,-1
 692 940 l 1,5,-1
 878 573 l 1,6,-1
 865 502 l 1,7,-1
 536 141 l 1,8,-1
 298 141 l 1,0,-1
EndSplineSet
Validated: 1
EndChar

StartChar: fi
Encoding: 64257 64257 190
Width: 1229
GlyphClass: 2
Flags: W
LayerCount: 2
Fore
SplineSet
521 892 m 1,0,-1
 348 0 l 1,1,-1
 68 0 l 1,2,-1
 241 892 l 1,3,-1
 95 892 l 1,4,-1
 132 1082 l 1,5,-1
 278 1082 l 1,6,-1
 300 1195 l 2,7,8
 330 1351 330 1351 431 1432.5 c 128,-1,9
 532 1514 532 1514 684 1514 c 0,10,11
 788 1514 788 1514 886 1486 c 1,12,-1
 850 1302 l 1,13,14
 772 1321 772 1321 709 1321 c 0,15,16
 654 1321 654 1321 623 1286.5 c 128,-1,17
 592 1252 592 1252 575 1169 c 2,18,-1
 558 1082 l 1,19,-1
 781 1082 l 1,20,-1
 744 892 l 1,21,-1
 521 892 l 1,0,-1
984 0 m 1,22,-1
 703 0 l 1,23,-1
 913 1082 l 1,24,-1
 1194 1082 l 1,25,-1
 984 0 l 1,22,-1
951 1277 m 1,26,-1
 991 1484 l 1,27,-1
 1272 1484 l 1,28,-1
 1232 1277 l 1,29,-1
 951 1277 l 1,26,-1
EndSplineSet
Validated: 1
EndChar

StartChar: fl
Encoding: 64258 64258 191
Width: 1229
GlyphClass: 2
Flags: W
LayerCount: 2
Fore
SplineSet
521 892 m 1,0,-1
 348 0 l 1,1,-1
 68 0 l 1,2,-1
 241 892 l 1,3,-1
 95 892 l 1,4,-1
 132 1082 l 1,5,-1
 278 1082 l 1,6,-1
 300 1195 l 2,7,8
 330 1351 330 1351 431 1432.5 c 128,-1,9
 532 1514 532 1514 684 1514 c 0,10,11
 788 1514 788 1514 886 1486 c 1,12,-1
 850 1302 l 1,13,14
 772 1321 772 1321 709 1321 c 0,15,16
 654 1321 654 1321 623 1286.5 c 128,-1,17
 592 1252 592 1252 575 1169 c 2,18,-1
 558 1082 l 1,19,-1
 781 1082 l 1,20,-1
 744 892 l 1,21,-1
 521 892 l 1,0,-1
703 0 m 1,22,-1
 991 1484 l 1,23,-1
 1272 1484 l 1,24,-1
 984 0 l 1,25,-1
 703 0 l 1,22,-1
EndSplineSet
Validated: 1
EndChar

StartChar: daggerdbl
Encoding: 8225 8225 192
Width: 1229
GlyphClass: 2
Flags: W
LayerCount: 2
Fore
SplineSet
598 980 m 1,0,-1
 253 953 l 1,1,-1
 293 1157 l 1,2,-1
 627 1128 l 1,3,-1
 680 1484 l 1,4,-1
 895 1484 l 1,5,-1
 810 1128 l 1,6,-1
 1177 1157 l 1,7,-1
 1137 953 l 1,8,-1
 781 980 l 1,9,-1
 688 635 l 1,10,-1
 648 293 l 1,11,-1
 1013 320 l 1,12,-1
 974 116 l 1,13,-1
 619 145 l 1,14,-1
 566 -211 l 1,15,-1
 351 -211 l 1,16,-1
 436 145 l 1,17,-1
 90 116 l 1,18,-1
 129 320 l 1,19,-1
 465 293 l 1,20,-1
 557 635 l 1,21,-1
 598 980 l 1,0,-1
EndSplineSet
Validated: 1
EndChar

StartChar: bulletoperator
Encoding: 8729 8729 193
Width: 1229
GlyphClass: 2
Flags: W
LayerCount: 2
Fore
SplineSet
446 417 m 1,0,-1
 505 722 l 1,1,-1
 793 722 l 1,2,-1
 734 417 l 1,3,-1
 446 417 l 1,0,-1
EndSplineSet
Validated: 1
EndChar

StartChar: quotesinglbase
Encoding: 8218 8218 194
Width: 1229
GlyphClass: 2
Flags: W
LayerCount: 2
Fore
SplineSet
143 -363 m 1,0,-1
 433 259 l 1,1,-1
 758 259 l 1,2,-1
 326 -363 l 1,3,-1
 143 -363 l 1,0,-1
EndSplineSet
Validated: 1
EndChar

StartChar: quotedblbase
Encoding: 8222 8222 195
Width: 1229
GlyphClass: 2
Flags: W
LayerCount: 2
Fore
SplineSet
421 -364 m 1,0,-1
 711 258 l 1,1,-1
 1036 258 l 1,2,-1
 604 -364 l 1,3,-1
 421 -364 l 1,0,-1
-38 -364 m 1,4,-1
 252 258 l 1,5,-1
 577 258 l 1,6,-1
 145 -364 l 1,7,-1
 -38 -364 l 1,4,-1
EndSplineSet
Validated: 1
EndChar

StartChar: perthousand
Encoding: 8240 8240 196
Width: 1229
GlyphClass: 2
Flags: W
LayerCount: 2
Fore
SplineSet
142 429 m 1,0,-1
 -18 429 l 1,1,-1
 700 1028 l 1,2,-1
 862 1028 l 1,3,-1
 142 429 l 1,0,-1
405 1411 m 0,4,5
 588 1411 588 1411 588 1223 c 0,6,7
 588 1158 588 1158 567.5 1075 c 128,-1,8
 547 992 547 992 507.5 932.5 c 128,-1,9
 468 873 468 873 411.5 843.5 c 128,-1,10
 355 814 355 814 285 814 c 0,11,12
 100 814 100 814 100 1008 c 0,13,14
 100 1100 100 1100 135 1203 c 128,-1,15
 170 1306 170 1306 235.5 1358.5 c 128,-1,16
 301 1411 301 1411 405 1411 c 0,4,5
438 1211 m 0,17,18
 438 1253 438 1253 423 1268 c 128,-1,19
 408 1283 408 1283 379 1283 c 0,20,21
 338 1283 338 1283 312 1249.5 c 128,-1,22
 286 1216 286 1216 269 1147.5 c 128,-1,23
 252 1079 252 1079 252 1031 c 0,24,25
 252 947 252 947 313 947 c 0,26,27
 350 947 350 947 377.5 984.5 c 128,-1,28
 405 1022 405 1022 421.5 1094 c 128,-1,29
 438 1166 438 1166 438 1211 c 0,17,18
506 597 m 0,30,31
 689 597 689 597 689 409 c 0,32,33
 689 344 689 344 668.5 261 c 128,-1,34
 648 178 648 178 608.5 118.5 c 128,-1,35
 569 59 569 59 512.5 29.5 c 128,-1,36
 456 0 456 0 386 0 c 0,37,38
 201 0 201 0 201 194 c 0,39,40
 201 286 201 286 236 389 c 128,-1,41
 271 492 271 492 336.5 544.5 c 128,-1,42
 402 597 402 597 506 597 c 0,30,31
539 397 m 0,43,44
 539 439 539 439 524 454 c 128,-1,45
 509 469 509 469 480 469 c 0,46,47
 439 469 439 469 413 435.5 c 128,-1,48
 387 402 387 402 370 333.5 c 128,-1,49
 353 265 353 265 353 217 c 0,50,51
 353 133 353 133 414 133 c 0,52,53
 451 133 451 133 478.5 170.5 c 128,-1,54
 506 208 506 208 522.5 280 c 128,-1,55
 539 352 539 352 539 397 c 0,43,44
1011 597 m 0,56,57
 1194 597 1194 597 1194 409 c 0,58,59
 1194 344 1194 344 1173.5 261 c 128,-1,60
 1153 178 1153 178 1113.5 118.5 c 128,-1,61
 1074 59 1074 59 1017.5 29.5 c 128,-1,62
 961 0 961 0 891 0 c 0,63,64
 706 0 706 0 706 194 c 0,65,66
 706 286 706 286 741 389 c 128,-1,67
 776 492 776 492 841.5 544.5 c 128,-1,68
 907 597 907 597 1011 597 c 0,56,57
1044 397 m 0,69,70
 1044 439 1044 439 1029 454 c 128,-1,71
 1014 469 1014 469 985 469 c 0,72,73
 944 469 944 469 918 435.5 c 128,-1,74
 892 402 892 402 875 333.5 c 128,-1,75
 858 265 858 265 858 217 c 0,76,77
 858 133 858 133 919 133 c 0,78,79
 956 133 956 133 983.5 170.5 c 128,-1,80
 1011 208 1011 208 1027.5 280 c 128,-1,81
 1044 352 1044 352 1044 397 c 0,69,70
EndSplineSet
Validated: 1
EndChar

StartChar: dotlessi
Encoding: 305 305 212
Width: 1229
GlyphClass: 2
Flags: W
LayerCount: 2
Fore
SplineSet
726 190 m 1,0,-1
 1079 190 l 1,1,-1
 1042 0 l 1,2,-1
 13 0 l 1,3,-1
 50 190 l 1,4,-1
 445 190 l 1,5,-1
 581 892 l 1,6,-1
 291 892 l 1,7,-1
 328 1082 l 1,8,-1
 899 1082 l 1,9,-1
 726 190 l 1,0,-1
EndSplineSet
Validated: 1
EndChar

StartChar: circumflex
Encoding: 710 710 213
Width: 1229
GlyphClass: 2
Flags: W
LayerCount: 2
Fore
SplineSet
1113 1211 m 1,0,-1
 1108 1183 l 1,1,-1
 949 1183 l 1,2,-1
 772 1317 l 1,3,-1
 768 1317 l 1,4,-1
 531 1183 l 1,5,-1
 371 1183 l 1,6,-1
 376 1211 l 1,7,-1
 683 1461 l 1,8,-1
 912 1461 l 1,9,-1
 1113 1211 l 1,0,-1
EndSplineSet
Validated: 1
EndChar

StartChar: tilde
Encoding: 732 732 214
Width: 1229
GlyphClass: 2
Flags: W
LayerCount: 2
Fore
SplineSet
906 1183 m 0,0,1
 862 1183 862 1183 821 1200.5 c 128,-1,2
 780 1218 780 1218 742 1239.5 c 128,-1,3
 704 1261 704 1261 670 1278.5 c 128,-1,4
 636 1296 636 1296 606 1296 c 0,5,6
 558 1296 558 1296 531.5 1270 c 128,-1,7
 505 1244 505 1244 486 1183 c 1,8,-1
 349 1183 l 1,9,10
 389 1336 389 1336 457.5 1401 c 128,-1,11
 526 1466 526 1466 629 1466 c 0,12,13
 674 1466 674 1466 716 1448.5 c 128,-1,14
 758 1431 758 1431 795.5 1409.5 c 128,-1,15
 833 1388 833 1388 866 1370.5 c 128,-1,16
 899 1353 899 1353 928 1353 c 0,17,18
 978 1353 978 1353 1003.5 1381 c 128,-1,19
 1029 1409 1029 1409 1049 1466 c 1,20,-1
 1184 1466 l 1,21,22
 1147 1316 1147 1316 1077 1249.5 c 128,-1,23
 1007 1183 1007 1183 906 1183 c 0,0,1
EndSplineSet
Validated: 1
EndChar

StartChar: firsttonechinese
Encoding: 713 713 215
Width: 1229
GlyphClass: 2
Flags: W
LayerCount: 2
Fore
SplineSet
469 1371 m 5,0,-1
 1081 1371 l 5,1,-1
 1049 1203 l 5,2,-1
 437 1203 l 5,3,-1
 469 1371 l 5,0,-1
EndSplineSet
Validated: 1
EndChar

StartChar: breve
Encoding: 728 728 216
Width: 1229
GlyphClass: 2
Flags: W
LayerCount: 2
Fore
SplineSet
737 1183 m 0,0,1
 589 1183 589 1183 513 1244.5 c 128,-1,2
 437 1306 437 1306 437 1420 c 0,3,4
 437 1450 437 1450 439 1461 c 1,5,-1
 602 1461 l 1,6,-1
 602 1451 l 2,7,8
 602 1340 602 1340 769 1340 c 0,9,10
 857 1340 857 1340 907 1369 c 128,-1,11
 957 1398 957 1398 983 1461 c 1,12,-1
 1147 1461 l 1,13,14
 1059 1183 1059 1183 737 1183 c 0,0,1
EndSplineSet
Validated: 1
EndChar

StartChar: dotaccent
Encoding: 729 729 217
Width: 1229
GlyphClass: 2
Flags: W
LayerCount: 2
Fore
SplineSet
615 1267 m 1,0,-1
 656 1474 l 1,1,-1
 937 1474 l 1,2,-1
 896 1267 l 1,3,-1
 615 1267 l 1,0,-1
EndSplineSet
Validated: 1
EndChar

StartChar: ring
Encoding: 730 730 218
Width: 1229
GlyphClass: 2
Flags: W
LayerCount: 2
Fore
SplineSet
732 1148 m 0,0,1
 636 1148 636 1148 580.5 1191.5 c 128,-1,2
 525 1235 525 1235 525 1310 c 0,3,4
 525 1369 525 1369 560 1426 c 128,-1,5
 595 1483 595 1483 661.5 1515 c 128,-1,6
 728 1547 728 1547 810 1547 c 0,7,8
 905 1547 905 1547 961 1505 c 128,-1,9
 1017 1463 1017 1463 1017 1386 c 0,10,11
 1017 1323 1017 1323 980 1266.5 c 128,-1,12
 943 1210 943 1210 878 1179 c 128,-1,13
 813 1148 813 1148 732 1148 c 0,0,1
875 1358 m 0,14,15
 875 1388 875 1388 850 1403.5 c 128,-1,16
 825 1419 825 1419 785 1419 c 0,17,18
 727 1419 727 1419 696.5 1392 c 128,-1,19
 666 1365 666 1365 666 1336 c 0,20,21
 666 1309 666 1309 690 1293 c 128,-1,22
 714 1277 714 1277 757 1277 c 0,23,24
 810 1277 810 1277 842.5 1301 c 128,-1,25
 875 1325 875 1325 875 1358 c 0,14,15
EndSplineSet
Validated: 1
EndChar

StartChar: cedilla
Encoding: 184 184 219
Width: 1229
GlyphClass: 2
Flags: W
LayerCount: 2
Fore
SplineSet
-1 -445 m 0,0,1
 -47 -445 -47 -445 -101 -439 c 1,2,-1
 -78 -321 l 1,3,4
 -46 -328 -46 -328 4 -328 c 0,5,6
 157 -328 157 -328 157 -245 c 0,7,8
 157 -220 157 -220 134.5 -205 c 128,-1,9
 112 -190 112 -190 46 -190 c 0,10,11
 8 -190 8 -190 -6 -192 c 1,12,-1
 100 0 l 1,13,-1
 243 0 l 1,14,-1
 183 -102 l 1,15,16
 342 -112 342 -112 342 -221 c 0,17,18
 342 -281 342 -281 305 -334.5 c 128,-1,19
 268 -388 268 -388 189 -416.5 c 128,-1,20
 110 -445 110 -445 -1 -445 c 0,0,1
EndSplineSet
Validated: 1
EndChar

StartChar: hungarumlaut
Encoding: 733 733 220
Width: 1229
GlyphClass: 2
Flags: W
LayerCount: 2
Fore
SplineSet
267 1182 m 1,0,-1
 125 1182 l 1,1,-1
 131 1216 l 1,2,-1
 404 1461 l 1,3,-1
 639 1461 l 1,4,-1
 631 1418 l 1,5,-1
 267 1182 l 1,0,-1
673 1182 m 1,6,-1
 531 1182 l 1,7,-1
 537 1216 l 1,8,-1
 810 1461 l 1,9,-1
 1045 1461 l 1,10,-1
 1037 1418 l 1,11,-1
 673 1182 l 1,6,-1
EndSplineSet
Validated: 1
EndChar

StartChar: ogonek
Encoding: 731 731 221
Width: 1229
GlyphClass: 2
Flags: W
LayerCount: 2
Fore
SplineSet
469 -425 m 0,0,1
 378 -425 378 -425 322.5 -385.5 c 128,-1,2
 267 -346 267 -346 267 -268 c 0,3,4
 267 -184 267 -184 325.5 -104 c 128,-1,5
 384 -24 384 -24 477 21 c 1,6,-1
 630 21 l 1,7,8
 551 -25 551 -25 504.5 -92.5 c 128,-1,9
 458 -160 458 -160 458 -212 c 0,10,11
 458 -238 458 -238 474.5 -260 c 128,-1,12
 491 -282 491 -282 536 -282 c 0,13,14
 591 -282 591 -282 653 -255 c 1,15,-1
 627 -392 l 1,16,17
 558 -425 558 -425 469 -425 c 0,0,1
EndSplineSet
Validated: 1
EndChar

StartChar: caron
Encoding: 711 711 222
Width: 1229
GlyphClass: 2
Flags: W
LayerCount: 2
Fore
SplineSet
858 1183 m 1,0,-1
 629 1183 l 1,1,-1
 419 1432 l 1,2,-1
 425 1461 l 1,3,-1
 585 1461 l 1,4,-1
 770 1327 l 1,5,-1
 774 1327 l 1,6,-1
 1003 1461 l 1,7,-1
 1162 1461 l 1,8,-1
 1156 1432 l 1,9,-1
 858 1183 l 1,0,-1
EndSplineSet
Validated: 1
EndChar

StartChar: Lslash
Encoding: 321 321 223
Width: 1229
GlyphClass: 2
Flags: W
LayerCount: 2
Fore
SplineSet
378 1349 m 1,0,-1
 673 1349 l 1,1,-1
 568 810 l 1,2,-1
 839 938 l 1,3,-1
 896 757 l 1,4,-1
 524 580 l 1,5,-1
 455 228 l 1,6,-1
 1071 228 l 1,7,-1
 1027 0 l 1,8,-1
 116 0 l 1,9,-1
 199 426 l 1,10,-1
 62 362 l 1,11,-1
 1 543 l 1,12,-1
 244 657 l 1,13,-1
 378 1349 l 1,0,-1
EndSplineSet
Validated: 1
EndChar

StartChar: lslash
Encoding: 322 322 224
Width: 1229
GlyphClass: 2
Flags: W
LayerCount: 2
Fore
SplineSet
874 950 m 1,0,-1
 1108 1071 l 1,1,-1
 1161 916 l 1,2,-1
 834 748 l 1,3,-1
 726 190 l 1,4,-1
 1079 190 l 1,5,-1
 1042 0 l 1,6,-1
 13 0 l 1,7,-1
 50 190 l 1,8,-1
 445 190 l 1,9,-1
 522 587 l 1,10,-1
 304 475 l 1,11,-1
 249 629 l 1,12,-1
 561 789 l 1,13,-1
 660 1294 l 1,14,-1
 370 1294 l 1,15,-1
 406 1484 l 1,16,-1
 977 1484 l 1,17,-1
 874 950 l 1,0,-1
EndSplineSet
Validated: 1
EndChar

StartChar: brokenbar
Encoding: 166 166 229
Width: 1229
GlyphClass: 2
Flags: W
LayerCount: 2
Fore
SplineSet
483 676 m 1,0,-1
 483 1454 l 1,1,-1
 745 1454 l 1,2,-1
 745 676 l 1,3,-1
 483 676 l 1,0,-1
483 -455 m 1,4,-1
 483 324 l 1,5,-1
 745 324 l 1,6,-1
 745 -455 l 1,7,-1
 483 -455 l 1,4,-1
EndSplineSet
Validated: 1
EndChar

StartChar: Eth
Encoding: 208 208 230
Width: 1229
GlyphClass: 2
Flags: W
LayerCount: 2
Fore
SplineSet
464 0 m 2,0,-1
 43 0 l 1,1,-1
 153 564 l 1,2,-1
 19 564 l 1,3,-1
 61 783 l 1,4,-1
 195 783 l 1,5,-1
 305 1349 l 1,6,-1
 666 1349 l 2,7,8
 1212 1349 1212 1349 1212 889 c 0,9,10
 1212 734 1212 734 1158 555.5 c 128,-1,11
 1104 377 1104 377 1006.5 252.5 c 128,-1,12
 909 128 909 128 771 64 c 128,-1,13
 633 0 633 0 464 0 c 2,0,-1
911 849 m 0,14,15
 911 993 911 993 837.5 1057 c 128,-1,16
 764 1121 764 1121 617 1121 c 2,17,-1
 556 1121 l 1,18,-1
 490 783 l 1,19,-1
 697 783 l 1,20,-1
 655 564 l 1,21,-1
 448 564 l 1,22,-1
 382 228 l 1,23,-1
 484 228 l 2,24,25
 803 228 803 228 893 685 c 0,26,27
 911 778 911 778 911 849 c 0,14,15
EndSplineSet
Validated: 1
EndChar

StartChar: eth
Encoding: 240 240 231
Width: 1229
GlyphClass: 2
Flags: W
LayerCount: 2
Fore
SplineSet
961 1266 m 1,0,1
 1154 1024 1154 1024 1154 728 c 0,2,3
 1154 580 1154 580 1107.5 432 c 128,-1,4
 1061 284 1061 284 976.5 184.5 c 128,-1,5
 892 85 892 85 771.5 32.5 c 128,-1,6
 651 -20 651 -20 498 -20 c 0,7,8
 288 -20 288 -20 173.5 77 c 128,-1,9
 59 174 59 174 59 354 c 0,10,11
 59 473 59 473 105 596.5 c 128,-1,12
 151 720 151 720 232.5 804 c 128,-1,13
 314 888 314 888 430.5 933.5 c 128,-1,14
 547 979 547 979 696 979 c 0,15,16
 774 979 774 979 826 959 c 1,17,18
 792 1077 792 1077 728 1176 c 1,19,-1
 473 1074 l 1,20,-1
 426 1229 l 1,21,-1
 627 1308 l 1,22,23
 553 1379 553 1379 403 1484 c 1,24,-1
 696 1484 l 1,25,26
 782 1436 782 1436 838 1390 c 1,27,-1
 1108 1499 l 1,28,-1
 1161 1345 l 1,29,-1
 961 1266 l 1,0,1
843 604 m 0,30,31
 843 698 843 698 800 742 c 128,-1,32
 757 786 757 786 663 786 c 0,33,34
 538 786 538 786 467.5 710.5 c 128,-1,35
 397 635 397 635 367 477 c 0,36,37
 354 412 354 412 354 359 c 0,38,39
 354 170 354 170 530 170 c 0,40,41
 638 170 638 170 704.5 223 c 128,-1,42
 771 276 771 276 807 390.5 c 128,-1,43
 843 505 843 505 843 604 c 0,30,31
EndSplineSet
Validated: 1
EndChar

StartChar: Thorn
Encoding: 222 222 234
Width: 1229
GlyphClass: 2
Flags: W
LayerCount: 2
Fore
SplineSet
592 256 m 2,0,-1
 377 256 l 1,1,-1
 327 0 l 1,2,-1
 32 0 l 1,3,-1
 294 1349 l 1,4,-1
 589 1349 l 1,5,-1
 544 1114 l 1,6,-1
 747 1114 l 2,7,8
 966 1114 966 1114 1083 1028 c 128,-1,9
 1200 942 1200 942 1200 784 c 0,10,11
 1200 645 1200 645 1123 520 c 128,-1,12
 1046 395 1046 395 906 325.5 c 128,-1,13
 766 256 766 256 592 256 c 2,0,-1
898 735 m 0,14,15
 898 811 898 811 842.5 858 c 128,-1,16
 787 905 787 905 673 905 c 2,17,-1
 503 905 l 1,18,-1
 417 465 l 1,19,-1
 595 465 l 2,20,21
 684 465 684 465 754 501.5 c 128,-1,22
 824 538 824 538 861 603.5 c 128,-1,23
 898 669 898 669 898 735 c 0,14,15
EndSplineSet
Validated: 1
EndChar

StartChar: thorn
Encoding: 254 254 235
Width: 1229
GlyphClass: 2
Flags: W
LayerCount: 2
Fore
SplineSet
326 1484 m 1,0,-1
 607 1484 l 1,1,-1
 527 1072 l 1,2,-1
 491 904 l 1,3,-1
 495 904 l 1,4,5
 644 1103 644 1103 854 1103 c 0,6,7
 998 1103 998 1103 1073.5 1008 c 128,-1,8
 1149 913 1149 913 1149 740 c 0,9,10
 1149 612 1149 612 1109 462.5 c 128,-1,11
 1069 313 1069 313 998.5 204.5 c 128,-1,12
 928 96 928 96 831.5 38 c 128,-1,13
 735 -20 735 -20 618 -20 c 0,14,15
 520 -20 520 -20 450.5 30 c 128,-1,16
 381 80 381 80 352 172 c 1,17,-1
 346 172 l 1,18,19
 346 156 346 156 336.5 100.5 c 128,-1,20
 327 45 327 45 317 -10 c 2,21,-1
 236 -425 l 1,22,-1
 -45 -425 l 1,23,-1
 326 1484 l 1,0,-1
863 706 m 0,24,25
 863 908 863 908 707 908 c 0,26,27
 606 908 606 908 530.5 812 c 128,-1,28
 455 716 455 716 419 537 c 0,29,30
 404 458 404 458 404 393 c 0,31,32
 404 284 404 284 446 228 c 128,-1,33
 488 172 488 172 562 172 c 0,34,35
 656 172 656 172 720.5 242.5 c 128,-1,36
 785 313 785 313 824 455 c 128,-1,37
 863 597 863 597 863 706 c 0,24,25
EndSplineSet
Validated: 1
EndChar

StartChar: minus
Encoding: 8722 8722 236
Width: 1229
GlyphClass: 2
Flags: W
LayerCount: 2
Fore
SplineSet
101 569 m 1,0,-1
 101 793 l 1,1,-1
 1128 793 l 1,2,-1
 1128 569 l 1,3,-1
 101 569 l 1,0,-1
EndSplineSet
Validated: 1
EndChar

StartChar: multiply
Encoding: 215 215 237
Width: 1229
GlyphClass: 2
Flags: W
LayerCount: 2
Fore
SplineSet
102 326 m 1,0,-1
 458 684 l 1,1,-1
 106 1036 l 1,2,-1
 264 1192 l 1,3,-1
 616 842 l 1,4,-1
 968 1194 l 1,5,-1
 1126 1036 l 1,6,-1
 774 682 l 1,7,-1
 1126 332 l 1,8,-1
 968 172 l 1,9,-1
 616 526 l 1,10,-1
 260 168 l 1,11,-1
 102 326 l 1,0,-1
EndSplineSet
Validated: 1
EndChar

StartChar: onesuperior
Encoding: 185 185 238
Width: 1229
GlyphClass: 2
Flags: W
LayerCount: 2
Fore
SplineSet
279 563 m 1,0,-1
 307 705 l 1,1,-1
 543 705 l 1,2,-1
 646 1235 l 1,3,4
 614 1188 614 1188 535.5 1154 c 128,-1,5
 457 1120 457 1120 393 1120 c 1,6,-1
 423 1274 l 1,7,8
 497 1274 497 1274 573.5 1313 c 128,-1,9
 650 1352 650 1352 690 1410 c 1,10,-1
 894 1410 l 1,11,-1
 757 705 l 1,12,-1
 977 705 l 1,13,-1
 949 563 l 1,14,-1
 279 563 l 1,0,-1
EndSplineSet
Validated: 1
EndChar

StartChar: twosuperior
Encoding: 178 178 239
Width: 1229
GlyphClass: 2
Flags: W
LayerCount: 2
Fore
SplineSet
281 563 m 1,0,-1
 309 705 l 1,1,2
 402 844 402 844 626 969 c 0,3,4
 743 1035 743 1035 794 1084.5 c 128,-1,5
 845 1134 845 1134 845 1198 c 0,6,7
 845 1273 845 1273 766 1273 c 0,8,9
 667 1273 667 1273 633 1158 c 1,10,-1
 406 1164 l 1,11,12
 446 1283 446 1283 550 1352.5 c 128,-1,13
 654 1422 654 1422 795 1422 c 0,14,15
 931 1422 931 1422 1005.5 1371.5 c 128,-1,16
 1080 1321 1080 1321 1080 1226 c 0,17,18
 1080 1046 1080 1046 844 913 c 0,19,20
 702 833 702 833 652.5 798 c 128,-1,21
 603 763 603 763 578 725 c 1,22,-1
 1003 725 l 1,23,-1
 971 563 l 1,24,-1
 281 563 l 1,0,-1
EndSplineSet
Validated: 1
EndChar

StartChar: threesuperior
Encoding: 179 179 240
Width: 1229
GlyphClass: 2
Flags: W
LayerCount: 2
Fore
SplineSet
626 551 m 0,0,1
 474 551 474 551 393.5 605 c 128,-1,2
 313 659 313 659 313 771 c 0,3,4
 313 789 313 789 314 795 c 1,5,-1
 538 810 l 1,6,-1
 537 796 l 1,7,8
 537 700 537 700 651 700 c 0,9,10
 720 700 720 700 758 739.5 c 128,-1,11
 796 779 796 779 796 838 c 0,12,13
 796 921 796 921 651 921 c 2,14,-1
 585 921 l 1,15,-1
 614 1069 l 1,16,-1
 674 1069 l 2,17,18
 758 1069 758 1069 801.5 1104.5 c 128,-1,19
 845 1140 845 1140 846 1199 c 1,20,21
 846 1272 846 1272 757 1272 c 0,22,23
 708 1272 708 1272 672.5 1245.5 c 128,-1,24
 637 1219 637 1219 622 1167 c 1,25,-1
 407 1181 l 1,26,27
 443 1294 443 1294 545.5 1357.5 c 128,-1,28
 648 1421 648 1421 792 1421 c 0,29,30
 924 1421 924 1421 998 1372 c 128,-1,31
 1072 1323 1072 1323 1072 1238 c 0,32,33
 1072 1155 1072 1155 1016 1088.5 c 128,-1,34
 960 1022 960 1022 850 1000 c 1,35,-1
 850 998 l 1,36,37
 939 987 939 987 977.5 944 c 128,-1,38
 1016 901 1016 901 1016 841 c 0,39,40
 1016 763 1016 763 968.5 694 c 128,-1,41
 921 625 921 625 834.5 588 c 128,-1,42
 748 551 748 551 626 551 c 0,0,1
EndSplineSet
Validated: 1
EndChar

StartChar: franc
Encoding: 8355 8355 244
Width: 1229
GlyphClass: 2
Flags: W
LayerCount: 2
Fore
SplineSet
579 1141 m 1,0,-1
 513 805 l 1,1,-1
 1150 805 l 1,2,-1
 1110 597 l 1,3,-1
 473 597 l 1,4,-1
 436 407 l 1,5,-1
 750 407 l 1,6,-1
 721 258 l 1,7,-1
 407 258 l 1,8,-1
 357 0 l 1,9,-1
 72 0 l 1,10,-1
 122 258 l 1,11,-1
 -18 258 l 1,12,-1
 11 407 l 1,13,-1
 151 407 l 1,14,-1
 334 1349 l 1,15,-1
 1289 1349 l 1,16,-1
 1249 1141 l 1,17,-1
 579 1141 l 1,0,-1
EndSplineSet
Validated: 1
EndChar

StartChar: dcroat
Encoding: 273 273 254
Width: 1229
GlyphClass: 2
Flags: W
LayerCount: 2
Fore
SplineSet
1333 1180 m 1,0,-1
 1200 1180 l 1,1,-1
 1017 236 l 2,2,3
 1005 177 1005 177 979 0 c 1,4,-1
 707 0 l 1,5,-1
 707 8 l 2,6,7
 707 30 707 30 714 89 c 128,-1,8
 721 148 721 148 726 176 c 1,9,-1
 722 176 l 1,10,11
 654 76 654 76 567.5 28 c 128,-1,12
 481 -20 481 -20 368 -20 c 0,13,14
 224 -20 224 -20 146.5 73 c 128,-1,15
 69 166 69 166 69 338 c 0,16,17
 69 462 69 462 109 609.5 c 128,-1,18
 149 757 149 757 217.5 859 c 128,-1,19
 286 961 286 961 380 1014.5 c 128,-1,20
 474 1068 474 1068 591 1068 c 0,21,22
 699 1068 699 1068 768.5 1018.5 c 128,-1,23
 838 969 838 969 860 877 c 1,24,-1
 862 877 l 1,25,-1
 919 1180 l 1,26,-1
 637 1180 l 1,27,-1
 670 1349 l 1,28,-1
 952 1349 l 1,29,-1
 978 1484 l 1,30,-1
 1259 1484 l 1,31,-1
 1233 1349 l 1,32,-1
 1366 1349 l 1,33,-1
 1333 1180 l 1,0,-1
813 672 m 0,34,35
 813 772 813 772 772 824.5 c 128,-1,36
 731 877 731 877 653 877 c 0,37,38
 562 877 562 877 500 809.5 c 128,-1,39
 438 742 438 742 401.5 607.5 c 128,-1,40
 365 473 365 473 365 368 c 0,41,42
 365 172 365 172 514 172 c 0,43,44
 616 172 616 172 690.5 267.5 c 128,-1,45
 765 363 765 363 797 530 c 0,46,47
 813 610 813 610 813 672 c 0,34,35
EndSplineSet
Validated: 1
EndChar

StartChar: dcaron
Encoding: 271 271 262
Width: 1229
GlyphClass: 2
Flags: W
LayerCount: 2
Fore
SplineSet
535 0 m 1,0,-1
 535 8 l 2,1,2
 535 30 535 30 542 89 c 128,-1,3
 549 148 549 148 554 176 c 1,4,-1
 550 176 l 1,5,6
 483 78 483 78 410.5 29 c 128,-1,7
 338 -20 338 -20 246 -20 c 0,8,9
 133 -20 133 -20 70 72.5 c 128,-1,10
 7 165 7 165 7 334 c 0,11,12
 7 514 7 514 71.5 704 c 128,-1,13
 136 894 136 894 241.5 997 c 128,-1,14
 347 1100 347 1100 475 1100 c 0,15,16
 648 1100 648 1100 695 909 c 1,17,-1
 697 909 l 1,18,-1
 729 1087 l 1,19,-1
 806 1484 l 1,20,-1
 1077 1484 l 1,21,-1
 835 236 l 2,22,23
 823 177 823 177 797 0 c 1,24,-1
 535 0 l 1,0,-1
647 715 m 0,25,26
 647 805 647 805 618 857 c 128,-1,27
 589 909 589 909 538 909 c 0,28,29
 473 909 473 909 416.5 827 c 128,-1,30
 360 745 360 745 326 600 c 128,-1,31
 292 455 292 455 292 356 c 0,32,33
 292 264 292 264 318.5 218 c 128,-1,34
 345 172 345 172 392 172 c 0,35,36
 437 172 437 172 483 216.5 c 128,-1,37
 529 261 529 261 567 344 c 128,-1,38
 605 427 605 427 628 546 c 0,39,40
 647 644 647 644 647 715 c 0,25,26
1085 1129 m 1,41,-1
 1092 1162 l 1,42,-1
 1183 1484 l 1,43,-1
 1414 1484 l 1,44,-1
 1407 1447 l 1,45,-1
 1224 1129 l 1,46,-1
 1085 1129 l 1,41,-1
EndSplineSet
Validated: 1
EndChar

StartChar: lacute
Encoding: 314 314 269
Width: 1229
GlyphClass: 2
Flags: W
LayerCount: 2
Fore
SplineSet
726 190 m 1,0,-1
 1079 190 l 1,1,-1
 1042 0 l 1,2,-1
 13 0 l 1,3,-1
 50 190 l 1,4,-1
 445 190 l 1,5,-1
 633 1159 l 1,6,-1
 343 1159 l 1,7,-1
 380 1349 l 1,8,-1
 951 1349 l 1,9,-1
 726 190 l 1,0,-1
669 1431 m 1,10,-1
 675 1462 l 1,11,-1
 974 1705 l 1,12,-1
 1232 1705 l 1,13,-1
 1224 1662 l 1,14,-1
 839 1431 l 1,15,-1
 669 1431 l 1,10,-1
EndSplineSet
Validated: 1
EndChar

StartChar: Gamma
Encoding: 915 915 298
Width: 1229
GlyphClass: 2
Flags: W
LayerCount: 2
Fore
SplineSet
1301 1349 m 1,0,-1
 1257 1121 l 1,1,-1
 585 1121 l 1,2,-1
 367 1 l 1,3,-1
 72 1 l 1,4,-1
 334 1349 l 1,5,-1
 1301 1349 l 1,0,-1
EndSplineSet
Validated: 1
EndChar

StartChar: Theta
Encoding: 920 920 299
Width: 1229
GlyphClass: 2
Flags: W
LayerCount: 2
Fore
SplineSet
840 787 m 1,0,-1
 798 573 l 1,1,-1
 443 573 l 1,2,-1
 485 787 l 1,3,-1
 840 787 l 1,0,-1
506 -20 m 0,4,5
 291 -20 291 -20 178 97.5 c 128,-1,6
 65 215 65 215 65 447 c 0,7,8
 65 609 65 609 115.5 793 c 128,-1,9
 166 977 166 977 258 1106.5 c 128,-1,10
 350 1236 350 1236 481 1303 c 128,-1,11
 612 1370 612 1370 776 1370 c 0,12,13
 990 1370 990 1370 1104 1255 c 128,-1,14
 1218 1140 1218 1140 1218 910 c 0,15,16
 1218 747 1218 747 1167 562.5 c 128,-1,17
 1116 378 1116 378 1022 245.5 c 128,-1,18
 928 113 928 113 797.5 46.5 c 128,-1,19
 667 -20 667 -20 506 -20 c 0,4,5
926 870 m 0,20,21
 926 1006 926 1006 875 1072 c 128,-1,22
 824 1138 824 1138 731 1138 c 0,23,24
 624 1138 624 1138 540 1050 c 128,-1,25
 456 962 456 962 407 799 c 128,-1,26
 358 636 358 636 358 488 c 0,27,28
 358 351 358 351 408 281.5 c 128,-1,29
 458 212 458 212 551 212 c 0,30,31
 657 212 657 212 742.5 303.5 c 128,-1,32
 828 395 828 395 877 562.5 c 128,-1,33
 926 730 926 730 926 870 c 0,20,21
EndSplineSet
Validated: 1
EndChar

StartChar: Phi
Encoding: 934 934 300
Width: 1229
GlyphClass: 2
Flags: W
LayerCount: 2
Fore
SplineSet
1005 795 m 0,0,1
 1005 886 1005 886 961.5 939 c 128,-1,2
 918 992 918 992 841 992 c 2,3,-1
 822 992 l 1,4,-1
 706 397 l 1,5,-1
 732 397 l 2,6,7
 805 397 805 397 868 453 c 128,-1,8
 931 509 931 509 968 605.5 c 128,-1,9
 1005 702 1005 702 1005 795 c 0,0,1
389 -11 m 1,10,-1
 429 198 l 1,11,-1
 405 198 l 2,12,13
 233 198 233 198 131 302 c 128,-1,14
 29 406 29 406 29 582 c 0,15,16
 29 696 29 696 70 812 c 128,-1,17
 111 928 111 928 189 1014 c 128,-1,18
 267 1100 267 1100 375.5 1145.5 c 128,-1,19
 484 1191 484 1191 611 1191 c 2,20,-1
 623 1191 l 1,21,-1
 655 1359 l 1,22,-1
 893 1359 l 1,23,-1
 861 1191 l 1,24,-1
 873 1191 l 2,25,26
 1059 1191 1059 1191 1162.5 1097 c 128,-1,27
 1266 1003 1266 1003 1266 831 c 0,28,29
 1266 715 1266 715 1224.5 599.5 c 128,-1,30
 1183 484 1183 484 1103 392 c 128,-1,31
 1023 300 1023 300 917 249 c 128,-1,32
 811 198 811 198 691 198 c 2,33,-1
 667 198 l 1,34,-1
 627 -11 l 1,35,-1
 389 -11 l 1,10,-1
287 603 m 0,36,37
 287 504 287 504 330 450.5 c 128,-1,38
 373 397 373 397 442 397 c 2,39,-1
 468 397 l 1,40,-1
 584 992 l 1,41,-1
 565 992 l 2,42,43
 486 992 486 992 422 938 c 128,-1,44
 358 884 358 884 322.5 791 c 128,-1,45
 287 698 287 698 287 603 c 0,36,37
EndSplineSet
Validated: 1
EndChar

StartChar: alpha
Encoding: 945 945 301
Width: 1229
GlyphClass: 2
Flags: W
LayerCount: 2
Fore
SplineSet
791 237 m 1,0,1
 701 101 701 101 603.5 40.5 c 128,-1,2
 506 -20 506 -20 382 -20 c 0,3,4
 47 -20 47 -20 47 331 c 0,5,6
 47 422 47 422 69 536 c 0,7,8
 181 1102 181 1102 626 1102 c 0,9,10
 756 1102 756 1102 838 1036.5 c 128,-1,11
 920 971 920 971 945 847 c 1,12,-1
 948 847 l 1,13,14
 999 974 999 974 1068 1082 c 1,15,-1
 1333 1082 l 1,16,17
 1262 987 1262 987 1180.5 830 c 128,-1,18
 1099 673 1099 673 1062 556 c 1,19,20
 1053 459 1053 459 1053 365 c 0,21,22
 1053 170 1053 170 1090 0 c 1,23,-1
 820 0 l 1,24,25
 795 114 795 114 795 237 c 1,26,-1
 791 237 l 1,0,1
342 347 m 0,27,28
 342 256 342 256 374.5 214.5 c 128,-1,29
 407 173 407 173 475 173 c 0,30,31
 563 173 563 173 646.5 273.5 c 128,-1,32
 730 374 730 374 781 542 c 1,33,-1
 784 623 l 1,34,35
 784 763 784 763 743.5 835.5 c 128,-1,36
 703 908 703 908 625 908 c 0,37,38
 535 908 535 908 477 838 c 128,-1,39
 419 768 419 768 380.5 609.5 c 128,-1,40
 342 451 342 451 342 347 c 0,27,28
EndSplineSet
Validated: 1
EndChar

StartChar: delta
Encoding: 948 948 302
Width: 1229
GlyphClass: 2
Flags: W
LayerCount: 2
Fore
SplineSet
855 583 m 0,0,1
 855 747 855 747 728 903 c 1,2,3
 607 863 607 863 520.5 785 c 128,-1,4
 434 707 434 707 389 599 c 128,-1,5
 344 491 344 491 344 383 c 0,6,7
 344 282 344 282 392.5 229 c 128,-1,8
 441 176 441 176 531 176 c 0,9,10
 631 176 631 176 704 228 c 128,-1,11
 777 280 777 280 816 381.5 c 128,-1,12
 855 483 855 483 855 583 c 0,0,1
871 1294 m 1,13,-1
 725 1301 l 1,14,-1
 991 1008 l 2,15,16
 1066 925 1066 925 1107.5 832 c 128,-1,17
 1149 739 1149 739 1149 622 c 0,18,19
 1149 548 1149 548 1135 483 c 1,20,21
 1106 335 1106 335 1019 220.5 c 128,-1,22
 932 106 932 106 797 43 c 128,-1,23
 662 -20 662 -20 498 -20 c 0,24,25
 282 -20 282 -20 166.5 78.5 c 128,-1,26
 51 177 51 177 51 357 c 0,27,28
 51 410 51 410 64 481 c 1,29,30
 140 863 140 863 635 1023 c 1,31,-1
 384 1337 l 1,32,-1
 412 1484 l 1,33,-1
 1265 1484 l 1,34,-1
 1229 1294 l 1,35,-1
 871 1294 l 1,13,-1
EndSplineSet
Validated: 1
EndChar

StartChar: epsilon
Encoding: 949 949 303
Width: 1229
GlyphClass: 2
Flags: W
LayerCount: 2
Fore
SplineSet
558 168 m 0,0,1
 650 168 650 168 746 208.5 c 128,-1,2
 842 249 842 249 928 325 c 1,3,-1
 1064 185 l 1,4,5
 823 -20 823 -20 512 -20 c 0,6,7
 307 -20 307 -20 192.5 48 c 128,-1,8
 78 116 78 116 78 241 c 0,9,10
 78 331 78 331 129.5 398 c 128,-1,11
 181 465 181 465 270 507.5 c 128,-1,12
 359 550 359 550 462 558 c 1,13,-1
 463 560 l 1,14,15
 356 570 356 570 284.5 629 c 128,-1,16
 213 688 213 688 213 773 c 0,17,18
 213 863 213 863 282.5 939.5 c 128,-1,19
 352 1016 352 1016 479.5 1059 c 128,-1,20
 607 1102 607 1102 766 1102 c 0,21,22
 1075 1102 1075 1102 1189 913 c 1,23,-1
 984 790 l 1,24,25
 948 852 948 852 879.5 887.5 c 128,-1,26
 811 923 811 923 727 923 c 0,27,28
 612 923 612 923 546 883 c 128,-1,29
 480 843 480 843 480 780 c 0,30,31
 480 652 480 652 861 652 c 1,32,-1
 826 475 l 1,33,34
 610 475 610 475 492 427.5 c 128,-1,35
 374 380 374 380 373 286 c 0,36,37
 373 237 373 237 417 202.5 c 128,-1,38
 461 168 461 168 558 168 c 0,0,1
EndSplineSet
Validated: 1
EndChar

StartChar: sigma
Encoding: 963 963 304
Width: 1229
GlyphClass: 2
Flags: W
LayerCount: 2
Fore
SplineSet
499 -20 m 0,0,1
 288 -20 288 -20 174.5 81 c 128,-1,2
 61 182 61 182 61 373 c 0,3,4
 61 508 61 508 110 646.5 c 128,-1,5
 159 785 159 785 256 884 c 128,-1,6
 353 983 353 983 492 1032.5 c 128,-1,7
 631 1082 631 1082 804 1082 c 2,8,-1
 1326 1082 l 1,9,-1
 1289 892 l 1,10,-1
 1154 892 l 1,11,-1
 1032 898 l 1,12,-1
 1031 894 l 1,13,14
 1125 736 1125 736 1125 572 c 0,15,16
 1125 411 1125 411 1047.5 271.5 c 128,-1,17
 970 132 970 132 826 56 c 128,-1,18
 682 -20 682 -20 499 -20 c 0,0,1
843 654 m 0,19,20
 843 785 843 785 802 892 c 1,21,-1
 748 892 l 2,22,23
 666 892 666 892 591 852.5 c 128,-1,24
 516 813 516 813 462 739 c 128,-1,25
 408 665 408 665 382.5 570 c 128,-1,26
 357 475 357 475 357 387 c 0,27,28
 357 279 357 279 401.5 225.5 c 128,-1,29
 446 172 446 172 529 172 c 0,30,31
 623 172 623 172 694.5 233 c 128,-1,32
 766 294 766 294 804.5 407 c 128,-1,33
 843 520 843 520 843 654 c 0,19,20
EndSplineSet
Validated: 1
EndChar

StartChar: tau
Encoding: 964 964 305
Width: 1229
GlyphClass: 2
Flags: W
LayerCount: 2
Fore
SplineSet
448 892 m 2,0,1
 367 892 367 892 292 880.5 c 128,-1,2
 217 869 217 869 189 855 c 1,3,-1
 228 1053 l 1,4,5
 257 1065 257 1065 309.5 1073.5 c 128,-1,6
 362 1082 362 1082 416 1082 c 2,7,-1
 1175 1082 l 1,8,-1
 1138 892 l 1,9,-1
 793 892 l 1,10,-1
 681 312 l 2,11,12
 675 282 675 282 675 260 c 0,13,14
 675 211 675 211 701.5 194 c 128,-1,15
 728 177 728 177 779 177 c 0,16,17
 820 177 820 177 884 185 c 1,18,-1
 848 2 l 1,19,20
 816 -7 816 -7 752 -14 c 128,-1,21
 688 -21 688 -21 647 -21 c 0,22,23
 509 -21 509 -21 445.5 25.5 c 128,-1,24
 382 72 382 72 382 170 c 0,25,26
 382 206 382 206 391 251 c 2,27,-1
 515 892 l 1,28,-1
 448 892 l 2,0,1
EndSplineSet
Validated: 1
EndChar

StartChar: phi
Encoding: 966 966 306
Width: 1229
GlyphClass: 2
Flags: W
LayerCount: 2
Fore
SplineSet
528 -425 m 1,0,-1
 310 -425 l 1,1,-1
 389 -20 l 1,2,3
 211 -12 211 -12 117.5 88 c 128,-1,4
 24 188 24 188 24 369 c 0,5,6
 24 486 24 486 59 617 c 128,-1,7
 94 748 94 748 160 847 c 128,-1,8
 226 946 226 946 323.5 1009.5 c 128,-1,9
 421 1073 421 1073 560 1106 c 1,10,-1
 546 927 l 1,11,12
 463 907 463 907 399.5 831 c 128,-1,13
 336 755 336 755 298 629 c 128,-1,14
 260 503 260 503 260 387 c 0,15,16
 260 179 260 179 425 167 c 1,17,-1
 529 702 l 2,18,19
 568 900 568 900 673.5 1002 c 128,-1,20
 779 1104 779 1104 943 1104 c 0,21,22
 1070 1104 1070 1104 1140.5 1010.5 c 128,-1,23
 1211 917 1211 917 1211 749 c 0,24,25
 1211 618 1211 618 1170.5 473.5 c 128,-1,26
 1130 329 1130 329 1050 219 c 128,-1,27
 970 109 970 109 857.5 49.5 c 128,-1,28
 745 -10 745 -10 608 -18 c 1,29,-1
 528 -425 l 1,0,-1
981 775 m 0,30,31
 981 930 981 930 905 930 c 0,32,33
 848 930 848 930 809.5 875.5 c 128,-1,34
 771 821 771 821 747 699 c 2,35,-1
 643 166 l 1,36,37
 751 171 751 171 824 250.5 c 128,-1,38
 897 330 897 330 939 487 c 128,-1,39
 981 644 981 644 981 775 c 0,30,31
EndSplineSet
Validated: 1
EndChar

StartChar: underscoredbl
Encoding: 8215 8215 307
Width: 1229
GlyphClass: 2
Flags: W
LayerCount: 2
Fore
SplineSet
-153 -220 m 1,0,-1
 -134 -124 l 1,1,-1
 1104 -124 l 1,2,-1
 1085 -220 l 1,3,-1
 -153 -220 l 1,0,-1
-193 -425 m 1,4,-1
 -174 -329 l 1,5,-1
 1064 -329 l 1,6,-1
 1045 -425 l 1,7,-1
 -193 -425 l 1,4,-1
EndSplineSet
Validated: 1
EndChar

StartChar: exclamdbl
Encoding: 8252 8252 308
Width: 1229
GlyphClass: 2
Flags: W
LayerCount: 2
Fore
SplineSet
422 426 m 1,0,-1
 192 426 l 1,1,-1
 339 1349 l 1,2,-1
 633 1349 l 1,3,-1
 422 426 l 1,0,-1
77 0 m 1,4,-1
 129 270 l 1,5,-1
 417 270 l 1,6,-1
 365 0 l 1,7,-1
 77 0 l 1,4,-1
992 426 m 1,8,-1
 762 426 l 1,9,-1
 909 1349 l 1,10,-1
 1203 1349 l 1,11,-1
 992 426 l 1,8,-1
647 0 m 1,12,-1
 699 270 l 1,13,-1
 987 270 l 1,14,-1
 935 0 l 1,15,-1
 647 0 l 1,12,-1
EndSplineSet
Validated: 1
EndChar

StartChar: nsuperior
Encoding: 8319 8319 309
Width: 1229
GlyphClass: 2
Flags: W
LayerCount: 2
Fore
SplineSet
746 519 m 5,0,-1
 821 903 l 6,1,2
 829 947 829 947 829 976 c 4,3,4
 829 1021 829 1021 809 1039 c 132,-1,5
 789 1057 789 1057 744 1057 c 4,6,7
 682 1057 682 1057 636 1009 c 132,-1,8
 590 961 590 961 573 870 c 6,9,-1
 505 519 l 5,10,-1
 327 519 l 5,11,-1
 426 1030 l 5,12,-1
 449 1169 l 5,13,-1
 615 1169 l 5,14,15
 615 1136 615 1136 602 1058 c 5,16,-1
 605 1058 l 5,17,18
 646 1114 646 1114 699.5 1147.5 c 132,-1,19
 753 1181 753 1181 837 1181 c 4,20,21
 928 1181 928 1181 972.5 1144.5 c 132,-1,22
 1017 1108 1017 1108 1017 1028 c 4,23,24
 1017 994 1017 994 1009 952 c 6,25,-1
 925 519 l 5,26,-1
 746 519 l 5,0,-1
EndSplineSet
Validated: 1
EndChar

StartChar: peseta
Encoding: 8359 8359 310
Width: 1229
GlyphClass: 2
Flags: W
LayerCount: 2
Fore
SplineSet
289 654 m 2,0,-1
 248 654 l 1,1,-1
 121 0 l 1,2,-1
 -60 0 l 1,3,-1
 202 1349 l 1,4,-1
 412 1349 l 2,5,6
 684 1349 684 1349 684 1113 c 0,7,8
 684 998 684 998 633 887 c 128,-1,9
 582 776 582 776 492 715 c 128,-1,10
 402 654 402 654 289 654 c 2,0,-1
911 -10 m 0,11,12
 840 -10 840 -10 798 33 c 128,-1,13
 756 76 756 76 756 150 c 2,14,-1
 756 163 l 1,15,-1
 877 180 l 1,16,17
 877 92 877 92 933 92 c 0,18,19
 959 92 959 92 974.5 111.5 c 128,-1,20
 990 131 990 131 994 151 c 1,21,-1
 997 174 l 1,22,23
 997 226 997 226 927 282 c 1,24,25
 866 333 866 333 845.5 371.5 c 128,-1,26
 825 410 825 410 825 451 c 0,27,28
 825 540 825 540 888.5 602 c 128,-1,29
 952 664 952 664 1050 664 c 0,30,31
 1113 664 1113 664 1151.5 622.5 c 128,-1,32
 1190 581 1190 581 1190 514 c 0,33,34
 1190 501 1190 501 1189 496 c 1,35,-1
 1068 484 l 1,36,-1
 1068 494 l 2,37,38
 1068 523 1068 523 1057.5 543 c 128,-1,39
 1047 563 1047 563 1028 563 c 0,40,41
 988 563 988 563 972 506 c 1,42,-1
 970 488 l 1,43,44
 970 462 970 462 988 437 c 128,-1,45
 1006 412 1006 412 1051 377 c 0,46,47
 1144 306 1144 306 1144 218 c 0,48,49
 1144 163 1144 163 1113.5 108 c 128,-1,50
 1083 53 1083 53 1029.5 21.5 c 128,-1,51
 976 -10 976 -10 911 -10 c 0,11,12
499 1080 m 0,52,53
 499 1140 499 1140 468 1168 c 128,-1,54
 437 1196 437 1196 369 1196 c 2,55,-1
 353 1196 l 1,56,-1
 277 805 l 1,57,-1
 301 805 l 2,58,59
 363 805 363 805 406.5 840.5 c 128,-1,60
 450 876 450 876 474.5 946 c 128,-1,61
 499 1016 499 1016 499 1080 c 0,52,53
447 543 m 1,62,-1
 467 650 l 1,63,-1
 547 650 l 1,64,-1
 634 792 l 1,65,-1
 725 792 l 1,66,-1
 697 650 l 1,67,-1
 828 650 l 1,68,-1
 808 543 l 1,69,-1
 677 543 l 1,70,-1
 606 179 l 1,71,-1
 603 150 l 1,72,73
 603 101 603 101 649 101 c 0,74,75
 694 101 694 101 722 108 c 1,76,-1
 701 1 l 1,77,78
 648 -10 648 -10 596 -10 c 0,79,80
 524 -10 524 -10 484.5 20.5 c 128,-1,81
 445 51 445 51 445 111 c 1,82,-1
 449 151 l 1,83,-1
 526 543 l 1,84,-1
 447 543 l 1,62,-1
EndSplineSet
Validated: 1
EndChar

StartChar: arrowleft
Encoding: 8592 8592 311
Width: 1229
GlyphClass: 2
Flags: W
LayerCount: 2
Fore
SplineSet
231 297 m 1,0,1
 288 230 288 230 350 100 c 1,2,-1
 278 100 l 1,3,4
 151 249 151 249 8 322 c 1,5,-1
 8 358 l 1,6,7
 151 431 151 431 278 580 c 1,8,-1
 350 580 l 1,9,10
 288 450 288 450 231 383 c 1,11,-1
 1220 383 l 1,12,-1
 1220 297 l 1,13,-1
 231 297 l 1,0,1
EndSplineSet
Validated: 1
EndChar

StartChar: arrowup
Encoding: 8593 8593 312
Width: 1229
GlyphClass: 2
Flags: W
LayerCount: 2
Fore
SplineSet
571 928 m 1,0,1
 504 871 504 871 374 809 c 1,2,-1
 374 881 l 1,3,4
 523 1008 523 1008 596 1151 c 1,5,-1
 632 1151 l 1,6,7
 705 1008 705 1008 854 881 c 1,8,-1
 854 809 l 1,9,10
 724 871 724 871 657 928 c 1,11,-1
 657 -61 l 1,12,-1
 571 -61 l 1,13,-1
 571 928 l 1,0,1
EndSplineSet
Validated: 1
EndChar

StartChar: arrowright
Encoding: 8594 8594 313
Width: 1229
GlyphClass: 2
Flags: W
LayerCount: 2
Fore
SplineSet
997 383 m 1,0,1
 940 450 940 450 878 580 c 1,2,-1
 950 580 l 1,3,4
 1077 431 1077 431 1220 358 c 1,5,-1
 1220 322 l 1,6,7
 1077 249 1077 249 950 100 c 1,8,-1
 878 100 l 1,9,10
 940 230 940 230 997 297 c 1,11,-1
 8 297 l 1,12,-1
 8 383 l 1,13,-1
 997 383 l 1,0,1
EndSplineSet
Validated: 1
EndChar

StartChar: arrowdown
Encoding: 8595 8595 314
Width: 1229
GlyphClass: 2
Flags: W
LayerCount: 2
Fore
SplineSet
657 162 m 1,0,1
 724 219 724 219 854 281 c 1,2,-1
 854 209 l 1,3,4
 705 82 705 82 632 -61 c 1,5,-1
 596 -61 l 1,6,7
 523 82 523 82 374 209 c 1,8,-1
 374 281 l 1,9,10
 504 219 504 219 571 162 c 1,11,-1
 571 1151 l 1,12,-1
 657 1151 l 1,13,-1
 657 162 l 1,0,1
EndSplineSet
Validated: 1
EndChar

StartChar: arrowboth
Encoding: 8596 8596 315
Width: 1229
GlyphClass: 2
Flags: W
LayerCount: 2
Fore
SplineSet
231 297 m 1,0,1
 288 230 288 230 350 100 c 1,2,-1
 278 100 l 1,3,4
 151 249 151 249 8 322 c 1,5,-1
 8 358 l 1,6,7
 151 431 151 431 278 580 c 1,8,-1
 350 580 l 1,9,10
 288 450 288 450 231 383 c 1,11,-1
 997 383 l 1,12,13
 940 450 940 450 878 580 c 1,14,-1
 950 580 l 1,15,16
 1077 431 1077 431 1220 358 c 1,17,-1
 1220 322 l 1,18,19
 1077 249 1077 249 950 100 c 1,20,-1
 878 100 l 1,21,22
 940 230 940 230 997 297 c 1,23,-1
 231 297 l 1,0,1
EndSplineSet
Validated: 1
EndChar

StartChar: arrowupdn
Encoding: 8597 8597 316
Width: 1229
GlyphClass: 2
Flags: W
LayerCount: 2
Fore
SplineSet
571 928 m 1,0,1
 504 871 504 871 374 809 c 1,2,-1
 374 881 l 1,3,4
 523 1008 523 1008 596 1151 c 1,5,-1
 632 1151 l 1,6,7
 705 1008 705 1008 854 881 c 1,8,-1
 854 809 l 1,9,10
 724 871 724 871 657 928 c 1,11,-1
 657 162 l 1,12,13
 724 219 724 219 854 281 c 1,14,-1
 854 209 l 1,15,16
 705 82 705 82 632 -61 c 1,17,-1
 596 -61 l 1,18,19
 523 82 523 82 374 209 c 1,20,-1
 374 281 l 1,21,22
 504 219 504 219 571 162 c 1,23,-1
 571 928 l 1,0,1
EndSplineSet
Validated: 1
EndChar

StartChar: arrowupdnbse
Encoding: 8616 8616 317
Width: 1229
GlyphClass: 2
Flags: W
LayerCount: 2
Fore
SplineSet
374 -104 m 1,0,-1
 854 -104 l 1,1,-1
 854 -184 l 1,2,-1
 374 -184 l 1,3,-1
 374 -104 l 1,0,-1
571 928 m 1,4,5
 504 871 504 871 374 809 c 1,6,-1
 374 881 l 1,7,8
 523 1008 523 1008 596 1151 c 1,9,-1
 632 1151 l 1,10,11
 705 1008 705 1008 854 881 c 1,12,-1
 854 809 l 1,13,14
 724 871 724 871 657 928 c 1,15,-1
 657 162 l 1,16,17
 724 219 724 219 854 281 c 1,18,-1
 854 209 l 1,19,20
 705 82 705 82 632 -61 c 1,21,-1
 596 -61 l 1,22,23
 523 82 523 82 374 209 c 1,24,-1
 374 281 l 1,25,26
 504 219 504 219 571 162 c 1,27,-1
 571 928 l 1,4,5
EndSplineSet
Validated: 1
EndChar

StartChar: orthogonal
Encoding: 8735 8735 318
Width: 1229
GlyphClass: 2
Flags: W
LayerCount: 2
Fore
SplineSet
52 1223 m 1,0,-1
 146 1223 l 1,1,-1
 146 94 l 1,2,-1
 1176 94 l 1,3,-1
 1176 0 l 1,4,-1
 52 0 l 1,5,-1
 52 1223 l 1,0,-1
EndSplineSet
Validated: 1
EndChar

StartChar: intersection
Encoding: 8745 8745 319
Width: 1229
GlyphClass: 2
Flags: W
LayerCount: 2
Fore
SplineSet
156 -2 m 1,0,-1
 156 510 l 2,1,2
 156 660 156 660 214 779.5 c 128,-1,3
 272 899 272 899 376.5 965.5 c 128,-1,4
 481 1032 481 1032 611 1032 c 0,5,6
 742 1032 742 1032 847.5 966 c 128,-1,7
 953 900 953 900 1012.5 779 c 128,-1,8
 1072 658 1072 658 1072 510 c 2,9,-1
 1072 -2 l 1,10,-1
 969 -2 l 1,11,-1
 969 512 l 2,12,13
 969 702 969 702 871 816 c 128,-1,14
 773 930 773 930 613 930 c 0,15,16
 451 930 451 930 355 817 c 128,-1,17
 259 704 259 704 259 510 c 2,18,-1
 259 -2 l 1,19,-1
 156 -2 l 1,0,-1
EndSplineSet
Validated: 1
EndChar

StartChar: equivalence
Encoding: 8801 8801 320
Width: 1229
GlyphClass: 2
Flags: W
LayerCount: 2
Fore
SplineSet
116 956 m 5,0,-1
 116 1104 l 5,1,-1
 1111 1104 l 5,2,-1
 1111 956 l 5,3,-1
 116 956 l 5,0,-1
116 244 m 5,4,-1
 116 392 l 5,5,-1
 1111 392 l 5,6,-1
 1111 244 l 5,7,-1
 116 244 l 5,4,-1
116 600 m 5,8,-1
 116 748 l 5,9,-1
 1111 748 l 5,10,-1
 1111 600 l 5,11,-1
 116 600 l 5,8,-1
EndSplineSet
Validated: 1
EndChar

StartChar: house
Encoding: 8962 8962 321
Width: 1229
GlyphClass: 2
Flags: W
LayerCount: 2
Fore
SplineSet
138 0 m 1,0,-1
 138 635 l 1,1,-1
 614 1083 l 1,2,-1
 1090 635 l 1,3,-1
 1090 0 l 1,4,-1
 138 0 l 1,0,-1
221 85 m 1,5,-1
 1007 85 l 1,6,-1
 1007 597 l 1,7,-1
 614 967 l 1,8,-1
 221 597 l 1,9,-1
 221 85 l 1,5,-1
EndSplineSet
Validated: 1
EndChar

StartChar: revlogicalnot
Encoding: 8976 8976 322
Width: 1229
GlyphClass: 2
Flags: W
LayerCount: 2
Fore
SplineSet
262 608 m 1,0,-1
 262 180 l 1,1,-1
 115 180 l 1,2,-1
 116 754 l 1,3,-1
 1111 754 l 1,4,-1
 1111 608 l 1,5,-1
 262 608 l 1,0,-1
EndSplineSet
Validated: 1
EndChar

StartChar: integraltp
Encoding: 8992 8992 323
Width: 1229
GlyphClass: 2
Flags: W
LayerCount: 2
Fore
SplineSet
687 -615 m 1,0,-1
 542 -615 l 1,1,-1
 542 1207 l 2,2,3
 542 1440 542 1440 624 1572.5 c 128,-1,4
 706 1705 706 1705 855 1705 c 0,5,6
 925 1705 925 1705 975.5 1668.5 c 128,-1,7
 1026 1632 1026 1632 1026 1576 c 0,8,9
 1026 1537 1026 1537 1001 1512.5 c 128,-1,10
 976 1488 976 1488 941 1488 c 0,11,12
 902 1488 902 1488 880.5 1506 c 128,-1,13
 859 1524 859 1524 844.5 1545.5 c 128,-1,14
 830 1567 830 1567 816.5 1585 c 128,-1,15
 803 1603 803 1603 781 1603 c 0,16,17
 730 1603 730 1603 708.5 1527.5 c 128,-1,18
 687 1452 687 1452 687 1285 c 2,19,-1
 687 -615 l 1,0,-1
EndSplineSet
Validated: 1
EndChar

StartChar: integralbt
Encoding: 8993 8993 324
Width: 1229
GlyphClass: 2
Flags: W
LayerCount: 2
Fore
SplineSet
542 1705 m 1,0,-1
 687 1705 l 1,1,-1
 687 -117 l 2,2,3
 687 -354 687 -354 604 -484.5 c 128,-1,4
 521 -615 521 -615 374 -615 c 0,5,6
 304 -615 304 -615 253.5 -578.5 c 128,-1,7
 203 -542 203 -542 203 -486 c 0,8,9
 203 -447 203 -447 228 -422.5 c 128,-1,10
 253 -398 253 -398 288 -398 c 0,11,12
 327 -398 327 -398 348.5 -416 c 128,-1,13
 370 -434 370 -434 384.5 -455.5 c 128,-1,14
 399 -477 399 -477 412.5 -495 c 128,-1,15
 426 -513 426 -513 448 -513 c 0,16,17
 499 -513 499 -513 520.5 -437.5 c 128,-1,18
 542 -362 542 -362 542 -195 c 2,19,-1
 542 1705 l 1,0,-1
EndSplineSet
Validated: 1
EndChar

StartChar: uni2500
Encoding: 9472 9472 325
Width: 1229
GlyphClass: 2
Flags: W
LayerCount: 2
Fore
SplineSet
-10 555 m 1,0,-1
 -10 700 l 1,1,-1
 1239 700 l 1,2,-1
 1239 555 l 1,3,-1
 -10 555 l 1,0,-1
EndSplineSet
Validated: 1
EndChar

StartChar: uni2502
Encoding: 9474 9474 326
Width: 1229
GlyphClass: 2
Flags: W
LayerCount: 2
Fore
SplineSet
542 1705 m 1,0,-1
 687 1705 l 1,1,-1
 687 -615 l 1,2,-1
 542 -615 l 1,3,-1
 542 1705 l 1,0,-1
EndSplineSet
Validated: 1
EndChar

StartChar: uni250C
Encoding: 9484 9484 327
Width: 1229
GlyphClass: 2
Flags: W
LayerCount: 2
Fore
SplineSet
542 700 m 1,0,-1
 1239 700 l 1,1,-1
 1239 555 l 1,2,-1
 687 555 l 1,3,-1
 687 -615 l 1,4,-1
 542 -615 l 1,5,-1
 542 700 l 1,0,-1
EndSplineSet
Validated: 1
EndChar

StartChar: uni2510
Encoding: 9488 9488 328
Width: 1229
GlyphClass: 2
Flags: W
LayerCount: 2
Fore
SplineSet
-10 555 m 1,0,-1
 -10 700 l 1,1,-1
 687 700 l 1,2,-1
 687 -615 l 1,3,-1
 542 -615 l 1,4,-1
 542 555 l 1,5,-1
 -10 555 l 1,0,-1
EndSplineSet
Validated: 1
EndChar

StartChar: uni2514
Encoding: 9492 9492 329
Width: 1229
GlyphClass: 2
Flags: W
LayerCount: 2
Fore
SplineSet
542 1705 m 1,0,-1
 687 1705 l 1,1,-1
 687 700 l 1,2,-1
 1239 700 l 1,3,-1
 1239 555 l 1,4,-1
 542 555 l 1,5,-1
 542 1705 l 1,0,-1
EndSplineSet
Validated: 1
EndChar

StartChar: uni2518
Encoding: 9496 9496 330
Width: 1229
GlyphClass: 2
Flags: W
LayerCount: 2
Fore
SplineSet
-10 555 m 1,0,-1
 -10 700 l 1,1,-1
 542 700 l 1,2,-1
 542 1705 l 1,3,-1
 687 1705 l 1,4,-1
 687 555 l 1,5,-1
 -10 555 l 1,0,-1
EndSplineSet
Validated: 1
EndChar

StartChar: uni251C
Encoding: 9500 9500 331
Width: 1229
GlyphClass: 2
Flags: W
LayerCount: 2
Fore
SplineSet
542 1705 m 1,0,-1
 687 1705 l 1,1,-1
 687 700 l 1,2,-1
 1239 700 l 1,3,-1
 1239 555 l 1,4,-1
 687 555 l 1,5,-1
 687 -615 l 1,6,-1
 542 -615 l 1,7,-1
 542 1705 l 1,0,-1
EndSplineSet
Validated: 1
EndChar

StartChar: uni2524
Encoding: 9508 9508 332
Width: 1229
GlyphClass: 2
Flags: W
LayerCount: 2
Fore
SplineSet
-10 555 m 1,0,-1
 -10 700 l 1,1,-1
 542 700 l 1,2,-1
 542 1705 l 1,3,-1
 687 1705 l 1,4,-1
 687 -615 l 1,5,-1
 542 -615 l 1,6,-1
 542 555 l 1,7,-1
 -10 555 l 1,0,-1
EndSplineSet
Validated: 1
EndChar

StartChar: uni252C
Encoding: 9516 9516 333
Width: 1229
GlyphClass: 2
Flags: W
LayerCount: 2
Fore
SplineSet
-10 555 m 1,0,-1
 -10 700 l 1,1,-1
 1239 700 l 1,2,-1
 1239 555 l 1,3,-1
 687 555 l 1,4,-1
 687 -615 l 1,5,-1
 542 -615 l 1,6,-1
 542 555 l 1,7,-1
 -10 555 l 1,0,-1
EndSplineSet
Validated: 1
EndChar

StartChar: uni2534
Encoding: 9524 9524 334
Width: 1229
GlyphClass: 2
Flags: W
LayerCount: 2
Fore
SplineSet
-10 555 m 1,0,-1
 -10 700 l 1,1,-1
 542 700 l 1,2,-1
 542 1705 l 1,3,-1
 687 1705 l 1,4,-1
 687 700 l 1,5,-1
 1239 700 l 1,6,-1
 1239 555 l 1,7,-1
 -10 555 l 1,0,-1
EndSplineSet
Validated: 1
EndChar

StartChar: uni253C
Encoding: 9532 9532 335
Width: 1229
GlyphClass: 2
Flags: W
LayerCount: 2
Fore
SplineSet
-10 555 m 1,0,-1
 -10 700 l 1,1,-1
 542 700 l 1,2,-1
 542 1705 l 1,3,-1
 687 1705 l 1,4,-1
 687 700 l 1,5,-1
 1239 700 l 1,6,-1
 1239 555 l 1,7,-1
 687 555 l 1,8,-1
 687 -615 l 1,9,-1
 542 -615 l 1,10,-1
 542 555 l 1,11,-1
 -10 555 l 1,0,-1
EndSplineSet
Validated: 1
EndChar

StartChar: uni2550
Encoding: 9552 9552 336
Width: 1229
GlyphClass: 2
Flags: W
LayerCount: 2
Fore
SplineSet
-10 735 m 1,0,-1
 -10 880 l 1,1,-1
 1239 880 l 1,2,-1
 1239 735 l 1,3,-1
 -10 735 l 1,0,-1
-10 375 m 1,4,-1
 -10 520 l 1,5,-1
 1239 520 l 1,6,-1
 1239 375 l 1,7,-1
 -10 375 l 1,4,-1
EndSplineSet
Validated: 1
EndChar

StartChar: uni2551
Encoding: 9553 9553 337
Width: 1229
GlyphClass: 2
Flags: W
LayerCount: 2
Fore
SplineSet
362 1705 m 1,0,-1
 507 1705 l 1,1,-1
 507 -615 l 1,2,-1
 362 -615 l 1,3,-1
 362 1705 l 1,0,-1
722 1705 m 1,4,-1
 867 1705 l 1,5,-1
 867 -615 l 1,6,-1
 722 -615 l 1,7,-1
 722 1705 l 1,4,-1
EndSplineSet
Validated: 1
EndChar

StartChar: uni2552
Encoding: 9554 9554 338
Width: 1229
GlyphClass: 2
Flags: W
LayerCount: 2
Fore
SplineSet
542 880 m 1,0,-1
 1239 880 l 1,1,-1
 1239 735 l 1,2,-1
 687 735 l 1,3,-1
 687 520 l 1,4,-1
 1239 520 l 1,5,-1
 1239 375 l 1,6,-1
 687 375 l 1,7,-1
 687 -615 l 1,8,-1
 542 -615 l 1,9,-1
 542 880 l 1,0,-1
EndSplineSet
Validated: 1
EndChar

StartChar: uni2553
Encoding: 9555 9555 339
Width: 1229
GlyphClass: 2
Flags: W
LayerCount: 2
Fore
SplineSet
1239 700 m 1,0,-1
 1239 555 l 1,1,-1
 867 555 l 1,2,-1
 867 -615 l 1,3,-1
 722 -615 l 1,4,-1
 722 555 l 1,5,-1
 507 555 l 1,6,-1
 507 -615 l 1,7,-1
 362 -615 l 1,8,-1
 362 700 l 1,9,-1
 1239 700 l 1,0,-1
EndSplineSet
Validated: 1
EndChar

StartChar: uni2554
Encoding: 9556 9556 340
Width: 1229
GlyphClass: 2
Flags: W
LayerCount: 2
Fore
SplineSet
362 880 m 1,0,-1
 1239 880 l 1,1,-1
 1239 735 l 1,2,-1
 507 735 l 1,3,-1
 507 -615 l 1,4,-1
 362 -615 l 1,5,-1
 362 880 l 1,0,-1
722 520 m 1,6,-1
 1239 520 l 1,7,-1
 1239 375 l 1,8,-1
 867 375 l 1,9,-1
 867 -615 l 1,10,-1
 722 -615 l 1,11,-1
 722 520 l 1,6,-1
EndSplineSet
Validated: 1
EndChar

StartChar: uni2555
Encoding: 9557 9557 341
Width: 1229
GlyphClass: 2
Flags: W
LayerCount: 2
Fore
SplineSet
-10 375 m 1,0,-1
 -10 520 l 1,1,-1
 542 520 l 1,2,-1
 542 735 l 1,3,-1
 -10 735 l 1,4,-1
 -10 880 l 1,5,-1
 687 880 l 1,6,-1
 687 -615 l 1,7,-1
 542 -615 l 1,8,-1
 542 375 l 1,9,-1
 -10 375 l 1,0,-1
EndSplineSet
Validated: 1
EndChar

StartChar: uni2556
Encoding: 9558 9558 342
Width: 1229
GlyphClass: 2
Flags: W
LayerCount: 2
Fore
SplineSet
-10 555 m 1,0,-1
 -10 700 l 1,1,-1
 867 700 l 1,2,-1
 867 -615 l 1,3,-1
 722 -615 l 1,4,-1
 722 555 l 1,5,-1
 507 555 l 1,6,-1
 507 -615 l 1,7,-1
 362 -615 l 1,8,-1
 362 555 l 1,9,-1
 -10 555 l 1,0,-1
EndSplineSet
Validated: 1
EndChar

StartChar: uni2557
Encoding: 9559 9559 343
Width: 1229
GlyphClass: 2
Flags: W
LayerCount: 2
Fore
SplineSet
867 880 m 1,0,-1
 867 -615 l 1,1,-1
 722 -615 l 1,2,-1
 722 735 l 1,3,-1
 -10 735 l 1,4,-1
 -10 880 l 1,5,-1
 867 880 l 1,0,-1
507 -615 m 1,6,-1
 362 -615 l 1,7,-1
 362 375 l 1,8,-1
 -10 375 l 1,9,-1
 -10 520 l 1,10,-1
 507 520 l 1,11,-1
 507 -615 l 1,6,-1
EndSplineSet
Validated: 1
EndChar

StartChar: uni2558
Encoding: 9560 9560 344
Width: 1229
GlyphClass: 2
Flags: W
LayerCount: 2
Fore
SplineSet
542 1705 m 1,0,-1
 687 1705 l 1,1,-1
 687 880 l 1,2,-1
 1239 880 l 1,3,-1
 1239 735 l 1,4,-1
 687 735 l 1,5,-1
 687 520 l 1,6,-1
 1239 520 l 1,7,-1
 1239 375 l 1,8,-1
 542 375 l 1,9,-1
 542 1705 l 1,0,-1
EndSplineSet
Validated: 1
EndChar

StartChar: uni2559
Encoding: 9561 9561 345
Width: 1229
GlyphClass: 2
Flags: W
LayerCount: 2
Fore
SplineSet
722 1705 m 1,0,-1
 867 1705 l 1,1,-1
 867 700 l 1,2,-1
 1239 700 l 1,3,-1
 1239 555 l 1,4,-1
 362 555 l 1,5,-1
 362 1705 l 1,6,-1
 507 1705 l 1,7,-1
 507 700 l 1,8,-1
 722 700 l 1,9,-1
 722 1705 l 1,0,-1
EndSplineSet
Validated: 1
EndChar

StartChar: uni255A
Encoding: 9562 9562 346
Width: 1229
GlyphClass: 2
Flags: W
LayerCount: 2
Fore
SplineSet
362 1705 m 1,0,-1
 507 1705 l 1,1,-1
 507 520 l 1,2,-1
 1239 520 l 1,3,-1
 1239 375 l 1,4,-1
 362 375 l 1,5,-1
 362 1705 l 1,0,-1
722 1705 m 1,6,-1
 867 1705 l 1,7,-1
 867 880 l 1,8,-1
 1239 880 l 1,9,-1
 1239 735 l 1,10,-1
 722 735 l 1,11,-1
 722 1705 l 1,6,-1
EndSplineSet
Validated: 1
EndChar

StartChar: uni255B
Encoding: 9563 9563 347
Width: 1229
GlyphClass: 2
Flags: W
LayerCount: 2
Fore
SplineSet
-10 375 m 1,0,-1
 -10 520 l 1,1,-1
 542 520 l 1,2,-1
 542 735 l 1,3,-1
 -10 735 l 1,4,-1
 -10 880 l 1,5,-1
 542 880 l 1,6,-1
 542 1705 l 1,7,-1
 687 1705 l 1,8,-1
 687 375 l 1,9,-1
 -10 375 l 1,0,-1
EndSplineSet
Validated: 1
EndChar

StartChar: uni255C
Encoding: 9564 9564 348
Width: 1229
GlyphClass: 2
Flags: W
LayerCount: 2
Fore
SplineSet
867 555 m 1,0,-1
 -10 555 l 1,1,-1
 -10 700 l 1,2,-1
 362 700 l 1,3,-1
 362 1705 l 1,4,-1
 507 1705 l 1,5,-1
 507 700 l 1,6,-1
 722 700 l 1,7,-1
 722 1705 l 1,8,-1
 867 1705 l 1,9,-1
 867 555 l 1,0,-1
EndSplineSet
Validated: 1
EndChar

StartChar: uni255D
Encoding: 9565 9565 349
Width: 1229
GlyphClass: 2
Flags: W
LayerCount: 2
Fore
SplineSet
867 375 m 1,0,-1
 -10 375 l 1,1,-1
 -10 520 l 1,2,-1
 722 520 l 1,3,-1
 722 1705 l 1,4,-1
 867 1705 l 1,5,-1
 867 375 l 1,0,-1
362 1705 m 1,6,-1
 507 1705 l 1,7,-1
 507 735 l 1,8,-1
 -10 735 l 1,9,-1
 -10 880 l 1,10,-1
 362 880 l 1,11,-1
 362 1705 l 1,6,-1
EndSplineSet
Validated: 1
EndChar

StartChar: uni255E
Encoding: 9566 9566 350
Width: 1229
GlyphClass: 2
Flags: W
LayerCount: 2
Fore
SplineSet
542 1705 m 1,0,-1
 687 1705 l 1,1,-1
 687 880 l 1,2,-1
 1239 880 l 1,3,-1
 1239 735 l 1,4,-1
 687 735 l 1,5,-1
 687 520 l 1,6,-1
 1239 520 l 1,7,-1
 1239 375 l 1,8,-1
 687 375 l 1,9,-1
 687 -615 l 1,10,-1
 542 -615 l 1,11,-1
 542 1705 l 1,0,-1
EndSplineSet
Validated: 1
EndChar

StartChar: uni255F
Encoding: 9567 9567 351
Width: 1229
GlyphClass: 2
Flags: W
LayerCount: 2
Fore
SplineSet
722 1705 m 1,0,-1
 867 1705 l 1,1,-1
 867 700 l 1,2,-1
 1239 700 l 1,3,-1
 1239 555 l 1,4,-1
 867 555 l 1,5,-1
 867 -615 l 1,6,-1
 722 -615 l 1,7,-1
 722 1705 l 1,0,-1
362 1705 m 1,8,-1
 507 1705 l 1,9,-1
 507 -615 l 1,10,-1
 362 -615 l 1,11,-1
 362 1705 l 1,8,-1
EndSplineSet
Validated: 1
EndChar

StartChar: uni2560
Encoding: 9568 9568 352
Width: 1229
GlyphClass: 2
Flags: W
LayerCount: 2
Fore
SplineSet
507 -615 m 1,0,-1
 362 -615 l 1,1,-1
 362 1705 l 1,2,-1
 507 1705 l 1,3,-1
 507 -615 l 1,0,-1
722 520 m 1,4,-1
 1239 520 l 1,5,-1
 1239 375 l 1,6,-1
 867 375 l 1,7,-1
 867 -615 l 1,8,-1
 722 -615 l 1,9,-1
 722 520 l 1,4,-1
722 1705 m 1,10,-1
 867 1705 l 1,11,-1
 867 880 l 1,12,-1
 1239 880 l 1,13,-1
 1239 735 l 1,14,-1
 722 735 l 1,15,-1
 722 1705 l 1,10,-1
EndSplineSet
Validated: 1
EndChar

StartChar: uni2561
Encoding: 9569 9569 353
Width: 1229
GlyphClass: 2
Flags: W
LayerCount: 2
Fore
SplineSet
-10 375 m 1,0,-1
 -10 520 l 1,1,-1
 542 520 l 1,2,-1
 542 735 l 1,3,-1
 -10 735 l 1,4,-1
 -10 880 l 1,5,-1
 542 880 l 1,6,-1
 542 1705 l 1,7,-1
 687 1705 l 1,8,-1
 687 -615 l 1,9,-1
 542 -615 l 1,10,-1
 542 375 l 1,11,-1
 -10 375 l 1,0,-1
EndSplineSet
Validated: 1
EndChar

StartChar: uni2562
Encoding: 9570 9570 354
Width: 1229
GlyphClass: 2
Flags: W
LayerCount: 2
Fore
SplineSet
-10 555 m 1,0,-1
 -10 700 l 1,1,-1
 362 700 l 1,2,-1
 362 1705 l 1,3,-1
 507 1705 l 1,4,-1
 507 -615 l 1,5,-1
 362 -615 l 1,6,-1
 362 555 l 1,7,-1
 -10 555 l 1,0,-1
722 1705 m 1,8,-1
 867 1705 l 1,9,-1
 867 -615 l 1,10,-1
 722 -615 l 1,11,-1
 722 1705 l 1,8,-1
EndSplineSet
Validated: 1
EndChar

StartChar: uni2563
Encoding: 9571 9571 355
Width: 1229
GlyphClass: 2
Flags: W
LayerCount: 2
Fore
SplineSet
722 1705 m 1,0,-1
 867 1705 l 1,1,-1
 867 -615 l 1,2,-1
 722 -615 l 1,3,-1
 722 1705 l 1,0,-1
362 1705 m 1,4,-1
 507 1705 l 1,5,-1
 507 735 l 1,6,-1
 -10 735 l 1,7,-1
 -10 880 l 1,8,-1
 362 880 l 1,9,-1
 362 1705 l 1,4,-1
507 -615 m 1,10,-1
 362 -615 l 1,11,-1
 362 375 l 1,12,-1
 -10 375 l 1,13,-1
 -10 520 l 1,14,-1
 507 520 l 1,15,-1
 507 -615 l 1,10,-1
EndSplineSet
Validated: 1
EndChar

StartChar: uni2564
Encoding: 9572 9572 356
Width: 1229
GlyphClass: 2
Flags: W
LayerCount: 2
Fore
SplineSet
-10 375 m 1,0,-1
 -10 520 l 1,1,-1
 1239 520 l 1,2,-1
 1239 375 l 1,3,-1
 687 375 l 1,4,-1
 687 -615 l 1,5,-1
 542 -615 l 1,6,-1
 542 375 l 1,7,-1
 -10 375 l 1,0,-1
-10 735 m 1,8,-1
 -10 880 l 1,9,-1
 1239 880 l 1,10,-1
 1239 735 l 1,11,-1
 -10 735 l 1,8,-1
EndSplineSet
Validated: 1
EndChar

StartChar: uni2565
Encoding: 9573 9573 357
Width: 1229
GlyphClass: 2
Flags: W
LayerCount: 2
Fore
SplineSet
-10 555 m 1,0,-1
 -10 700 l 1,1,-1
 1239 700 l 1,2,-1
 1239 555 l 1,3,-1
 867 555 l 1,4,-1
 867 -615 l 1,5,-1
 722 -615 l 1,6,-1
 722 555 l 1,7,-1
 507 555 l 1,8,-1
 507 -615 l 1,9,-1
 362 -615 l 1,10,-1
 362 555 l 1,11,-1
 -10 555 l 1,0,-1
EndSplineSet
Validated: 1
EndChar

StartChar: uni2566
Encoding: 9574 9574 358
Width: 1229
GlyphClass: 2
Flags: W
LayerCount: 2
Fore
SplineSet
507 -615 m 1,0,-1
 362 -615 l 1,1,-1
 362 375 l 1,2,-1
 -10 375 l 1,3,-1
 -10 520 l 1,4,-1
 507 520 l 1,5,-1
 507 -615 l 1,0,-1
722 520 m 1,6,-1
 1239 520 l 1,7,-1
 1239 375 l 1,8,-1
 867 375 l 1,9,-1
 867 -615 l 1,10,-1
 722 -615 l 1,11,-1
 722 520 l 1,6,-1
1239 880 m 1,12,-1
 1239 735 l 1,13,-1
 -10 735 l 1,14,-1
 -10 880 l 1,15,-1
 1239 880 l 1,12,-1
EndSplineSet
Validated: 1
EndChar

StartChar: uni2567
Encoding: 9575 9575 359
Width: 1229
GlyphClass: 2
Flags: W
LayerCount: 2
Fore
SplineSet
-10 735 m 1,0,-1
 -10 880 l 1,1,-1
 542 880 l 1,2,-1
 542 1705 l 1,3,-1
 687 1705 l 1,4,-1
 687 880 l 1,5,-1
 1239 880 l 1,6,-1
 1239 735 l 1,7,-1
 -10 735 l 1,0,-1
-10 375 m 1,8,-1
 -10 520 l 1,9,-1
 1239 520 l 1,10,-1
 1239 375 l 1,11,-1
 -10 375 l 1,8,-1
EndSplineSet
Validated: 1
EndChar

StartChar: uni2568
Encoding: 9576 9576 360
Width: 1229
GlyphClass: 2
Flags: W
LayerCount: 2
Fore
SplineSet
-10 555 m 1,0,-1
 -10 700 l 1,1,-1
 362 700 l 1,2,-1
 362 1705 l 1,3,-1
 507 1705 l 1,4,-1
 507 700 l 1,5,-1
 722 700 l 1,6,-1
 722 1705 l 1,7,-1
 867 1705 l 1,8,-1
 867 700 l 1,9,-1
 1239 700 l 1,10,-1
 1239 555 l 1,11,-1
 -10 555 l 1,0,-1
EndSplineSet
Validated: 1
EndChar

StartChar: uni2569
Encoding: 9577 9577 361
Width: 1229
GlyphClass: 2
Flags: W
LayerCount: 2
Fore
SplineSet
722 1705 m 1,0,-1
 867 1705 l 1,1,-1
 867 880 l 1,2,-1
 1239 880 l 1,3,-1
 1239 735 l 1,4,-1
 722 735 l 1,5,-1
 722 1705 l 1,0,-1
362 1705 m 1,6,-1
 507 1705 l 1,7,-1
 507 735 l 1,8,-1
 -10 735 l 1,9,-1
 -10 880 l 1,10,-1
 362 880 l 1,11,-1
 362 1705 l 1,6,-1
-10 375 m 1,12,-1
 -10 520 l 1,13,-1
 1239 520 l 1,14,-1
 1239 375 l 1,15,-1
 -10 375 l 1,12,-1
EndSplineSet
Validated: 1
EndChar

StartChar: uni256A
Encoding: 9578 9578 362
Width: 1229
GlyphClass: 2
Flags: W
LayerCount: 2
Fore
SplineSet
-10 375 m 1,0,-1
 -10 520 l 1,1,-1
 542 520 l 1,2,-1
 542 735 l 1,3,-1
 -10 735 l 1,4,-1
 -10 880 l 1,5,-1
 542 880 l 1,6,-1
 542 1705 l 1,7,-1
 687 1705 l 1,8,-1
 687 880 l 1,9,-1
 1239 880 l 1,10,-1
 1239 735 l 1,11,-1
 687 735 l 1,12,-1
 687 520 l 1,13,-1
 1239 520 l 1,14,-1
 1239 375 l 1,15,-1
 687 375 l 1,16,-1
 687 -615 l 1,17,-1
 542 -615 l 1,18,-1
 542 375 l 1,19,-1
 -10 375 l 1,0,-1
EndSplineSet
Validated: 1
EndChar

StartChar: uni256B
Encoding: 9579 9579 363
Width: 1229
GlyphClass: 2
Flags: W
LayerCount: 2
Fore
SplineSet
722 1705 m 1,0,-1
 867 1705 l 1,1,-1
 867 700 l 1,2,-1
 1239 700 l 1,3,-1
 1239 555 l 1,4,-1
 867 555 l 1,5,-1
 867 -615 l 1,6,-1
 722 -615 l 1,7,-1
 722 555 l 1,8,-1
 507 555 l 1,9,-1
 507 -615 l 1,10,-1
 362 -615 l 1,11,-1
 362 555 l 1,12,-1
 -10 555 l 1,13,-1
 -10 700 l 1,14,-1
 362 700 l 1,15,-1
 362 1705 l 1,16,-1
 507 1705 l 1,17,-1
 507 700 l 1,18,-1
 722 700 l 1,19,-1
 722 1705 l 1,0,-1
EndSplineSet
Validated: 1
EndChar

StartChar: uni256C
Encoding: 9580 9580 364
Width: 1229
GlyphClass: 2
Flags: W
LayerCount: 2
Fore
SplineSet
722 1705 m 1,0,-1
 867 1705 l 1,1,-1
 867 880 l 1,2,-1
 1239 880 l 1,3,-1
 1239 735 l 1,4,-1
 722 735 l 1,5,-1
 722 1705 l 1,0,-1
507 -615 m 1,6,-1
 362 -615 l 1,7,-1
 362 375 l 1,8,-1
 -10 375 l 1,9,-1
 -10 520 l 1,10,-1
 507 520 l 1,11,-1
 507 -615 l 1,6,-1
722 520 m 1,12,-1
 1239 520 l 1,13,-1
 1239 375 l 1,14,-1
 867 375 l 1,15,-1
 867 -615 l 1,16,-1
 722 -615 l 1,17,-1
 722 520 l 1,12,-1
362 1705 m 1,18,-1
 507 1705 l 1,19,-1
 507 735 l 1,20,-1
 -10 735 l 1,21,-1
 -10 880 l 1,22,-1
 362 880 l 1,23,-1
 362 1705 l 1,18,-1
EndSplineSet
Validated: 1
EndChar

StartChar: upblock
Encoding: 9600 9600 365
Width: 1229
GlyphClass: 2
Flags: W
LayerCount: 2
Fore
SplineSet
1229 627 m 1,0,-1
 0 627 l 1,1,-1
 0 1705 l 1,2,-1
 1229 1705 l 1,3,-1
 1229 627 l 1,0,-1
EndSplineSet
Validated: 1
EndChar

StartChar: dnblock
Encoding: 9604 9604 366
Width: 1229
GlyphClass: 2
Flags: W
LayerCount: 2
Fore
SplineSet
1229 -615 m 1,0,-1
 0 -615 l 1,1,-1
 0 627 l 1,2,-1
 1229 627 l 1,3,-1
 1229 -615 l 1,0,-1
EndSplineSet
Validated: 1
EndChar

StartChar: block
Encoding: 9608 9608 367
Width: 1229
GlyphClass: 2
Flags: W
LayerCount: 2
Fore
SplineSet
1229 -615 m 1,0,-1
 0 -615 l 1,1,-1
 0 1705 l 1,2,-1
 1229 1705 l 1,3,-1
 1229 -615 l 1,0,-1
EndSplineSet
Validated: 1
EndChar

StartChar: lfblock
Encoding: 9612 9612 368
Width: 1229
GlyphClass: 2
Flags: W
LayerCount: 2
Fore
SplineSet
615 -615 m 1,0,-1
 0 -615 l 1,1,-1
 0 1705 l 1,2,-1
 615 1705 l 1,3,-1
 615 -615 l 1,0,-1
EndSplineSet
Validated: 1
EndChar

StartChar: rtblock
Encoding: 9616 9616 369
Width: 1229
GlyphClass: 2
Flags: W
LayerCount: 2
Fore
SplineSet
1229 -615 m 1,0,-1
 614 -615 l 1,1,-1
 614 1705 l 1,2,-1
 1229 1705 l 1,3,-1
 1229 -615 l 1,0,-1
EndSplineSet
Validated: 1
EndChar

StartChar: ltshade
Encoding: 9617 9617 370
Width: 1229
GlyphClass: 2
Flags: W
LayerCount: 2
Fore
SplineSet
0 1320 m 1,0,-1
 103 1320 l 1,1,-1
 103 1222 l 1,2,-1
 0 1222 l 1,3,-1
 0 1320 l 1,0,-1
410 1320 m 1,4,-1
 513 1320 l 1,5,-1
 513 1222 l 1,6,-1
 410 1222 l 1,7,-1
 410 1320 l 1,4,-1
820 1320 m 1,8,-1
 923 1320 l 1,9,-1
 923 1222 l 1,10,-1
 820 1222 l 1,11,-1
 820 1320 l 1,8,-1
205 1125 m 1,12,-1
 307 1125 l 1,13,-1
 307 1029 l 1,14,-1
 205 1029 l 1,15,-1
 205 1125 l 1,12,-1
615 1125 m 1,16,-1
 717 1125 l 1,17,-1
 717 1029 l 1,18,-1
 615 1029 l 1,19,-1
 615 1125 l 1,16,-1
1025 1125 m 1,20,-1
 1127 1125 l 1,21,-1
 1127 1029 l 1,22,-1
 1025 1029 l 1,23,-1
 1025 1125 l 1,20,-1
0 933 m 1,24,-1
 103 933 l 1,25,-1
 103 837 l 1,26,-1
 0 837 l 1,27,-1
 0 933 l 1,24,-1
410 933 m 1,28,-1
 513 933 l 1,29,-1
 513 837 l 1,30,-1
 410 837 l 1,31,-1
 410 933 l 1,28,-1
820 933 m 1,32,-1
 923 933 l 1,33,-1
 923 837 l 1,34,-1
 820 837 l 1,35,-1
 820 933 l 1,32,-1
205 738 m 1,36,-1
 307 738 l 1,37,-1
 307 642 l 1,38,-1
 205 642 l 1,39,-1
 205 738 l 1,36,-1
615 738 m 1,40,-1
 717 738 l 1,41,-1
 717 642 l 1,42,-1
 615 642 l 1,43,-1
 615 738 l 1,40,-1
1025 738 m 1,44,-1
 1127 738 l 1,45,-1
 1127 642 l 1,46,-1
 1025 642 l 1,47,-1
 1025 738 l 1,44,-1
0 546 m 1,48,-1
 103 546 l 1,49,-1
 103 450 l 1,50,-1
 0 450 l 1,51,-1
 0 546 l 1,48,-1
410 546 m 1,52,-1
 513 546 l 1,53,-1
 513 450 l 1,54,-1
 410 450 l 1,55,-1
 410 546 l 1,52,-1
820 546 m 1,56,-1
 923 546 l 1,57,-1
 923 450 l 1,58,-1
 820 450 l 1,59,-1
 820 546 l 1,56,-1
615 351 m 1,60,-1
 717 351 l 1,61,-1
 717 255 l 1,62,-1
 615 255 l 1,63,-1
 615 351 l 1,60,-1
1025 351 m 1,64,-1
 1127 351 l 1,65,-1
 1127 255 l 1,66,-1
 1025 255 l 1,67,-1
 1025 351 l 1,64,-1
205 351 m 1,68,-1
 307 351 l 1,69,-1
 307 255 l 1,70,-1
 205 255 l 1,71,-1
 205 351 l 1,68,-1
820 159 m 1,72,-1
 923 159 l 1,73,-1
 923 62 l 1,74,-1
 820 62 l 1,75,-1
 820 159 l 1,72,-1
410 159 m 1,76,-1
 513 159 l 1,77,-1
 513 62 l 1,78,-1
 410 62 l 1,79,-1
 410 159 l 1,76,-1
0 159 m 1,80,-1
 103 159 l 1,81,-1
 103 62 l 1,82,-1
 0 62 l 1,83,-1
 0 159 l 1,80,-1
205 -36 m 1,84,-1
 307 -36 l 1,85,-1
 307 -130 l 1,86,-1
 205 -130 l 1,87,-1
 205 -36 l 1,84,-1
615 -36 m 1,88,-1
 717 -36 l 1,89,-1
 717 -130 l 1,90,-1
 615 -130 l 1,91,-1
 615 -36 l 1,88,-1
1025 -36 m 1,92,-1
 1127 -36 l 1,93,-1
 1127 -130 l 1,94,-1
 1025 -130 l 1,95,-1
 1025 -36 l 1,92,-1
820 -228 m 1,96,-1
 923 -228 l 1,97,-1
 923 -325 l 1,98,-1
 820 -325 l 1,99,-1
 820 -228 l 1,96,-1
410 -228 m 1,100,-1
 513 -228 l 1,101,-1
 513 -325 l 1,102,-1
 410 -325 l 1,103,-1
 410 -228 l 1,100,-1
0 -228 m 1,104,-1
 103 -228 l 1,105,-1
 103 -325 l 1,106,-1
 0 -325 l 1,107,-1
 0 -228 l 1,104,-1
205 -421 m 1,108,-1
 307 -421 l 1,109,-1
 307 -517 l 1,110,-1
 205 -517 l 1,111,-1
 205 -421 l 1,108,-1
615 -421 m 1,112,-1
 717 -421 l 1,113,-1
 717 -517 l 1,114,-1
 615 -517 l 1,115,-1
 615 -421 l 1,112,-1
1025 -421 m 1,116,-1
 1127 -421 l 1,117,-1
 1127 -517 l 1,118,-1
 1025 -517 l 1,119,-1
 1025 -421 l 1,116,-1
205 1512 m 1,120,-1
 307 1512 l 1,121,-1
 307 1414 l 1,122,-1
 205 1414 l 1,123,-1
 205 1512 l 1,120,-1
615 1512 m 1,124,-1
 717 1512 l 1,125,-1
 717 1414 l 1,126,-1
 615 1414 l 1,127,-1
 615 1512 l 1,124,-1
1025 1512 m 1,128,-1
 1127 1512 l 1,129,-1
 1127 1414 l 1,130,-1
 1025 1414 l 1,131,-1
 1025 1512 l 1,128,-1
0 1705 m 1,132,-1
 103 1705 l 1,133,-1
 103 1609 l 1,134,-1
 0 1609 l 1,135,-1
 0 1705 l 1,132,-1
410 1705 m 1,136,-1
 513 1705 l 1,137,-1
 513 1609 l 1,138,-1
 410 1609 l 1,139,-1
 410 1705 l 1,136,-1
820 1705 m 1,140,-1
 923 1705 l 1,141,-1
 923 1609 l 1,142,-1
 820 1609 l 1,143,-1
 820 1705 l 1,140,-1
EndSplineSet
Validated: 1
EndChar

StartChar: shade
Encoding: 9618 9618 371
Width: 1229
GlyphClass: 2
Flags: W
LayerCount: 2
Fore
SplineSet
102 1320 m 1,0,-1
 205 1320 l 1,1,-1
 205 1222 l 1,2,-1
 102 1222 l 1,3,-1
 102 1320 l 1,0,-1
307 1320 m 1,4,-1
 410 1320 l 1,5,-1
 410 1222 l 1,6,-1
 307 1222 l 1,7,-1
 307 1320 l 1,4,-1
512 1320 m 1,8,-1
 615 1320 l 1,9,-1
 615 1222 l 1,10,-1
 512 1222 l 1,11,-1
 512 1320 l 1,8,-1
717 1320 m 1,12,-1
 820 1320 l 1,13,-1
 820 1222 l 1,14,-1
 717 1222 l 1,15,-1
 717 1320 l 1,12,-1
922 1320 m 1,16,-1
 1025 1320 l 1,17,-1
 1025 1222 l 1,18,-1
 922 1222 l 1,19,-1
 922 1320 l 1,16,-1
1127 1320 m 1,20,-1
 1230 1320 l 1,21,-1
 1230 1222 l 1,22,-1
 1127 1222 l 1,23,-1
 1127 1320 l 1,20,-1
0 1125 m 1,24,-1
 102 1125 l 1,25,-1
 102 1029 l 1,26,-1
 0 1029 l 1,27,-1
 0 1125 l 1,24,-1
205 1125 m 1,28,-1
 307 1125 l 1,29,-1
 307 1029 l 1,30,-1
 205 1029 l 1,31,-1
 205 1125 l 1,28,-1
410 1125 m 1,32,-1
 512 1125 l 1,33,-1
 512 1029 l 1,34,-1
 410 1029 l 1,35,-1
 410 1125 l 1,32,-1
615 1125 m 1,36,-1
 717 1125 l 1,37,-1
 717 1029 l 1,38,-1
 615 1029 l 1,39,-1
 615 1125 l 1,36,-1
820 1125 m 1,40,-1
 922 1125 l 1,41,-1
 922 1029 l 1,42,-1
 820 1029 l 1,43,-1
 820 1125 l 1,40,-1
1025 1125 m 1,44,-1
 1127 1125 l 1,45,-1
 1127 1029 l 1,46,-1
 1025 1029 l 1,47,-1
 1025 1125 l 1,44,-1
102 933 m 1,48,-1
 205 933 l 1,49,-1
 205 837 l 1,50,-1
 102 837 l 1,51,-1
 102 933 l 1,48,-1
307 933 m 1,52,-1
 410 933 l 1,53,-1
 410 837 l 1,54,-1
 307 837 l 1,55,-1
 307 933 l 1,52,-1
512 933 m 1,56,-1
 615 933 l 1,57,-1
 615 837 l 1,58,-1
 512 837 l 1,59,-1
 512 933 l 1,56,-1
717 933 m 1,60,-1
 820 933 l 1,61,-1
 820 837 l 1,62,-1
 717 837 l 1,63,-1
 717 933 l 1,60,-1
922 933 m 1,64,-1
 1025 933 l 1,65,-1
 1025 837 l 1,66,-1
 922 837 l 1,67,-1
 922 933 l 1,64,-1
1127 933 m 1,68,-1
 1230 933 l 1,69,-1
 1230 837 l 1,70,-1
 1127 837 l 1,71,-1
 1127 933 l 1,68,-1
0 738 m 1,72,-1
 102 738 l 1,73,-1
 102 642 l 1,74,-1
 0 642 l 1,75,-1
 0 738 l 1,72,-1
205 738 m 1,76,-1
 307 738 l 1,77,-1
 307 642 l 1,78,-1
 205 642 l 1,79,-1
 205 738 l 1,76,-1
410 738 m 1,80,-1
 512 738 l 1,81,-1
 512 642 l 1,82,-1
 410 642 l 1,83,-1
 410 738 l 1,80,-1
615 738 m 1,84,-1
 717 738 l 1,85,-1
 717 642 l 1,86,-1
 615 642 l 1,87,-1
 615 738 l 1,84,-1
820 738 m 1,88,-1
 922 738 l 1,89,-1
 922 642 l 1,90,-1
 820 642 l 1,91,-1
 820 738 l 1,88,-1
1025 738 m 1,92,-1
 1127 738 l 1,93,-1
 1127 642 l 1,94,-1
 1025 642 l 1,95,-1
 1025 738 l 1,92,-1
102 546 m 1,96,-1
 205 546 l 1,97,-1
 205 450 l 1,98,-1
 102 450 l 1,99,-1
 102 546 l 1,96,-1
307 546 m 1,100,-1
 410 546 l 1,101,-1
 410 450 l 1,102,-1
 307 450 l 1,103,-1
 307 546 l 1,100,-1
512 546 m 1,104,-1
 615 546 l 1,105,-1
 615 450 l 1,106,-1
 512 450 l 1,107,-1
 512 546 l 1,104,-1
717 546 m 1,108,-1
 820 546 l 1,109,-1
 820 450 l 1,110,-1
 717 450 l 1,111,-1
 717 546 l 1,108,-1
922 546 m 1,112,-1
 1025 546 l 1,113,-1
 1025 450 l 1,114,-1
 922 450 l 1,115,-1
 922 546 l 1,112,-1
1127 546 m 1,116,-1
 1230 546 l 1,117,-1
 1230 450 l 1,118,-1
 1127 450 l 1,119,-1
 1127 546 l 1,116,-1
0 351 m 1,120,-1
 102 351 l 1,121,-1
 102 255 l 1,122,-1
 0 255 l 1,123,-1
 0 351 l 1,120,-1
410 351 m 1,124,-1
 512 351 l 1,125,-1
 512 255 l 1,126,-1
 410 255 l 1,127,-1
 410 351 l 1,124,-1
615 351 m 1,128,-1
 717 351 l 1,129,-1
 717 255 l 1,130,-1
 615 255 l 1,131,-1
 615 351 l 1,128,-1
820 351 m 1,132,-1
 922 351 l 1,133,-1
 922 255 l 1,134,-1
 820 255 l 1,135,-1
 820 351 l 1,132,-1
1025 351 m 1,136,-1
 1127 351 l 1,137,-1
 1127 255 l 1,138,-1
 1025 255 l 1,139,-1
 1025 351 l 1,136,-1
205 351 m 1,140,-1
 307 351 l 1,141,-1
 307 255 l 1,142,-1
 205 255 l 1,143,-1
 205 351 l 1,140,-1
1127 159 m 1,144,-1
 1230 159 l 1,145,-1
 1230 62 l 1,146,-1
 1127 62 l 1,147,-1
 1127 159 l 1,144,-1
922 159 m 1,148,-1
 1025 159 l 1,149,-1
 1025 62 l 1,150,-1
 922 62 l 1,151,-1
 922 159 l 1,148,-1
717 159 m 1,152,-1
 820 159 l 1,153,-1
 820 62 l 1,154,-1
 717 62 l 1,155,-1
 717 159 l 1,152,-1
512 159 m 1,156,-1
 615 159 l 1,157,-1
 615 62 l 1,158,-1
 512 62 l 1,159,-1
 512 159 l 1,156,-1
307 159 m 1,160,-1
 410 159 l 1,161,-1
 410 62 l 1,162,-1
 307 62 l 1,163,-1
 307 159 l 1,160,-1
102 159 m 1,164,-1
 205 159 l 1,165,-1
 205 62 l 1,166,-1
 102 62 l 1,167,-1
 102 159 l 1,164,-1
0 -36 m 1,168,-1
 102 -36 l 1,169,-1
 102 -130 l 1,170,-1
 0 -130 l 1,171,-1
 0 -36 l 1,168,-1
205 -36 m 1,172,-1
 307 -36 l 1,173,-1
 307 -130 l 1,174,-1
 205 -130 l 1,175,-1
 205 -36 l 1,172,-1
410 -36 m 1,176,-1
 512 -36 l 1,177,-1
 512 -130 l 1,178,-1
 410 -130 l 1,179,-1
 410 -36 l 1,176,-1
615 -36 m 1,180,-1
 717 -36 l 1,181,-1
 717 -130 l 1,182,-1
 615 -130 l 1,183,-1
 615 -36 l 1,180,-1
820 -36 m 1,184,-1
 922 -36 l 1,185,-1
 922 -130 l 1,186,-1
 820 -130 l 1,187,-1
 820 -36 l 1,184,-1
1025 -36 m 1,188,-1
 1127 -36 l 1,189,-1
 1127 -130 l 1,190,-1
 1025 -130 l 1,191,-1
 1025 -36 l 1,188,-1
1127 -228 m 1,192,-1
 1230 -228 l 1,193,-1
 1230 -325 l 1,194,-1
 1127 -325 l 1,195,-1
 1127 -228 l 1,192,-1
922 -228 m 1,196,-1
 1025 -228 l 1,197,-1
 1025 -325 l 1,198,-1
 922 -325 l 1,199,-1
 922 -228 l 1,196,-1
717 -228 m 1,200,-1
 820 -228 l 1,201,-1
 820 -325 l 1,202,-1
 717 -325 l 1,203,-1
 717 -228 l 1,200,-1
512 -228 m 1,204,-1
 615 -228 l 1,205,-1
 615 -325 l 1,206,-1
 512 -325 l 1,207,-1
 512 -228 l 1,204,-1
307 -228 m 1,208,-1
 410 -228 l 1,209,-1
 410 -325 l 1,210,-1
 307 -325 l 1,211,-1
 307 -228 l 1,208,-1
102 -228 m 1,212,-1
 205 -228 l 1,213,-1
 205 -325 l 1,214,-1
 102 -325 l 1,215,-1
 102 -228 l 1,212,-1
0 -421 m 1,216,-1
 102 -421 l 1,217,-1
 102 -517 l 1,218,-1
 0 -517 l 1,219,-1
 0 -421 l 1,216,-1
205 -421 m 1,220,-1
 307 -421 l 1,221,-1
 307 -517 l 1,222,-1
 205 -517 l 1,223,-1
 205 -421 l 1,220,-1
410 -421 m 1,224,-1
 512 -421 l 1,225,-1
 512 -517 l 1,226,-1
 410 -517 l 1,227,-1
 410 -421 l 1,224,-1
615 -421 m 1,228,-1
 717 -421 l 1,229,-1
 717 -517 l 1,230,-1
 615 -517 l 1,231,-1
 615 -421 l 1,228,-1
820 -421 m 1,232,-1
 922 -421 l 1,233,-1
 922 -517 l 1,234,-1
 820 -517 l 1,235,-1
 820 -421 l 1,232,-1
1025 -421 m 1,236,-1
 1127 -421 l 1,237,-1
 1127 -517 l 1,238,-1
 1025 -517 l 1,239,-1
 1025 -421 l 1,236,-1
0 1512 m 1,240,-1
 102 1512 l 1,241,-1
 102 1414 l 1,242,-1
 0 1414 l 1,243,-1
 0 1512 l 1,240,-1
205 1512 m 1,244,-1
 307 1512 l 1,245,-1
 307 1414 l 1,246,-1
 205 1414 l 1,247,-1
 205 1512 l 1,244,-1
410 1512 m 1,248,-1
 512 1512 l 1,249,-1
 512 1414 l 1,250,-1
 410 1414 l 1,251,-1
 410 1512 l 1,248,-1
615 1512 m 1,252,-1
 717 1512 l 1,253,-1
 717 1414 l 1,254,-1
 615 1414 l 1,255,-1
 615 1512 l 1,252,-1
820 1512 m 1,256,-1
 922 1512 l 1,257,-1
 922 1414 l 1,258,-1
 820 1414 l 1,259,-1
 820 1512 l 1,256,-1
1025 1512 m 1,260,-1
 1127 1512 l 1,261,-1
 1127 1414 l 1,262,-1
 1025 1414 l 1,263,-1
 1025 1512 l 1,260,-1
102 1705 m 1,264,-1
 205 1705 l 1,265,-1
 205 1609 l 1,266,-1
 102 1609 l 1,267,-1
 102 1705 l 1,264,-1
307 1705 m 1,268,-1
 410 1705 l 1,269,-1
 410 1609 l 1,270,-1
 307 1609 l 1,271,-1
 307 1705 l 1,268,-1
512 1705 m 1,272,-1
 615 1705 l 1,273,-1
 615 1609 l 1,274,-1
 512 1609 l 1,275,-1
 512 1705 l 1,272,-1
717 1705 m 1,276,-1
 820 1705 l 1,277,-1
 820 1609 l 1,278,-1
 717 1609 l 1,279,-1
 717 1705 l 1,276,-1
922 1705 m 1,280,-1
 1025 1705 l 1,281,-1
 1025 1609 l 1,282,-1
 922 1609 l 1,283,-1
 922 1705 l 1,280,-1
1127 1705 m 1,284,-1
 1230 1705 l 1,285,-1
 1230 1609 l 1,286,-1
 1127 1609 l 1,287,-1
 1127 1705 l 1,284,-1
EndSplineSet
Validated: 1
EndChar

StartChar: dkshade
Encoding: 9619 9619 372
Width: 1229
GlyphClass: 2
Flags: W
LayerCount: 2
Fore
SplineSet
1230 -615 m 1,0,-1
 0 -615 l 1,1,-1
 0 -325 l 1,2,-1
 102 -325 l 1,3,-1
 102 -228 l 1,4,-1
 0 -228 l 1,5,-1
 0 62 l 1,6,-1
 102 62 l 1,7,-1
 102 159 l 1,8,-1
 0 159 l 1,9,-1
 0 450 l 1,10,-1
 102 450 l 1,11,-1
 102 546 l 1,12,-1
 0 546 l 1,13,-1
 0 835 l 1,14,-1
 102 835 l 1,15,-1
 102 933 l 1,16,-1
 0 933 l 1,17,-1
 0 1222 l 1,18,-1
 102 1222 l 1,19,-1
 102 1320 l 1,20,-1
 0 1320 l 1,21,-1
 0 1609 l 1,22,-1
 102 1609 l 1,23,-1
 102 1705 l 1,24,-1
 205 1705 l 1,25,-1
 205 1609 l 1,26,-1
 307 1609 l 1,27,-1
 307 1705 l 1,28,-1
 410 1705 l 1,29,-1
 410 1609 l 1,30,-1
 512 1609 l 1,31,-1
 512 1705 l 1,32,-1
 615 1705 l 1,33,-1
 615 1609 l 1,34,-1
 717 1609 l 1,35,-1
 717 1705 l 1,36,-1
 820 1705 l 1,37,-1
 820 1609 l 1,38,-1
 922 1609 l 1,39,-1
 922 1705 l 1,40,-1
 1025 1705 l 1,41,-1
 1025 1609 l 1,42,-1
 1127 1609 l 1,43,-1
 1127 1705 l 1,44,-1
 1230 1705 l 1,45,-1
 1230 1512 l 1,46,-1
 1127 1512 l 1,47,-1
 1127 1414 l 1,48,-1
 1230 1414 l 1,49,-1
 1230 1125 l 1,50,-1
 1127 1125 l 1,51,-1
 1127 1029 l 1,52,-1
 1230 1029 l 1,53,-1
 1230 738 l 1,54,-1
 1127 738 l 1,55,-1
 1127 642 l 1,56,-1
 1230 642 l 1,57,-1
 1230 351 l 1,58,-1
 1127 351 l 1,59,-1
 1127 255 l 1,60,-1
 1230 255 l 1,61,-1
 1230 -36 l 1,62,-1
 1127 -36 l 1,63,-1
 1127 -130 l 1,64,-1
 1230 -130 l 1,65,-1
 1230 -421 l 1,66,-1
 1127 -421 l 1,67,-1
 1127 -517 l 1,68,-1
 1230 -517 l 1,69,-1
 1230 -615 l 1,0,-1
102 1125 m 1,70,-1
 102 1029 l 1,71,-1
 205 1029 l 1,72,-1
 205 1125 l 1,73,-1
 102 1125 l 1,70,-1
307 1125 m 1,74,-1
 307 1029 l 1,75,-1
 410 1029 l 1,76,-1
 410 1125 l 1,77,-1
 307 1125 l 1,74,-1
512 1125 m 1,78,-1
 512 1029 l 1,79,-1
 615 1029 l 1,80,-1
 615 1125 l 1,81,-1
 512 1125 l 1,78,-1
717 1125 m 1,82,-1
 717 1029 l 1,83,-1
 820 1029 l 1,84,-1
 820 1125 l 1,85,-1
 717 1125 l 1,82,-1
922 933 m 1,86,-1
 820 933 l 1,87,-1
 820 835 l 1,88,-1
 922 835 l 1,89,-1
 922 933 l 1,86,-1
717 933 m 1,90,-1
 615 933 l 1,91,-1
 615 835 l 1,92,-1
 717 835 l 1,93,-1
 717 933 l 1,90,-1
512 933 m 1,94,-1
 410 933 l 1,95,-1
 410 835 l 1,96,-1
 512 835 l 1,97,-1
 512 933 l 1,94,-1
307 933 m 1,98,-1
 205 933 l 1,99,-1
 205 835 l 1,100,-1
 307 835 l 1,101,-1
 307 933 l 1,98,-1
102 738 m 1,102,-1
 102 642 l 1,103,-1
 205 642 l 1,104,-1
 205 738 l 1,105,-1
 102 738 l 1,102,-1
307 738 m 1,106,-1
 307 642 l 1,107,-1
 410 642 l 1,108,-1
 410 738 l 1,109,-1
 307 738 l 1,106,-1
512 738 m 1,110,-1
 512 642 l 1,111,-1
 615 642 l 1,112,-1
 615 738 l 1,113,-1
 512 738 l 1,110,-1
717 738 m 1,114,-1
 717 642 l 1,115,-1
 820 642 l 1,116,-1
 820 738 l 1,117,-1
 717 738 l 1,114,-1
307 546 m 1,118,-1
 205 546 l 1,119,-1
 205 450 l 1,120,-1
 307 450 l 1,121,-1
 307 546 l 1,118,-1
410 546 m 1,122,-1
 410 450 l 1,123,-1
 512 450 l 1,124,-1
 512 546 l 1,125,-1
 410 546 l 1,122,-1
615 546 m 1,126,-1
 615 450 l 1,127,-1
 717 450 l 1,128,-1
 717 546 l 1,129,-1
 615 546 l 1,126,-1
820 546 m 1,130,-1
 820 450 l 1,131,-1
 922 450 l 1,132,-1
 922 546 l 1,133,-1
 820 546 l 1,130,-1
102 351 m 1,134,-1
 102 255 l 1,135,-1
 205 255 l 1,136,-1
 205 351 l 1,137,-1
 102 351 l 1,134,-1
512 351 m 1,138,-1
 512 255 l 1,139,-1
 615 255 l 1,140,-1
 615 351 l 1,141,-1
 512 351 l 1,138,-1
410 255 m 1,142,-1
 410 351 l 1,143,-1
 307 351 l 1,144,-1
 307 255 l 1,145,-1
 410 255 l 1,142,-1
717 351 m 1,146,-1
 717 255 l 1,147,-1
 820 255 l 1,148,-1
 820 351 l 1,149,-1
 717 351 l 1,146,-1
922 62 m 1,150,-1
 922 159 l 1,151,-1
 820 159 l 1,152,-1
 820 62 l 1,153,-1
 922 62 l 1,150,-1
717 62 m 1,154,-1
 717 159 l 1,155,-1
 615 159 l 1,156,-1
 615 62 l 1,157,-1
 717 62 l 1,154,-1
512 62 m 1,158,-1
 512 159 l 1,159,-1
 410 159 l 1,160,-1
 410 62 l 1,161,-1
 512 62 l 1,158,-1
307 62 m 1,162,-1
 307 159 l 1,163,-1
 205 159 l 1,164,-1
 205 62 l 1,165,-1
 307 62 l 1,162,-1
102 -36 m 1,166,-1
 102 -130 l 1,167,-1
 205 -130 l 1,168,-1
 205 -36 l 1,169,-1
 102 -36 l 1,166,-1
307 -36 m 1,170,-1
 307 -130 l 1,171,-1
 410 -130 l 1,172,-1
 410 -36 l 1,173,-1
 307 -36 l 1,170,-1
512 -36 m 1,174,-1
 512 -130 l 1,175,-1
 615 -130 l 1,176,-1
 615 -36 l 1,177,-1
 512 -36 l 1,174,-1
717 -36 m 1,178,-1
 717 -130 l 1,179,-1
 820 -130 l 1,180,-1
 820 -36 l 1,181,-1
 717 -36 l 1,178,-1
922 -325 m 1,182,-1
 922 -228 l 1,183,-1
 820 -228 l 1,184,-1
 820 -325 l 1,185,-1
 922 -325 l 1,182,-1
717 -325 m 1,186,-1
 717 -228 l 1,187,-1
 615 -228 l 1,188,-1
 615 -325 l 1,189,-1
 717 -325 l 1,186,-1
512 -325 m 1,190,-1
 512 -228 l 1,191,-1
 410 -228 l 1,192,-1
 410 -325 l 1,193,-1
 512 -325 l 1,190,-1
307 -325 m 1,194,-1
 307 -228 l 1,195,-1
 205 -228 l 1,196,-1
 205 -325 l 1,197,-1
 307 -325 l 1,194,-1
102 -421 m 1,198,-1
 102 -517 l 1,199,-1
 205 -517 l 1,200,-1
 205 -421 l 1,201,-1
 102 -421 l 1,198,-1
307 -421 m 1,202,-1
 307 -517 l 1,203,-1
 410 -517 l 1,204,-1
 410 -421 l 1,205,-1
 307 -421 l 1,202,-1
512 -421 m 1,206,-1
 512 -517 l 1,207,-1
 615 -517 l 1,208,-1
 615 -421 l 1,209,-1
 512 -421 l 1,206,-1
717 -421 m 1,210,-1
 717 -517 l 1,211,-1
 820 -517 l 1,212,-1
 820 -421 l 1,213,-1
 717 -421 l 1,210,-1
922 1320 m 1,214,-1
 820 1320 l 1,215,-1
 820 1222 l 1,216,-1
 922 1222 l 1,217,-1
 922 1320 l 1,214,-1
717 1320 m 1,218,-1
 615 1320 l 1,219,-1
 615 1222 l 1,220,-1
 717 1222 l 1,221,-1
 717 1320 l 1,218,-1
512 1320 m 1,222,-1
 410 1320 l 1,223,-1
 410 1222 l 1,224,-1
 512 1222 l 1,225,-1
 512 1320 l 1,222,-1
307 1320 m 1,226,-1
 205 1320 l 1,227,-1
 205 1222 l 1,228,-1
 307 1222 l 1,229,-1
 307 1320 l 1,226,-1
820 1512 m 1,230,-1
 717 1512 l 1,231,-1
 717 1414 l 1,232,-1
 820 1414 l 1,233,-1
 820 1512 l 1,230,-1
615 1512 m 1,234,-1
 512 1512 l 1,235,-1
 512 1414 l 1,236,-1
 615 1414 l 1,237,-1
 615 1512 l 1,234,-1
410 1512 m 1,238,-1
 307 1512 l 1,239,-1
 307 1414 l 1,240,-1
 410 1414 l 1,241,-1
 410 1512 l 1,238,-1
205 1512 m 1,242,-1
 102 1512 l 1,243,-1
 102 1414 l 1,244,-1
 205 1414 l 1,245,-1
 205 1512 l 1,242,-1
922 1125 m 1,246,-1
 922 1029 l 1,247,-1
 1025 1029 l 1,248,-1
 1025 1125 l 1,249,-1
 922 1125 l 1,246,-1
1127 933 m 1,250,-1
 1025 933 l 1,251,-1
 1025 835 l 1,252,-1
 1127 835 l 1,253,-1
 1127 933 l 1,250,-1
922 738 m 1,254,-1
 922 642 l 1,255,-1
 1025 642 l 1,256,-1
 1025 738 l 1,257,-1
 922 738 l 1,254,-1
1025 546 m 1,258,-1
 1025 450 l 1,259,-1
 1127 450 l 1,260,-1
 1127 546 l 1,261,-1
 1025 546 l 1,258,-1
922 351 m 1,262,-1
 922 255 l 1,263,-1
 1025 255 l 1,264,-1
 1025 351 l 1,265,-1
 922 351 l 1,262,-1
1127 62 m 1,266,-1
 1127 159 l 1,267,-1
 1025 159 l 1,268,-1
 1025 62 l 1,269,-1
 1127 62 l 1,266,-1
922 -36 m 1,270,-1
 922 -130 l 1,271,-1
 1025 -130 l 1,272,-1
 1025 -36 l 1,273,-1
 922 -36 l 1,270,-1
1127 -325 m 1,274,-1
 1127 -228 l 1,275,-1
 1025 -228 l 1,276,-1
 1025 -325 l 1,277,-1
 1127 -325 l 1,274,-1
922 -421 m 1,278,-1
 922 -517 l 1,279,-1
 1025 -517 l 1,280,-1
 1025 -421 l 1,281,-1
 922 -421 l 1,278,-1
1127 1320 m 1,282,-1
 1025 1320 l 1,283,-1
 1025 1222 l 1,284,-1
 1127 1222 l 1,285,-1
 1127 1320 l 1,282,-1
1025 1512 m 1,286,-1
 922 1512 l 1,287,-1
 922 1414 l 1,288,-1
 1025 1414 l 1,289,-1
 1025 1512 l 1,286,-1
EndSplineSet
Validated: 1
EndChar

StartChar: filledbox
Encoding: 9632 9632 373
Width: 1229
GlyphClass: 2
Flags: W
LayerCount: 2
Fore
SplineSet
119 1108 m 1,0,-1
 1110 1108 l 1,1,-1
 1110 117 l 1,2,-1
 119 117 l 1,3,-1
 119 1108 l 1,0,-1
EndSplineSet
Validated: 1
EndChar

StartChar: filledrect
Encoding: 9644 9644 374
Width: 1229
GlyphClass: 2
Flags: W
LayerCount: 2
Fore
SplineSet
8 546 m 1,0,-1
 1221 546 l 1,1,-1
 1221 70 l 1,2,-1
 8 70 l 1,3,-1
 8 546 l 1,0,-1
EndSplineSet
Validated: 1
EndChar

StartChar: triagup
Encoding: 9650 9650 375
Width: 1229
GlyphClass: 2
Flags: W
LayerCount: 2
Fore
SplineSet
15 50 m 1,0,-1
 615 1198 l 1,1,-1
 1213 50 l 1,2,-1
 15 50 l 1,0,-1
EndSplineSet
Validated: 1
EndChar

StartChar: triagrt
Encoding: 9658 9658 376
Width: 1229
GlyphClass: 2
Flags: W
LayerCount: 2
Fore
SplineSet
52 1196 m 1,0,-1
 1227 586 l 1,1,-1
 52 -27 l 1,2,-1
 52 1196 l 1,0,-1
EndSplineSet
Validated: 1
EndChar

StartChar: triagdn
Encoding: 9660 9660 377
Width: 1229
GlyphClass: 2
Flags: W
LayerCount: 2
Fore
SplineSet
1213 1121 m 1,0,-1
 615 -27 l 1,1,-1
 15 1121 l 1,2,-1
 1213 1121 l 1,0,-1
EndSplineSet
Validated: 1
EndChar

StartChar: triaglf
Encoding: 9668 9668 378
Width: 1229
GlyphClass: 2
Flags: W
LayerCount: 2
Fore
SplineSet
1177 1196 m 1,0,-1
 1177 -27 l 1,1,-1
 2 586 l 1,2,-1
 1177 1196 l 1,0,-1
EndSplineSet
Validated: 1
EndChar

StartChar: circle
Encoding: 9675 9675 379
Width: 1229
GlyphClass: 2
Flags: W
LayerCount: 2
Fore
SplineSet
163 612 m 256,0,1
 163 734 163 734 223 839 c 128,-1,2
 283 944 283 944 387.5 1004.5 c 128,-1,3
 492 1065 492 1065 613 1065 c 0,4,5
 735 1065 735 1065 840 1004.5 c 128,-1,6
 945 944 945 944 1005.5 838.5 c 128,-1,7
 1066 733 1066 733 1066 612 c 256,8,9
 1066 491 1066 491 1005.5 386.5 c 128,-1,10
 945 282 945 282 840.5 222 c 128,-1,11
 736 162 736 162 613 162 c 0,12,13
 491 162 491 162 387 222 c 128,-1,14
 283 282 283 282 223 386 c 128,-1,15
 163 490 163 490 163 612 c 256,0,1
249 612 m 0,16,17
 249 514 249 514 298 429.5 c 128,-1,18
 347 345 347 345 430.5 296.5 c 128,-1,19
 514 248 514 248 613 248 c 0,20,21
 711 248 711 248 795.5 296 c 128,-1,22
 880 344 880 344 930 429 c 128,-1,23
 980 514 980 514 980 612 c 256,24,25
 980 710 980 710 931 795.5 c 128,-1,26
 882 881 882 881 796.5 930 c 128,-1,27
 711 979 711 979 613 979 c 0,28,29
 516 979 516 979 431.5 930 c 128,-1,30
 347 881 347 881 298 796.5 c 128,-1,31
 249 712 249 712 249 612 c 0,16,17
EndSplineSet
Validated: 1
EndChar

StartChar: invbullet
Encoding: 9688 9688 380
Width: 1229
GlyphClass: 2
Flags: W
LayerCount: 2
Fore
SplineSet
37 0 m 1,0,-1
 37 1155 l 1,1,-1
 1192 1155 l 1,2,-1
 1192 0 l 1,3,-1
 37 0 l 1,0,-1
172 577 m 256,4,5
 172 459 172 459 231 357 c 128,-1,6
 290 255 290 255 391.5 196 c 128,-1,7
 493 137 493 137 612 137 c 0,8,9
 730 137 730 137 832.5 196 c 128,-1,10
 935 255 935 255 994 357.5 c 128,-1,11
 1053 460 1053 460 1053 577 c 0,12,13
 1053 695 1053 695 994 797.5 c 128,-1,14
 935 900 935 900 833 959 c 128,-1,15
 731 1018 731 1018 612 1018 c 0,16,17
 494 1018 494 1018 391.5 958.5 c 128,-1,18
 289 899 289 899 230.5 797 c 128,-1,19
 172 695 172 695 172 577 c 256,4,5
EndSplineSet
Validated: 1
EndChar

StartChar: invcircle
Encoding: 9689 9689 381
Width: 1229
GlyphClass: 2
Flags: W
LayerCount: 2
Fore
SplineSet
37 0 m 1,0,-1
 37 1155 l 1,1,-1
 1192 1155 l 1,2,-1
 1192 0 l 1,3,-1
 37 0 l 1,0,-1
249 577 m 256,4,5
 249 674 249 674 298 759 c 128,-1,6
 347 844 347 844 432 893 c 128,-1,7
 517 942 517 942 614 942 c 256,8,9
 711 942 711 942 796 893 c 128,-1,10
 881 844 881 844 930 759 c 128,-1,11
 979 674 979 674 979 577 c 256,12,13
 979 480 979 480 930 395 c 128,-1,14
 881 310 881 310 796 261 c 128,-1,15
 711 212 711 212 614 212 c 256,16,17
 517 212 517 212 432 261 c 128,-1,18
 347 310 347 310 298 395 c 128,-1,19
 249 480 249 480 249 577 c 256,4,5
172 577 m 256,20,21
 172 459 172 459 231 357 c 128,-1,22
 290 255 290 255 391.5 196 c 128,-1,23
 493 137 493 137 612 137 c 0,24,25
 730 137 730 137 832.5 196 c 128,-1,26
 935 255 935 255 994 357.5 c 128,-1,27
 1053 460 1053 460 1053 577 c 0,28,29
 1053 695 1053 695 994 797.5 c 128,-1,30
 935 900 935 900 833 959 c 128,-1,31
 731 1018 731 1018 612 1018 c 0,32,33
 494 1018 494 1018 391.5 958.5 c 128,-1,34
 289 899 289 899 230.5 797 c 128,-1,35
 172 695 172 695 172 577 c 256,20,21
EndSplineSet
Validated: 1
EndChar

StartChar: smileface
Encoding: 9786 9786 382
Width: 1229
GlyphClass: 2
Flags: W
LayerCount: 2
Fore
SplineSet
27 589 m 256,0,1
 27 747 27 747 105.5 883 c 128,-1,2
 184 1019 184 1019 320 1097.5 c 128,-1,3
 456 1176 456 1176 614 1176 c 256,4,5
 772 1176 772 1176 907.5 1097.5 c 128,-1,6
 1043 1019 1043 1019 1122 883 c 128,-1,7
 1201 747 1201 747 1201 589 c 256,8,9
 1201 431 1201 431 1122.5 295 c 128,-1,10
 1044 159 1044 159 908 80.5 c 128,-1,11
 772 2 772 2 614 2 c 256,12,13
 456 2 456 2 320 80.5 c 128,-1,14
 184 159 184 159 105.5 295 c 128,-1,15
 27 431 27 431 27 589 c 256,0,1
90 589 m 0,16,17
 90 449 90 449 160 327.5 c 128,-1,18
 230 206 230 206 351.5 135.5 c 128,-1,19
 473 65 473 65 614 65 c 0,20,21
 754 65 754 65 875.5 135.5 c 128,-1,22
 997 206 997 206 1067 328 c 128,-1,23
 1137 450 1137 450 1137 589 c 0,24,25
 1137 729 1137 729 1067 850 c 128,-1,26
 997 971 997 971 876 1041.5 c 128,-1,27
 755 1112 755 1112 614 1112 c 0,28,29
 474 1112 474 1112 352.5 1042 c 128,-1,30
 231 972 231 972 160.5 850 c 128,-1,31
 90 728 90 728 90 589 c 0,16,17
326 741 m 256,32,33
 326 770 326 770 346.5 791 c 128,-1,34
 367 812 367 812 396 812 c 256,35,36
 425 812 425 812 446 791 c 128,-1,37
 467 770 467 770 467 741 c 256,38,39
 467 712 467 712 446 691.5 c 128,-1,40
 425 671 425 671 396 671 c 256,41,42
 367 671 367 671 346.5 691.5 c 128,-1,43
 326 712 326 712 326 741 c 256,32,33
761 741 m 256,44,45
 761 770 761 770 781.5 791 c 128,-1,46
 802 812 802 812 831 812 c 256,47,48
 860 812 860 812 881 791 c 128,-1,49
 902 770 902 770 902 741 c 256,50,51
 902 712 902 712 881 691.5 c 128,-1,52
 860 671 860 671 831 671 c 256,53,54
 802 671 802 671 781.5 691.5 c 128,-1,55
 761 712 761 712 761 741 c 256,44,45
353 442 m 1,56,57
 411 364 411 364 473.5 335 c 128,-1,58
 536 306 536 306 614 306 c 0,59,60
 694 306 694 306 756 335.5 c 128,-1,61
 818 365 818 365 875 442 c 1,62,-1
 933 393 l 1,63,64
 821 216 821 216 614 216 c 0,65,66
 543 216 543 216 485.5 236 c 128,-1,67
 428 256 428 256 384.5 290 c 128,-1,68
 341 324 341 324 295 393 c 1,69,-1
 353 442 l 1,56,57
EndSplineSet
Validated: 1
EndChar

StartChar: invsmileface
Encoding: 9787 9787 383
Width: 1229
GlyphClass: 2
Flags: W
LayerCount: 2
Fore
SplineSet
27 589 m 256,0,1
 27 747 27 747 105.5 883 c 128,-1,2
 184 1019 184 1019 320 1097.5 c 128,-1,3
 456 1176 456 1176 614 1176 c 256,4,5
 772 1176 772 1176 907.5 1097.5 c 128,-1,6
 1043 1019 1043 1019 1122 883 c 128,-1,7
 1201 747 1201 747 1201 589 c 256,8,9
 1201 431 1201 431 1122.5 295 c 128,-1,10
 1044 159 1044 159 908 80.5 c 128,-1,11
 772 2 772 2 614 2 c 256,12,13
 456 2 456 2 320 80.5 c 128,-1,14
 184 159 184 159 105.5 295 c 128,-1,15
 27 431 27 431 27 589 c 256,0,1
326 741 m 256,16,17
 326 712 326 712 346.5 691.5 c 128,-1,18
 367 671 367 671 396 671 c 256,19,20
 425 671 425 671 446 691.5 c 128,-1,21
 467 712 467 712 467 741 c 256,22,23
 467 770 467 770 446 791 c 128,-1,24
 425 812 425 812 396 812 c 256,25,26
 367 812 367 812 346.5 791 c 128,-1,27
 326 770 326 770 326 741 c 256,16,17
761 741 m 256,28,29
 761 712 761 712 781.5 691.5 c 128,-1,30
 802 671 802 671 831 671 c 256,31,32
 860 671 860 671 881 691.5 c 128,-1,33
 902 712 902 712 902 741 c 256,34,35
 902 770 902 770 881 791 c 128,-1,36
 860 812 860 812 831 812 c 256,37,38
 802 812 802 812 781.5 791 c 128,-1,39
 761 770 761 770 761 741 c 256,28,29
295 393 m 1,40,41
 340 325 340 325 383.5 291 c 128,-1,42
 427 257 427 257 484 236.5 c 128,-1,43
 541 216 541 216 614 216 c 0,44,45
 821 216 821 216 933 393 c 1,46,-1
 875 442 l 1,47,48
 817 364 817 364 754.5 335 c 128,-1,49
 692 306 692 306 614 306 c 0,50,51
 535 306 535 306 472.5 335.5 c 128,-1,52
 410 365 410 365 353 442 c 1,53,-1
 295 393 l 1,40,41
EndSplineSet
Validated: 1
EndChar

StartChar: sun
Encoding: 9788 9788 384
Width: 1229
GlyphClass: 2
Flags: W
LayerCount: 2
Fore
SplineSet
224 907 m 1,0,-1
 388 742 l 1,1,2
 475 811 475 811 578 821 c 1,3,-1
 578 1054 l 1,4,-1
 650 1054 l 1,5,-1
 650 821 l 1,6,7
 752 812 752 812 839 742 c 1,8,-1
 1004 907 l 1,9,-1
 1055 856 l 1,10,-1
 890 691 l 1,11,12
 960 604 960 604 969 502 c 1,13,-1
 1202 502 l 1,14,-1
 1202 430 l 1,15,-1
 969 430 l 1,16,17
 959 327 959 327 890 240 c 1,18,-1
 1055 76 l 1,19,-1
 1004 25 l 1,20,-1
 839 189 l 1,21,22
 752 119 752 119 650 110 c 1,23,-1
 650 -122 l 1,24,-1
 578 -122 l 1,25,-1
 578 110 l 1,26,27
 475 120 475 120 388 189 c 1,28,-1
 224 25 l 1,29,-1
 173 76 l 1,30,-1
 337 240 l 1,31,32
 268 327 268 327 258 430 c 1,33,-1
 26 430 l 1,34,-1
 26 502 l 1,35,-1
 258 502 l 1,36,37
 267 604 267 604 337 691 c 1,38,-1
 173 856 l 1,39,-1
 224 907 l 1,0,-1
329 466 m 256,40,41
 329 348 329 348 411.5 264.5 c 128,-1,42
 494 181 494 181 614 181 c 256,43,44
 734 181 734 181 816.5 264.5 c 128,-1,45
 899 348 899 348 899 466 c 256,46,47
 899 584 899 584 815.5 667.5 c 128,-1,48
 732 751 732 751 614 751 c 256,49,50
 496 751 496 751 412.5 667.5 c 128,-1,51
 329 584 329 584 329 466 c 256,40,41
EndSplineSet
Validated: 1
EndChar

StartChar: female
Encoding: 9792 9792 385
Width: 1229
GlyphClass: 2
Flags: W
LayerCount: 2
Fore
SplineSet
344 376 m 1,0,-1
 578 376 l 1,1,-1
 578 578 l 1,2,3
 464 592 464 592 390 677 c 128,-1,4
 316 762 316 762 316 874 c 0,5,6
 316 997 316 997 403.5 1084.5 c 128,-1,7
 491 1172 491 1172 614 1172 c 256,8,9
 737 1172 737 1172 824.5 1084.5 c 128,-1,10
 912 997 912 997 912 874 c 0,11,12
 912 763 912 763 838 678 c 128,-1,13
 764 593 764 593 650 578 c 1,14,-1
 650 376 l 1,15,-1
 884 376 l 1,16,-1
 884 304 l 1,17,-1
 650 304 l 1,18,-1
 650 70 l 1,19,-1
 578 70 l 1,20,-1
 578 304 l 1,21,-1
 344 304 l 1,22,-1
 344 376 l 1,0,-1
388 874 m 0,23,24
 388 780 388 780 454 714 c 128,-1,25
 520 648 520 648 614 648 c 0,26,27
 709 648 709 648 774.5 715 c 128,-1,28
 840 782 840 782 840 874 c 0,29,30
 840 967 840 967 774 1033.5 c 128,-1,31
 708 1100 708 1100 614 1100 c 0,32,33
 523 1100 523 1100 455.5 1035 c 128,-1,34
 388 970 388 970 388 874 c 0,23,24
EndSplineSet
Validated: 1
EndChar

StartChar: male
Encoding: 9794 9794 386
Width: 1229
GlyphClass: 2
Flags: W
LayerCount: 2
Fore
SplineSet
164 412 m 256,0,1
 164 535 164 535 251.5 622.5 c 128,-1,2
 339 710 339 710 462 710 c 0,3,4
 564 710 564 710 645 646 c 1,5,-1
 902 903 l 1,6,-1
 676 923 l 1,7,-1
 674 978 l 1,8,-1
 1005 978 l 1,9,-1
 1028 955 l 1,10,-1
 1028 624 l 1,11,-1
 973 626 l 1,12,-1
 953 852 l 1,13,-1
 696 595 l 1,14,15
 760 514 760 514 760 412 c 0,16,17
 760 289 760 289 672.5 201.5 c 128,-1,18
 585 114 585 114 462 114 c 256,19,20
 339 114 339 114 251.5 201.5 c 128,-1,21
 164 289 164 289 164 412 c 256,0,1
236 412 m 0,22,23
 236 318 236 318 302 252 c 128,-1,24
 368 186 368 186 462 186 c 0,25,26
 557 186 557 186 622.5 253 c 128,-1,27
 688 320 688 320 688 412 c 0,28,29
 688 505 688 505 622 571.5 c 128,-1,30
 556 638 556 638 462 638 c 0,31,32
 371 638 371 638 303.5 573 c 128,-1,33
 236 508 236 508 236 412 c 0,22,23
EndSplineSet
Validated: 1
EndChar

StartChar: spade
Encoding: 9824 9824 387
Width: 1229
GlyphClass: 2
Flags: W
LayerCount: 2
Fore
SplineSet
640 1195 m 1,0,1
 640 1109 640 1109 711 1002.5 c 128,-1,2
 782 896 782 896 891 810 c 0,3,4
 1021 708 1021 708 1073.5 632.5 c 128,-1,5
 1126 557 1126 557 1126 478 c 0,6,7
 1126 370 1126 370 1058 305 c 128,-1,8
 990 240 990 240 891 240 c 0,9,10
 831 240 831 240 765 268.5 c 128,-1,11
 699 297 699 297 662 340 c 1,12,13
 662 207 662 207 749.5 131.5 c 128,-1,14
 837 56 837 56 982 56 c 1,15,-1
 982 0 l 1,16,-1
 246 0 l 1,17,-1
 246 56 l 1,18,19
 391 56 391 56 478.5 131.5 c 128,-1,20
 566 207 566 207 566 340 c 1,21,22
 528 297 528 297 462 268.5 c 128,-1,23
 396 240 396 240 337 240 c 0,24,25
 237 240 237 240 169.5 305 c 128,-1,26
 102 370 102 370 102 478 c 0,27,28
 102 555 102 555 151.5 628 c 128,-1,29
 201 701 201 701 337 810 c 1,30,31
 446 895 446 895 517 1002.5 c 128,-1,32
 588 1110 588 1110 588 1195 c 1,33,-1
 640 1195 l 1,0,1
EndSplineSet
Validated: 1
EndChar

StartChar: club
Encoding: 9827 9827 388
Width: 1229
GlyphClass: 2
Flags: W
LayerCount: 2
Fore
SplineSet
614 1195 m 256,0,1
 699 1195 699 1195 761 1164.5 c 128,-1,2
 823 1134 823 1134 857 1079.5 c 128,-1,3
 891 1025 891 1025 891 961 c 0,4,5
 891 894 891 894 857.5 827.5 c 128,-1,6
 824 761 824 761 773 725 c 1,7,-1
 828 728 l 1,8,9
 963 728 963 728 1047 659.5 c 128,-1,10
 1131 591 1131 591 1131 478 c 0,11,12
 1131 370 1131 370 1063 305 c 128,-1,13
 995 240 995 240 896 240 c 0,14,15
 835 240 835 240 767 269.5 c 128,-1,16
 699 299 699 299 662 340 c 1,17,18
 662 207 662 207 749.5 131.5 c 128,-1,19
 837 56 837 56 982 56 c 1,20,-1
 982 0 l 1,21,-1
 246 0 l 1,22,-1
 246 56 l 1,23,24
 391 56 391 56 478.5 131.5 c 128,-1,25
 566 207 566 207 566 340 c 1,26,27
 530 299 530 299 462.5 269.5 c 128,-1,28
 395 240 395 240 332 240 c 0,29,30
 232 240 232 240 164.5 305 c 128,-1,31
 97 370 97 370 97 478 c 0,32,33
 97 592 97 592 181 660 c 128,-1,34
 265 728 265 728 400 728 c 1,35,-1
 455 725 l 1,36,37
 404 761 404 761 370.5 827.5 c 128,-1,38
 337 894 337 894 337 961 c 0,39,40
 337 1025 337 1025 371 1079.5 c 128,-1,41
 405 1134 405 1134 467 1164.5 c 128,-1,42
 529 1195 529 1195 614 1195 c 256,0,1
EndSplineSet
Validated: 1
EndChar

